<?xml version="1.0" encoding="utf-8"?><svg viewBox="0 0 32 32" xmlns="http://www.w3.org/2000/svg" xmlns:xlink="http://www.w3.org/1999/xlink"><style>:root>svg{display:none}:root>svg:target{display:block}</style><svg viewBox="0 0 24 24" id="arrow" xmlns="http://www.w3.org/2000/svg"><path fill-rule="evenodd" clip-rule="evenodd" d="m8.97 3.823.53-.53 1.06 1.06-.53.53-6.97 6.97 6.97 6.97.53.53-1.06 1.061-.53-.53-7.5-7.5-.53-.53.53-.53 7.5-7.5ZM22 11.103h.75v1.5H7.25v-1.5H22Z"/></svg><svg fill="none" viewBox="0 0 24 24" id="arrow2" xmlns="http://www.w3.org/2000/svg"><g opacity=".5" stroke="#fff" stroke-width="1.5" stroke-linecap="round"><path d="M7 17 19 5"/><path d="M7 5h12v12" stroke-linejoin="round"/></g></svg><svg fill="none" viewBox="0 0 24 24" id="check" xmlns="http://www.w3.org/2000/svg"><path d="m5 10.5 6 7L20 6" stroke="#00BA00" stroke-width="2" stroke-linejoin="bevel"/></svg><svg fill="none" viewBox="0 0 32 32" id="close" xmlns="http://www.w3.org/2000/svg"><path fill-rule="evenodd" clip-rule="evenodd" d="M8.28 24.778a.75.75 0 0 1-1.06-1.06l7.718-7.72L7.22 8.28a.75.75 0 0 1 1.06-1.06L16 14.938l7.718-7.718a.75.75 0 1 1 1.06 1.06L17.06 16l7.719 7.718a.75.75 0 1 1-1.06 1.06l-7.72-7.718-7.718 7.719Z" fill="#fff"/></svg><svg fill="none" viewBox="0 0 32 32" id="facebook" xmlns="http://www.w3.org/2000/svg"><path d="M29 16.033C29 8.839 23.176 3 16 3S3 8.839 3 16.033c0 6.307 4.472 11.56 10.4 12.771v-8.862h-2.6v-3.91h2.6v-3.258c0-2.515 2.041-4.561 4.55-4.561h3.25v3.91h-2.6c-.715 0-1.3.586-1.3 1.303v2.607h3.9v3.91h-3.9V29c6.565-.652 11.7-6.203 11.7-12.967Z" fill="#fff"/></svg><svg fill="none" viewBox="0 0 32 32" id="instagram" xmlns="http://www.w3.org/2000/svg"><path d="M17.234 4c1.35.004 2.035.01 2.626.028l.233.008c.269.01.534.022.854.036 1.277.06 2.148.262 2.913.558.792.305 1.459.718 2.126 1.384a5.89 5.89 0 0 1 1.383 2.126c.297.764.498 1.635.558 2.913.015.32.027.585.037.855l.007.233c.018.59.025 1.275.027 2.625l.002.895v1.572c.002.876-.007 1.75-.028 2.626l-.007.233c-.01.27-.022.535-.036.854-.06 1.278-.264 2.148-.56 2.913a5.86 5.86 0 0 1-1.383 2.127 5.898 5.898 0 0 1-2.126 1.383c-.765.297-1.636.498-2.913.558-.284.014-.57.026-.854.036l-.233.008c-.591.016-1.276.025-2.626.027l-.896.001h-1.57a93.495 93.495 0 0 1-2.627-.027l-.233-.007c-.285-.011-.57-.023-.854-.038-1.277-.06-2.148-.261-2.914-.558-.8-.3-1.526-.773-2.125-1.383a5.885 5.885 0 0 1-1.384-2.127c-.297-.764-.498-1.635-.558-2.913-.014-.285-.026-.57-.036-.854l-.006-.233A94.88 94.88 0 0 1 4 17.233v-2.467c-.004-.875.005-1.75.026-2.625l.008-.233c.01-.27.022-.535.036-.855.06-1.278.262-2.148.558-2.913a5.856 5.856 0 0 1 1.388-2.126A5.876 5.876 0 0 1 8.14 4.63c.766-.296 1.636-.498 2.914-.558.32-.014.585-.026.854-.036l.233-.007c.875-.022 1.75-.03 2.626-.028L17.233 4ZM16 10a6 6 0 1 0 0 11.999 6 6 0 0 0 0-12Zm0 2.4A3.6 3.6 0 1 1 16 19.6 3.6 3.6 0 0 1 16 12.4m6.3-4.2a1.5 1.5 0 1 0 0 3 1.5 1.5 0 0 0 0-3Z" fill="#fff"/></svg><svg fill="none" viewBox="0 0 32 32" id="menu" xmlns="http://www.w3.org/2000/svg"><path fill-rule="evenodd" clip-rule="evenodd" d="M6 8.751c0 .414.335.75.75.75h18.496a.75.75 0 1 0 0-1.5H6.75a.75.75 0 0 0-.75.75ZM6 16c0 .415.335.75.75.75h18.496a.75.75 0 1 0 0-1.5H6.75A.75.75 0 0 0 6 16Zm.75 7.999a.75.75 0 0 1 0-1.5h18.496a.75.75 0 1 1 0 1.5H6.75Z" fill="#fff"/></svg><svg fill="none" viewBox="0 0 32 32" id="telegram" xmlns="http://www.w3.org/2000/svg"><path d="M16 3C8.824 3 3 8.824 3 16s5.824 13 13 13 13-5.824 13-13S23.176 3 16 3Zm6.032 8.84c-.195 2.054-1.04 7.046-1.469 9.347-.182.975-.546 1.3-.884 1.339-.754.065-1.326-.494-2.054-.975-1.144-.754-1.794-1.222-2.899-1.95-1.287-.845-.455-1.313.286-2.067.195-.195 3.523-3.224 3.588-3.497a.26.26 0 0 0-.065-.234c-.078-.065-.182-.039-.273-.026-.117.026-1.937 1.235-5.486 3.627-.52.351-.988.533-1.404.52-.468-.013-1.352-.26-2.015-.481-.819-.26-1.456-.403-1.404-.858.026-.234.351-.468.962-.715 3.796-1.651 6.318-2.743 7.579-3.263 3.614-1.508 4.355-1.768 4.849-1.768.104 0 .351.026.507.156.13.104.169.247.182.351-.013.078.013.312 0 .494Z" fill="#fff"/></svg></svg>