<svg width="329" height="698" viewBox="0 0 329 698" fill="none" xmlns="http://www.w3.org/2000/svg">
<g clip-path="url(#clip0_163_3433)">
<path d="M227.403 157.505C235.371 157.922 288.603 151.646 288.603 151.646L341 54.757V-24.8828H222.374L227.403 157.505Z" fill="#D63567"/>
<path d="M280.283 82.6129L251.292 -25L246.674 -24.8976L273.173 87.6822L280.283 82.6129Z" fill="#110937"/>
<path fill-rule="evenodd" clip-rule="evenodd" d="M-0.400391 468.179L64.971 394.545L-0.400391 697.654V468.179Z" fill="#C3235A"/>
<path fill-rule="evenodd" clip-rule="evenodd" d="M-0.400391 425.349L33.7294 404.991L59.554 382.358L63.439 384.391L-0.400391 589.178V425.349Z" fill="#110937"/>
<path d="M93.1411 202.032L118.137 188.426L130.826 194.768L104.906 221.03L93.1411 202.032Z" fill="#F1A4A9"/>
<path d="M206.02 153.292L204.576 152.684L204.275 145.062L213.38 138.705L225.313 138.676L237.401 145.998V151.061L226.076 157.256L226.039 146.693L220.409 142.173L212.309 142.107L208.014 145.56L206.02 153.292Z" fill="#DDE8B8"/>
<path d="M99.3278 42.5481L139.483 27.5667L151.424 -24.8828H187.892L252.347 12.4244L259.414 58.9413L189.351 99.0429L137.599 70.5504L97.3999 70.3529L99.3278 42.5481Z" fill="#FFE1A7"/>
<path d="M227.307 195.953L225.827 172.589L234.227 165.098L233.633 160.951L243.119 154.25L244.599 151.587L250.295 142.29L256.123 121.456L255.265 117.082L257.296 103.476L275.519 94.7998L275.277 82.3788L280.247 82.4812L285.451 101.244L263.424 107.55L262.141 114.024L268.298 117.411L260.887 148.727L257.86 147.213L251.439 155.954L251.468 159.312L237.768 170.943V172.947L231.845 178.631L231.94 195.061L227.307 195.953Z" fill="#B1CE57"/>
<path d="M88.7723 202.062L54.0635 222.705L67.104 272.653L92.9872 257.145L104.137 229.998L88.7723 202.062Z" fill="#EFBE55"/>
<path d="M92.0193 256.545L104.708 277.32L149.232 288.885L148.111 318.987L132.592 328.321L118.833 320.962L83.5675 314.949L75.8634 308.211L66.2461 271.27L92.0193 256.545Z" fill="#B1CE57"/>
<path d="M92.0195 256.545L95.9046 254.16L108.821 267.269L142.188 276.12V267.591L153.015 267.795L161.305 277.151L148.001 289.938L127.615 279.419L104.268 278.234L92.0195 256.545Z" fill="#D63566"/>
<path d="M67.7637 114.982L97.6345 104.968V115.963L114.414 132.787L122.924 131.888L119.024 138.735L97.7811 126.167L96.0512 127.791L103.118 140.022L68.8339 140.117L67.7637 114.982Z" fill="#FFE1A7"/>
<path d="M30.2183 132.268L65.7188 117.74L65.5429 142.846L75.556 179.78L89.1244 204.234L55.0093 223.948L30.2183 132.268Z" fill="#DB9728"/>
<path d="M131.383 195.756L147.686 205.419L131.083 209.26L130.496 196.246L131.383 195.756Z" fill="#2E3587"/>
<path d="M158.322 199.238L188.486 224.475L163.981 229.34L145.281 205.683L145.596 204.498L158.322 199.238Z" fill="#3F2D7C"/>
<path d="M145.303 182.216L155.874 182.311L158.146 197.79L168.826 198.272L166.84 208.931L157.45 201.14L145.597 204.498L135.62 198.777L145.303 182.216Z" fill="#FFE1A7"/>
<path d="M99.7895 -24.8828L99.3937 42.6798L49.3425 49.7828L66.2022 -13.3175L37.2256 6.00904L73.4445 -24.8828H99.7895Z" fill="#D63567"/>
<path d="M-0.400494 -24.9047H73.4447L37.2258 5.98707L66.2024 -13.3322L49.4674 49.8925L-46.9551 63.1182L-0.400494 -24.9047Z" fill="#110937"/>
<path d="M-46.9551 63.1181L49.658 49.7314L26.8168 134.96L-34.3983 157.929L-46.9551 63.1181Z" fill="#23184C"/>
<path d="M-0.400391 219.34L2.58303 225.66L-0.400391 236.882V219.34Z" fill="#110937"/>
<path d="M55.0093 223.948L77.7038 309.133L35.9066 283.494L14.832 247.218L55.0093 223.948Z" fill="#56AF47"/>
<path d="M115.733 288.49H93.999V310.179H115.733V288.49Z" fill="#FFE1A7"/>
<path d="M78.2314 311.679L122.902 311.657L133.047 328.752L123.826 334.663L78.2314 311.679Z" fill="#D93568"/>
<path d="M98.0818 236.326L91.8291 247.108L102.238 246.75L138.567 264.079L153.513 266.764L160.257 261.709L158.014 259.573L144.314 259.31L136.148 251.161L106.475 244.226L98.0818 236.326Z" fill="#BB1B54"/>
<path d="M158.373 259.785L144.233 259.515L135.84 251.139L139.512 248.461H151.813L158.373 259.785ZM144.402 259.105L157.655 259.361L151.571 248.864H139.637L136.456 251.183L144.394 259.105H144.402Z" fill="#EFBE55"/>
<path d="M136.148 251.161L139.571 248.659H151.688L158.014 259.573L144.314 259.31L136.148 251.161Z" fill="#EFBE55"/>
<path d="M92.0197 256.545L91.8071 247.181L102.326 247.379L138.486 267.196L142.188 267.591V276.12L108.821 267.269L95.9047 254.16L92.0197 256.545Z" fill="#DB9728"/>
<path d="M104.269 278.234L148.001 289.938L147.972 284.057L108.945 273.508L104.269 278.234Z" fill="#280019"/>
<path d="M148.001 289.938L161.306 277.151L174.639 269.119L184.718 269.609L161.357 308.95L147.781 318.46L148.001 289.938Z" fill="#2F3F92"/>
<path d="M196.806 212.647L194.629 214.717L185.275 225.097L179.382 225.858L171.187 255.696L190.121 260.392L196.901 248.593L196.806 212.647Z" fill="#747BB4"/>
<path d="M129.991 195.522L105.39 220.467L109.642 227.665L148.558 243.041L157.157 238.703L153.403 220.167L129.793 208.931L129.991 195.522Z" fill="#FFE1A7"/>
<path d="M117.983 188.463L152.971 169.012L136.17 199.106L117.983 188.463Z" fill="#DB9728"/>
<path d="M152.897 169.012L145.413 182.552L155.873 182.311L158.146 197.79L168.804 198.36L176.427 155.259L152.897 169.012Z" fill="#EFBE55"/>
<path d="M179.382 139.92L174.939 162.596L196.967 175.413L196.901 139.803L179.382 139.92Z" fill="#B1CE57"/>
<path d="M204.576 151.653V160.621L227.197 182.311L228.187 181.426V173.832L237.005 165.106L237.013 160L231.845 163.979H222.557L204.576 151.653Z" fill="#DA9629"/>
<path d="M196.967 175.413L220.38 189.019L227.197 182.311L224.727 179.75L217.353 187.044L202.993 162.794L196.872 168.807L196.967 175.413Z" fill="#747BB4"/>
<path d="M196.967 175.413L196.806 212.647L220.38 189.019L196.967 175.413Z" fill="#B1CE57"/>
<path d="M218.804 161.448L236.983 150.929L237.079 160.029L231.845 163.972H222.557L218.804 161.448Z" fill="#747BB4"/>
<path d="M206.02 152.626L206.108 145.406L212.214 141.331H220.842L226.244 146.525L226.31 157.11L218.804 161.448L206.02 152.626Z" fill="#00000A"/>
<path d="M219.588 145.011H216.891V147.703H219.588V145.011Z" fill="#F7F5F5"/>
<path d="M179.382 139.92H147.774L132.915 150.27H136.903V178.273L176.332 155.53L179.382 139.92Z" fill="#F1A4A9"/>
<path d="M109.143 178.273H136.903V150.271H133.208L116.554 165.062L109.143 151.551V178.273Z" fill="#DEE7B2"/>
<path d="M68.834 140.117V144.36L78.9644 179.253L93.7349 201.732L136.903 178.273H109.143V150.402L103.022 140.022L68.834 140.117Z" fill="#B1CE57"/>
<path d="M145.897 115.436L142.862 120.695L125.849 115.553L109.253 104.778L109.935 101.501L124.764 97.17L120.278 95.5899L105.141 101.866L105.133 106.321L108.329 109.189L108.381 108.955L118.167 120.103L140.099 125.033L151.732 123.146L145.897 115.436Z" fill="#EFBE55"/>
<path d="M96.0513 127.791L97.7812 126.167L119.024 138.735L122.924 131.888L103.264 108.274L105.141 106.299L120.109 119.81L140.458 124.148L146.44 127.206L150.589 124.638L155.727 133.563L147.774 140.022H103.118L96.0513 127.791Z" fill="#B1CE57"/>
<path d="M97.6344 104.968L105.141 101.866V109.357L118.137 122.619L142.488 127.842V129.964L114.413 132.86L97.5391 115.963L97.6344 104.968Z" fill="#2F3F92"/>
<path d="M140.458 124.148L146.44 127.206L150.588 124.638L149.32 122.275L142.862 120.695L140.458 124.148Z" fill="#DB972A"/>
<path d="M119.486 97.5942L129.001 103.146L130.386 114.419L120.109 119.81L108.33 109.189L109.935 101.501L119.486 97.5942Z" fill="black"/>
<path d="M124.852 103.146H121.458V106.533H124.852V103.146Z" fill="#F7F5F5"/>
<path d="M127.916 92.5029L148.925 97.9527L159.334 116.028L171.121 108.933L146.747 84.6099L127.916 92.5029Z" fill="#EFBE55"/>
<path d="M105.155 76.0732L105.104 94.0172L125.995 93.3735L147.334 84.4051L138.12 75.5465L105.155 76.0732Z" fill="#DB9728"/>
<path d="M49.4968 49.7533L99.394 42.6796V67.7851L68.0497 95.9191L66.9208 118.069L26.8169 134.96L49.4968 49.7533Z" fill="#7EBE42"/>
<path d="M83.6559 73.308C83.458 73.3738 78.1216 78.5968 78.1216 78.5968L68.7388 94.3683L68.1084 117.272L97.6347 104.961L105.192 93.015V76.7169L83.6559 73.3007V73.308Z" fill="#D63567"/>
<path d="M175.379 113.468L191.008 99.4011L211.005 119.254L196.872 132.97V139.824L179.382 140.022L182.908 120.63L175.379 113.468Z" fill="#FFE1A7"/>
<path d="M147.773 140.022H179.382L182.907 120.63L175.577 113.271L161.085 124.77L150.588 124.638L155.727 133.563L147.773 140.022Z" fill="#EC6A83"/>
<path d="M99.7899 -24.8828H151.556L151.637 35.5549L99.3281 42.5481L99.7899 -24.8828Z" fill="#EFBE55"/>
<path d="M137.24 30.3536L117.749 34.8232L137.768 32.0654L146.66 36.1106L149.225 35.7595L137.24 30.3536Z" fill="#2F3A8F"/>
<path d="M199.152 58.2169L149.225 35.7595L146.66 36.1106L198.36 59.6653L199.152 58.2169Z" fill="#4E2E8A"/>
<path d="M160.976 22.702L143.324 22.5703L159.92 23.9529L205.052 41.5384L205.983 39.461L160.976 22.702Z" fill="#303D90"/>
<path d="M219.398 44.4572L207.97 40.1998L207.024 42.3065L218.276 46.6883L219.398 44.4572Z" fill="#A51768"/>
<path d="M263.387 82.3788L259.172 103.015L279.462 97.5576L275.276 82.3788H263.387Z" fill="#23184C"/>
<path d="M248.243 127.791V144.257L242.906 147.41L229.961 137.849L203.484 137.454L204.965 129.664C204.965 129.664 245.67 124.046 246.256 124.141C246.85 124.236 248.235 127.791 248.235 127.791" fill="#EFBE55"/>
<path d="M248.242 144.257V127.008L255.748 131.346L254.861 139.92L246.314 152.18L244.093 146.723L248.242 144.257Z" fill="#5061A8"/>
<path d="M196.806 212.647L228.201 180.511V195.163L196.908 248.6C196.908 248.6 196.813 212.252 196.813 212.647" fill="#EC6A83"/>
<path d="M26.8167 134.96L-34.3984 157.929L-14.1962 179.451L-0.40062 220.386L2.58281 225.66L26.8167 134.96Z" fill="#3F2D7C"/>
<path d="M26.8169 134.96L31.0098 133.153L55.0091 223.949L14.8319 247.218L2.58301 225.66L26.8169 134.96Z" fill="#34438C"/>
<path d="M2.58303 225.66L35.7305 283.062L123.899 334.765L119.222 338.445L94.7246 333.054L37.8856 360.068L38.5454 394.706L59.8838 379.322L65.4768 382.219L49.4748 429.738H-0.400391V236.238L2.58303 225.66Z" fill="#110937"/>
<path d="M228.187 195.163L161.357 308.95L119.684 336.733L94.7834 331.605L36.6982 358.422L37.8857 401.406L60.1478 381.421L63.9669 383.396L49.3869 429.738L56.9704 431.641L68.9849 375.951L61.7238 373.272L41.2723 389.051L40.488 362.431L93.933 334.531L119.912 339.359L163.974 309.887L231.94 195.061L228.187 195.163Z" fill="#C3235A"/>
<path d="M189.747 98.1575L258.82 58.5241L263.387 82.3788L256.306 116.54L246.461 110.74H219.2L210.814 119.057L189.747 98.1575Z" fill="#7EBE42"/>
<path d="M252.802 83.0591L233.531 73.0886L232.365 73.7762L251.424 83.6516L257.794 91.8372L252.802 83.0591Z" fill="#2C3586"/>
<path d="M211.166 61.5161L210.521 62.4524L232.365 73.7762L233.531 73.0886L211.166 61.5161Z" fill="#A51768"/>
<path d="M166.84 208.931L185.51 223.919L196.806 212.647L196.967 175.413L174.94 162.596L166.84 208.931Z" fill="#DEE7B2"/>
<path d="M103.022 140.022H147.774L116.561 165.442L103.022 140.022Z" fill="#7EBE42"/>
<path d="M119.486 97.5943L129.001 103.146L130.386 114.419L126.003 116.818L142.863 120.695L145.897 115.436L141.88 103.344L122.47 96.3799L119.486 97.5943Z" fill="#DEE7B2"/>
<path d="M196.879 137.71L196.872 168.807L202.993 162.794L217.324 187.241L224.727 179.75L204.576 160.621V151.653L199.54 147.513L208.095 139.685L196.879 137.71Z" fill="#4C2E8A"/>
<path d="M204.591 -8.9287L250.346 14.4212L263.387 82.3787H275.277L250.324 -11.8035L240.964 -6.40498L251.402 4.29705L207.933 -20.8085L204.591 -8.9287Z" fill="#110937"/>
<path d="M113.124 88.5089L105.522 92.7663L98.0086 92.7224L97.0924 93.7831H103.712L97.6861 97.1553H90.5024V97.4918L97.6348 104.968L127.916 92.5029L113.124 88.5089Z" fill="#100836"/>
<path d="M199.54 147.513L204.576 151.653V145.442L213.666 139.298H225.255L236.976 146.328V163.679L246.315 156.283V148.939L233.575 136.269H205.265V131.734L246.066 126.76L254.811 131.785V140.805L255.654 141.448L261.481 119.613L246.461 110.74L219.2 110.593L196.872 132.97V139.824H207.589L199.54 147.513Z" fill="#00000A"/>
<path d="M120.278 95.5899L127.916 92.5029L148.925 97.9527L159.334 116.028L171.121 108.933L138.978 76.79L84.5795 76.7242L83.458 71.5305L130.482 58.5827L145.501 66.8049L130.35 57.0758L132.923 54.5081L172.374 81.5229L168.02 72.0571L162.163 71.9255V69.4968L168.482 71.1427L173.225 81.7863L191.008 99.4011L162.691 127.989L150.589 124.638L149.65 122.934L150.699 122.802L145.897 115.436L141.88 103.344L120.278 95.5899Z" fill="#00000D"/>
<path fill-rule="evenodd" clip-rule="evenodd" d="M246.798 -24.9047H172.608L206.188 -8.12382L208.578 -18.9063L253.183 5.74566L242.341 -5.25629L250.712 -10.333L246.798 -24.9047Z" fill="#00000D"/>
<path d="M324.683 201.542L308.292 205.705L242.635 252.997L184.704 273.121L187.716 267.269L239.278 249.317L286.096 218.433L307.882 204.161L324.683 201.542Z" fill="#C3235A"/>
<path d="M75.0646 214.746L106.475 244.226L136.148 251.161L139.571 248.659H151.688L159.524 262.265L152.414 266.208L138.684 263.648L102.231 246.494L90.6708 247.181L102.326 247.379L138.486 267.196L152.612 268.578L166.143 282.184L174.639 280.012V269.558H187.291L241.227 251.914L307.815 205.083L324.704 201.535L306.921 203.803L240.634 247.284L190.546 260.59L172.073 255.367L180.173 226.084H185.114L196.08 215.046L195.237 214.154L185.51 223.919L170.688 220.071L167.829 224.607L165.161 215.931L145.597 204.498L131.376 208.44L131.178 195.427L138.486 187.044L129.99 195.522L129.792 208.931L151.226 221.454L155.478 237.423L149.254 241.761L110.03 226.575L78.913 179.451L68.7386 144.36V94.3756L78.1213 78.5969L65.4106 90.5278V142.385L75.4531 180.438L104.136 229.998L75.0646 214.746Z" fill="#00000D"/>
</g>
<defs>
<clipPath id="clip0_163_3433">
<rect width="329" height="698" fill="white"/>
</clipPath>
</defs>
</svg>
