<svg width="64" height="64" viewBox="0 0 64 64" fill="none" xmlns="http://www.w3.org/2000/svg">
<path d="M32 5.33337C17.296 5.33337 5.33333 17.296 5.33333 32C5.33333 46.704 17.296 58.6667 32 58.6667C46.704 58.6667 58.6667 46.704 58.6667 32C58.6667 17.296 46.704 5.33337 32 5.33337ZM32 53.3334C20.2373 53.3334 10.6667 43.7627 10.6667 32C10.6667 20.2374 20.2373 10.6667 32 10.6667C43.7627 10.6667 53.3333 20.2374 53.3333 32C53.3333 43.7627 43.7627 53.3334 32 53.3334Z" fill="black"/>
<path d="M39.5413 39.5413C38.0694 41.0172 36.1963 42.0279 34.1547 42.448C32.7324 42.7333 31.2676 42.7333 29.8453 42.448C29.1613 42.306 28.4925 42.0988 27.848 41.8293C27.2153 41.559 26.6092 41.2305 26.0373 40.848C24.9036 40.0751 23.9249 39.0964 23.152 37.9626L18.7307 40.9413C19.304 41.792 19.9627 42.592 20.6853 43.312C22.1691 44.8008 23.9321 45.9822 25.8733 46.7885C27.8144 47.5948 29.8956 48.01 31.9976 48.0105C34.0995 48.011 36.1809 47.5967 38.1224 46.7914C40.064 45.986 41.8275 44.8054 43.312 43.3173C44.0373 42.5946 44.6987 41.7946 45.2693 40.9413L40.848 37.9626C40.4667 38.5253 40.0293 39.056 39.5413 39.5413Z" fill="black"/>
<path d="M22.6667 32C24.8758 32 26.6667 30.2091 26.6667 28C26.6667 25.7909 24.8758 24 22.6667 24C20.4575 24 18.6667 25.7909 18.6667 28C18.6667 30.2091 20.4575 32 22.6667 32Z" fill="black"/>
<path d="M41.3333 26.6666C36 26.6666 34.6667 32 34.6667 32H48C48 32 46.664 26.6666 41.3333 26.6666Z" fill="black"/>
</svg>
