<svg width="64" height="64" viewBox="0 0 64 64" fill="none" xmlns="http://www.w3.org/2000/svg">
<path d="M51.8687 43.4947C51.9556 43.3185 52.0006 43.1243 52 42.9276C51.9994 42.7308 51.9533 42.5369 51.8653 42.3612L50.241 39.978C50.2105 39.9337 50.1935 39.8824 50.1935 39.8244C50.1935 39.7664 50.2105 39.7151 50.241 39.6708L51.8687 37.2808C51.9556 37.1046 52.0006 36.9104 52 36.7136C51.9994 36.5169 51.9533 36.3229 51.8653 36.1472C51.7978 35.9622 51.6914 35.7941 51.5532 35.6544C51.4151 35.5147 51.2485 35.4068 51.065 35.3381L48.2742 34.3104C48.2227 34.2927 48.1767 34.2616 48.1409 34.2202C48.1052 34.1788 48.081 34.1286 48.0707 34.0748V31.2034C48.0599 31.0003 48.0026 30.8024 47.9032 30.6253C47.8037 30.4482 47.6649 30.2966 47.4976 30.1825C47.2669 30.0238 46.9938 29.9392 46.7143 29.9401H46.1378L43.2554 30.6913C43.1782 30.7226 43.0919 30.7226 43.0147 30.6913L41.153 28.472C41.017 28.3232 40.8519 28.2044 40.668 28.1232C40.4842 28.0419 40.2856 28 40.0848 28C39.884 28 39.6854 28.0419 39.5015 28.1232C39.3176 28.2044 39.1525 28.3232 39.0166 28.472L37.1515 30.6913C37.0743 30.7226 36.988 30.7226 36.9107 30.6913H36.9141L33.8622 29.906H33.4959C33.2133 29.9051 32.9369 29.9896 32.7024 30.1484C32.5366 30.2629 32.399 30.4141 32.3002 30.5905C32.2014 30.7669 32.1441 30.9637 32.1327 31.1658V34.0372C32.123 34.0912 32.0994 34.1416 32.0643 34.1836C32.0292 34.2255 31.9838 34.2574 31.9327 34.2762L29.1486 35.3005C28.8302 35.3529 28.5404 35.517 28.3306 35.7639C28.1209 36.0107 28.0046 36.3243 28.0024 36.6491C28.0024 36.854 28.0499 37.0486 28.1347 37.2193L29.759 39.6025C29.7895 39.6469 29.8065 39.6981 29.8065 39.7561C29.8065 39.8142 29.7895 39.8654 29.759 39.9098L28.1313 42.2997C28.0444 42.476 27.9994 42.6702 28 42.8669C28.0006 43.0637 28.0467 43.2576 28.1347 43.4333C28.2022 43.6183 28.3086 43.7864 28.4468 43.9261C28.5849 44.0658 28.7515 44.1737 28.935 44.2425L31.7258 45.2701C31.7773 45.2878 31.8233 45.319 31.8591 45.3603C31.8948 45.4017 31.919 45.4519 31.9293 45.5057V48.3771C31.94 48.5803 31.9974 48.7781 32.0968 48.9553C32.1963 49.1324 32.3351 49.2839 32.5024 49.398C32.7369 49.5568 33.0132 49.6412 33.2959 49.6404H33.8656L34.9168 49.4014V62L40.1051 55.1715L45.09 62V49.4014L46.1412 49.6745H46.5414C46.824 49.6754 47.1004 49.591 47.3349 49.4321C47.5007 49.3176 47.6383 49.1664 47.7371 48.99C47.8359 48.8136 47.8932 48.6168 47.9046 48.4147V45.5433C47.9143 45.4893 47.9379 45.4389 47.973 45.3969C48.0081 45.355 48.0535 45.3231 48.1046 45.3043L50.8887 44.28C51.1012 44.2378 51.3007 44.1455 51.4711 44.0108C51.6414 43.8762 51.7776 43.7028 51.8687 43.505V43.4947Z" fill="black"/>
<path d="M5 11V52H31.0847L30.7135 51.8292C30.2328 51.4959 29.8339 51.0557 29.5472 50.5422C29.2606 50.0288 29.0938 49.4557 29.0597 48.8669V46.6568H10.2903V16.3432H53.7097V46.6568H51.714V48.8567C51.6812 49.4447 51.5165 50.0174 51.2323 50.5313C50.948 51.0452 50.5518 51.4867 50.0738 51.8223L49.7903 52H59V11H5Z" fill="black"/>
<path d="M26.628 33.678H15V38H26.424C26.1899 37.5665 26.0542 37.0868 26.0266 36.5949C25.999 36.1031 26.0801 35.6112 26.2642 35.1542C26.3184 34.9332 26.4468 33.8156 26.628 33.678ZM15 21H49V25.322H15V21Z" fill="black"/>
</svg>
