<svg width="172" height="82" viewBox="0 0 172 82" fill="none" xmlns="http://www.w3.org/2000/svg">
<path d="M1.47168 20V19.1621H1.80469C2.07682 19.1621 2.34717 19.0798 2.61572 18.915C2.88428 18.7503 3.13135 18.4245 3.35693 17.9375C3.58252 17.4505 3.73291 16.7738 3.80811 15.9072L4.35596 9.56934C4.4598 8.28385 4.5332 6.73698 4.57617 4.92871C5.09896 4.86068 5.58236 4.73714 6.02637 4.55811L10.4951 14.5645C10.8854 15.4346 11.1629 16.1471 11.3276 16.7021H11.5049C11.6374 16.251 11.7913 15.8088 11.9668 15.3755C12.1423 14.9386 12.3267 14.5233 12.52 14.1294C12.717 13.7355 13.007 13.1608 13.3901 12.4053C13.7733 11.6462 14.0758 11.0321 14.2979 10.563C15.569 7.85596 16.3836 5.97786 16.7417 4.92871C17.354 4.87142 18.0361 4.74788 18.7881 4.55811C18.7988 4.70492 18.8096 4.91081 18.8203 5.17578C18.8346 5.43717 18.8454 5.64128 18.8525 5.78809C18.8525 6.18555 18.8669 6.56689 18.8955 6.93213C18.9134 7.24723 18.9277 7.48356 18.9385 7.64111C18.9528 7.79508 18.9689 8.02067 18.9868 8.31787L19.3574 14.1025C19.3825 14.6432 19.4111 15.2072 19.4434 15.7944C19.4756 16.3781 19.54 16.9224 19.6367 17.4272C19.7334 17.9321 19.8945 18.3475 20.1201 18.6733C20.3457 18.9992 20.6572 19.1621 21.0547 19.1621H21.3823V20H20.6787C20.0091 20 19.592 19.957 19.4272 19.8711C19.2625 19.7816 18.8812 19.7368 18.2832 19.7368C17.9896 19.7368 17.5492 19.7798 16.9619 19.8657C16.5072 19.9552 16.1545 20 15.9038 20H15.356V19.1621H15.6621C16.0166 19.1621 16.2959 19.0475 16.5 18.8184C16.7041 18.5892 16.8062 18.1022 16.8062 17.3574C16.8062 17.318 16.8026 17.2482 16.7954 17.1479C16.7882 17.0477 16.7847 16.9725 16.7847 16.9224L16.3926 10.1226L16.4355 8.97852H16.3013C16.201 9.18978 16.0256 9.59977 15.7749 10.2085C15.0229 11.9523 14.0544 14.0363 12.8691 16.4604C12.6113 16.9868 12.4251 17.3664 12.3105 17.5991C12.1995 17.8319 12.0259 18.1917 11.7896 18.6787C11.6284 19.0475 11.4744 19.3787 11.3276 19.6724H10.5166C10.359 19.3573 10.1979 19.0189 10.0332 18.6572C9.77181 18.0771 9.3099 17.139 8.64746 15.8428C7.83822 14.2923 7.20622 13.0122 6.75146 12.0024C6.30029 10.9891 6.00488 10.2747 5.86523 9.85938C5.72917 9.44401 5.64323 9.15039 5.60742 8.97852L5.36572 8.95703V9.32764C5.36572 9.93994 5.32992 10.8942 5.2583 12.1904C5.20459 13.2288 5.16699 13.9915 5.14551 14.4785C5.13835 14.7077 5.12939 15.055 5.11865 15.5205C5.10791 15.986 5.09538 16.3351 5.08105 16.5679C5.05241 16.8901 5.03809 17.1533 5.03809 17.3574C5.03809 18.5605 5.39079 19.1621 6.09619 19.1621H6.60107V20H6.09619C5.90283 20 5.62354 19.9552 5.2583 19.8657C4.90381 19.7798 4.55111 19.7368 4.2002 19.7368C3.99967 19.7368 3.69173 19.7798 3.27637 19.8657C2.80013 19.9552 2.41878 20 2.13232 20H1.47168ZM22.3491 5.06299H23.0527C23.1602 5.06299 23.5272 5.0988 24.1538 5.17041C24.7088 5.23128 25.1045 5.26172 25.3408 5.26172C25.57 5.26172 25.9657 5.23128 26.5278 5.17041C27.1545 5.0988 27.5215 5.06299 27.6289 5.06299H28.354V5.89551H27.8921C27.4123 5.89551 27.1007 6.10856 26.9575 6.53467C26.8179 6.96077 26.748 7.5695 26.748 8.36084V9.15576V14.2368C26.748 14.8849 26.6603 15.8016 26.4849 16.9868H26.6836C27.1455 16.2707 28.1571 15.0747 29.7183 13.3989C30.4022 12.6541 31.1613 11.7948 31.9956 10.8208C32.8299 9.84326 33.6481 8.8514 34.4502 7.84521C35.2523 6.83545 35.9845 5.87044 36.647 4.9502C36.9943 4.88574 37.3685 4.84277 37.7695 4.82129C37.68 5.91699 37.6353 6.90706 37.6353 7.7915V15.8643C37.6353 16.584 37.6567 17.1694 37.6997 17.6206C37.7427 18.0718 37.8483 18.4424 38.0166 18.7324C38.1849 19.0189 38.4391 19.1621 38.7793 19.1621H39.2412V20H38.4946C38.2834 20 37.9826 19.9481 37.5923 19.8442C37.1519 19.7726 36.6971 19.7368 36.228 19.7368C35.7912 19.7368 35.3525 19.7726 34.9121 19.8442C34.5111 19.9481 34.2103 20 34.0098 20H33.1934V19.1621H33.6553C34.0133 19.1621 34.2765 18.9974 34.4448 18.668C34.6167 18.3385 34.7223 17.95 34.7617 17.5024C34.8011 17.0513 34.8208 16.4909 34.8208 15.8213V10.7402C34.8208 10.2246 34.9014 9.65169 35.0625 9.02148H34.9336C34.7008 9.49772 33.9972 10.4019 32.8228 11.7339C31.6483 13.0623 30.4165 14.4087 29.1274 15.7729C27.842 17.1372 26.9611 18.0628 26.4849 18.5498C25.8726 19.1908 25.4536 19.6742 25.228 20L23.7349 20.376C23.8674 18.2025 23.9336 17.0513 23.9336 16.9224V9.10742V8.16211C23.9336 7.44238 23.8602 6.88558 23.7134 6.4917C23.5666 6.09424 23.2658 5.89551 22.811 5.89551H22.3491V5.06299ZM54.5972 16.6108H55.4136C55.2166 17.6636 54.8783 18.4603 54.3984 19.001C53.9186 19.5381 53.2938 19.8926 52.5239 20.0645C51.7576 20.2399 50.7336 20.3276 49.4517 20.3276C48.1769 20.3276 47.0007 20.1307 45.9229 19.7368C44.8451 19.3429 43.9123 18.7861 43.1245 18.0664C42.3403 17.3431 41.7388 16.4998 41.3198 15.5366C40.9009 14.5734 40.6914 13.5314 40.6914 12.4106C40.6914 11.118 40.9635 9.8916 41.5078 8.73145C42.0557 7.56771 42.9383 6.61344 44.1558 5.86865C45.3768 5.12386 46.9362 4.75146 48.834 4.75146C49.3962 4.75146 49.8491 4.77116 50.1929 4.81055C50.5402 4.84635 50.8929 4.90186 51.251 4.97705C51.6126 5.04867 51.9313 5.10238 52.207 5.13818C52.4827 5.17399 52.8623 5.19189 53.3457 5.19189C54.0153 5.19189 54.5578 5.16325 54.9731 5.10596C54.88 5.70036 54.821 6.34489 54.7959 7.03955C54.7816 7.68766 54.7744 8.34115 54.7744 9H53.915C53.915 8.28027 53.7145 7.66976 53.3135 7.16846C52.916 6.66715 52.3861 6.29476 51.7236 6.05127C51.0612 5.8042 50.3468 5.68066 49.5806 5.68066C48.5063 5.68066 47.5342 5.93848 46.6641 6.4541C45.7939 6.96615 45.1082 7.71094 44.6069 8.68848C44.1092 9.66602 43.8604 10.819 43.8604 12.1475C43.8604 13.6764 44.1558 14.9888 44.7466 16.0845C45.3374 17.1802 46.0965 18.0073 47.0239 18.5659C47.9549 19.1245 48.902 19.4038 49.8652 19.4038C50.7855 19.4038 51.7111 19.1353 52.6421 18.5981C53.5767 18.061 54.2284 17.3986 54.5972 16.6108ZM62.0684 5.92236H60.3066C59.5404 5.92236 58.8976 6.11214 58.3784 6.4917C57.8628 6.86768 57.4564 7.59456 57.1592 8.67236H56.3267C56.366 8.37158 56.4001 8.1263 56.4287 7.93652C56.4609 7.74674 56.4932 7.53727 56.5254 7.30811C56.6901 6.28402 56.7993 5.4318 56.853 4.75146C56.9748 4.76221 57.1126 4.77474 57.2666 4.78906C57.4206 4.7998 57.5745 4.81234 57.7285 4.82666C57.8825 4.8374 58.0973 4.8571 58.373 4.88574C59.2861 4.97526 60.3049 5.02718 61.4292 5.0415C61.9233 5.0415 62.3638 5.04508 62.7505 5.05225C63.1372 5.05941 63.3789 5.06299 63.4756 5.06299C64.9508 5.06299 66.7627 4.98958 68.9111 4.84277C69.262 4.83203 69.8045 4.8016 70.5386 4.75146C70.467 5.62516 70.3345 6.53467 70.1411 7.47998C70.1304 7.53011 70.057 7.92757 69.9209 8.67236H69.0615C69.1367 8.24984 69.1743 7.91862 69.1743 7.67871C69.1743 7.15234 69.0024 6.72803 68.6587 6.40576C68.3185 6.0835 67.64 5.92236 66.623 5.92236H64.8828V15.3379C64.8828 16.5518 64.9508 17.4935 65.0869 18.1631C65.2266 18.8291 65.5685 19.1621 66.1128 19.1621H66.5747V20H65.7637C65.5381 20 65.2301 19.9481 64.8398 19.8442C64.3994 19.7726 63.9447 19.7368 63.4756 19.7368C63.0065 19.7368 62.5518 19.7726 62.1113 19.8442C61.721 19.9481 61.4131 20 61.1875 20H60.3066V19.1621H60.7686C61.3343 19.1621 61.6924 18.7879 61.8428 18.0396C61.9932 17.2876 62.0684 16.3942 62.0684 15.3594V5.92236ZM71.7202 5.06299H72.4023C72.7067 5.06299 73.1167 5.09342 73.6323 5.1543C74.1479 5.21159 74.839 5.24023 75.7056 5.24023C77.8289 5.24023 79.5155 5.20264 80.7651 5.12744C80.9299 5.12028 81.048 5.11491 81.1196 5.11133C81.1912 5.10417 81.4329 5.08805 81.8447 5.06299C81.723 5.77913 81.5601 6.48275 81.356 7.17383C81.3022 7.39225 81.2396 7.64648 81.168 7.93652C81.0964 8.22656 81.0426 8.44857 81.0068 8.60254H80.1689C80.2441 7.99023 80.2817 7.62321 80.2817 7.50146C80.2817 6.65283 79.7679 6.22852 78.7402 6.22852H76.2319V11.75H77.9937C78.52 11.75 78.9318 11.7142 79.229 11.6426C79.5262 11.571 79.7536 11.4134 79.9111 11.1699C80.0687 10.9264 80.1475 10.5487 80.1475 10.0366H80.9854C80.7347 11.4761 80.6094 12.5163 80.6094 13.1572V14.6558H79.8198C79.8485 14.5233 79.8628 14.3389 79.8628 14.1025C79.8628 13.1501 79.3418 12.6738 78.2998 12.6738H76.2319V16.2617C76.2319 17.0459 76.2821 17.6349 76.3823 18.0288C76.4826 18.4227 76.6312 18.6948 76.8281 18.8452C77.0286 18.9956 77.3062 19.0941 77.6606 19.1406C77.9757 19.1872 78.255 19.2104 78.4985 19.2104C78.7671 19.2104 79.0464 19.1872 79.3364 19.1406C79.9022 19.0618 80.3945 18.8488 80.8135 18.5015C81.2324 18.1506 81.5762 17.5275 81.8447 16.6323H82.6343C82.577 17.8426 82.3926 18.6984 82.0811 19.1997C81.7695 19.701 81.3667 20.0125 80.8726 20.1343C80.7401 20.1629 80.5431 20.1772 80.2817 20.1772C80.0741 20.1772 79.7804 20.1629 79.4009 20.1343C79.161 20.1128 78.9318 20.0949 78.7134 20.0806C78.495 20.0662 78.042 20.0322 77.3545 19.9785C76.957 19.9535 76.624 19.9338 76.3555 19.9194C76.0869 19.9051 75.8201 19.8944 75.5552 19.8872C75.2902 19.88 75.0181 19.8729 74.7388 19.8657H73.4819C73.4139 19.8729 73.2957 19.8908 73.1274 19.9194C72.9591 19.9445 72.8356 19.9606 72.7568 19.9678C72.6816 19.9749 72.6082 19.9785 72.5366 19.9785H71.7202V19.1406H72.1392C72.6584 19.1406 73.0003 18.8613 73.165 18.3027C73.3333 17.7406 73.4175 17.0298 73.4175 16.1704V9.26318C73.4175 7.01807 72.9842 5.89551 72.1177 5.89551H71.7202V5.06299ZM84.2295 5.06299H84.9331C85.0405 5.06299 85.4076 5.0988 86.0342 5.17041C86.5892 5.23128 86.9849 5.26172 87.2212 5.26172C87.4504 5.26172 87.846 5.23128 88.4082 5.17041C89.0348 5.0988 89.4019 5.06299 89.5093 5.06299H90.2344V5.89551H89.7725C89.2926 5.89551 88.9811 6.10677 88.8379 6.5293C88.6982 6.95182 88.6284 7.54801 88.6284 8.31787V9.08594V18.7915C90.7733 18.9526 92.1232 19.0332 92.6782 19.0332C93.8599 19.0332 94.9072 19.0099 95.8203 18.9634V9.08594V8.14062C95.8203 7.43164 95.7487 6.88021 95.6055 6.48633C95.4622 6.09245 95.1597 5.89551 94.6978 5.89551H94.2358V5.06299H94.9663C95.0773 5.06299 95.4425 5.0988 96.062 5.17041C96.6242 5.23128 97.0216 5.26172 97.2544 5.26172C97.4836 5.26172 97.8792 5.23128 98.4414 5.17041C99.0609 5.0988 99.4279 5.06299 99.5425 5.06299H100.219V5.89551H99.7573C99.2918 5.89551 98.9893 6.09603 98.8496 6.49707C98.71 6.89811 98.6401 7.4764 98.6401 8.23193V9.08594V16.5034C98.6401 17.0978 98.658 17.5597 98.6938 17.8892C98.7297 18.2186 98.8281 18.4889 98.9893 18.7002C99.154 18.9079 99.41 19.0117 99.7573 19.0117C100.284 19.0117 100.812 18.8936 101.342 18.6572V20.0215C100.923 20.0215 100.618 20.1038 100.429 20.2686C100.239 20.4368 100.038 20.6929 99.8271 21.0366C99.2471 21.9819 98.7404 22.7267 98.3071 23.271C97.8774 23.8188 97.3547 24.2682 96.7388 24.6191C96.1229 24.9701 95.3924 25.1455 94.5474 25.1455C93.8133 25.1455 93.158 25.0864 92.5815 24.9683C92.0086 24.8501 91.4465 24.5798 90.895 24.1572C91.4214 23.9281 91.8833 23.6577 92.2808 23.3462C92.4705 23.7329 92.7158 24.0194 93.0166 24.2056C93.321 24.3953 93.6253 24.4902 93.9297 24.4902C94.4131 24.4902 94.8267 24.3363 95.1704 24.0283C95.5177 23.7204 95.8525 23.3158 96.1748 22.8145C96.4792 22.3669 96.7549 22.007 97.002 21.7349C97.249 21.4663 97.5928 21.187 98.0332 20.897C98.4772 20.6069 99.0519 20.3151 99.7573 20.0215V19.8228C99.0161 19.9338 98.5076 20.0036 98.2319 20.0322C97.9598 20.0609 97.6107 20.0806 97.1846 20.0913C96.762 20.1021 96.1462 20.1164 95.3369 20.1343H93.6665C92.9539 20.1164 92.0802 20.0501 91.0454 19.9355C89.8351 19.8031 88.6105 19.7368 87.3716 19.7368C86.6626 19.7368 86.1434 19.7798 85.814 19.8657C85.3521 19.9696 85.028 20.0215 84.8418 20.0215H84.1597V19.1836H84.6001C85.1193 19.1836 85.4505 18.8846 85.5938 18.2866C85.7406 17.6851 85.814 16.84 85.814 15.7515V9.08594V8.14062C85.814 7.43164 85.7406 6.88021 85.5938 6.48633C85.4469 6.09245 85.1462 5.89551 84.6914 5.89551H84.2295V5.06299ZM102.685 5.06299H103.41C103.539 5.06299 103.898 5.0988 104.489 5.17041C105.044 5.23128 105.447 5.26172 105.698 5.26172C105.927 5.26172 106.323 5.23128 106.885 5.17041C107.476 5.0988 107.835 5.06299 107.964 5.06299H108.689V5.89551H108.228C107.762 5.89551 107.454 6.09424 107.304 6.4917C107.157 6.88916 107.083 7.46208 107.083 8.21045V9.22021V11.6426C107.732 11.5531 108.34 11.5083 108.91 11.5083C110.152 11.5083 111.176 11.7088 111.982 12.1099C112.788 12.5073 113.368 13.0194 113.722 13.646C114.077 14.269 114.254 14.9351 114.254 15.644C114.254 16.1024 114.207 16.5625 114.114 17.0244C114.021 17.4863 113.808 17.959 113.475 18.4424C113.142 18.9222 112.618 19.325 111.901 19.6509C111.189 19.9731 110.251 20.1343 109.087 20.1343C108.088 20.1343 107.451 20.1128 107.175 20.0698C106.903 20.0269 106.634 19.9606 106.369 19.8711C106.108 19.7816 105.751 19.7368 105.3 19.7368C105.064 19.7368 104.72 19.7887 104.269 19.8926C103.793 19.9642 103.381 20 103.034 20H102.572V19.1621H103.012C103.542 19.1621 103.884 18.8577 104.038 18.249C104.192 17.6403 104.269 16.8454 104.269 15.8643V9.22021V8.2749C104.269 7.49788 104.197 6.90706 104.054 6.50244C103.915 6.09782 103.612 5.89551 103.146 5.89551H102.685V5.06299ZM107.083 12.3892V17.1426C107.083 17.9411 107.194 18.4997 107.417 18.8184C107.639 19.137 108.07 19.2964 108.711 19.2964C109.133 19.2964 109.545 19.1782 109.946 18.9419C110.351 18.702 110.682 18.3332 110.94 17.8354C111.201 17.3341 111.332 16.7129 111.332 15.9717C111.332 15.0192 111.135 14.2762 110.741 13.7427C110.351 13.2056 109.878 12.8421 109.323 12.6523C108.768 12.4626 108.19 12.3677 107.588 12.3677C107.356 12.3677 107.187 12.3748 107.083 12.3892ZM115.554 5.06299H116.279C116.411 5.06299 116.769 5.0988 117.353 5.17041C117.915 5.23128 118.32 5.26172 118.567 5.26172C118.796 5.26172 119.192 5.23128 119.754 5.17041C120.338 5.0988 120.697 5.06299 120.833 5.06299H121.58V5.89551H121.118C120.764 5.89551 120.502 6.0262 120.334 6.2876C120.166 6.54899 120.064 6.87484 120.028 7.26514C119.992 7.65186 119.974 8.18538 119.974 8.86572V16.4336C119.974 18.2526 120.363 19.1621 121.14 19.1621H121.58V20H120.785C120.577 20 120.278 19.9481 119.888 19.8442C119.441 19.7726 118.993 19.7368 118.545 19.7368C118.091 19.7368 117.643 19.7726 117.203 19.8442C116.812 19.9481 116.512 20 116.3 20H115.505V19.1621H115.946C116.755 19.1621 117.16 18.2526 117.16 16.4336V8.86572C117.16 8.18538 117.142 7.65186 117.106 7.26514C117.07 6.87484 116.968 6.54899 116.8 6.2876C116.632 6.0262 116.37 5.89551 116.016 5.89551H115.554V5.06299ZM124.486 5.89551V5.06299H124.948C125.059 5.06299 125.216 5.07194 125.42 5.08984C125.625 5.10775 125.775 5.12028 125.872 5.12744C125.958 5.13818 126.154 5.16325 126.462 5.20264C126.77 5.24202 127.019 5.26172 127.209 5.26172C127.467 5.26172 127.637 5.25635 127.719 5.24561C127.805 5.23128 127.922 5.20622 128.068 5.17041C128.219 5.13102 128.371 5.10417 128.525 5.08984C128.679 5.07194 128.931 5.06299 129.282 5.06299H129.766V5.89551H129.454C129.175 5.89551 128.901 5.94027 128.632 6.02979C128.367 6.11572 128.006 6.31803 127.547 6.63672C127.089 6.95182 126.493 7.43701 125.759 8.09229C125.025 8.74756 124.056 9.66602 122.853 10.8477C122.456 11.2451 122.178 11.5101 122.021 11.6426C122.651 11.861 123.22 12.1994 123.729 12.6577C124.237 13.116 124.729 13.68 125.206 14.3496C125.682 15.0192 126.373 16.0522 127.279 17.4487C127.676 18.061 127.981 18.4961 128.192 18.7539C128.403 19.0117 128.656 19.1406 128.949 19.1406C129.257 19.1406 129.676 19.0314 130.206 18.813V19.6724C129.973 19.7297 129.746 19.8031 129.524 19.8926C129.055 20.0537 128.577 20.1343 128.09 20.1343C127.506 20.1343 127.003 20.0107 126.581 19.7637C126.158 19.5166 125.789 19.2015 125.474 18.8184C125.159 18.4352 124.697 17.8247 124.088 16.9868C122.764 15.1535 121.532 13.5833 120.393 12.2764C120.798 11.861 121.226 11.4134 121.677 10.9336C122.128 10.4502 122.457 10.1011 122.665 9.88623C122.873 9.67139 123.127 9.4279 123.428 9.15576C124.047 8.59717 124.518 8.14421 124.84 7.79688C125.163 7.44596 125.374 7.05566 125.474 6.62598C125.474 6.139 125.306 5.89551 124.969 5.89551H124.486ZM131.361 5.06299H132.064C132.172 5.06299 132.539 5.0988 133.166 5.17041C133.721 5.23128 134.116 5.26172 134.353 5.26172C134.582 5.26172 134.977 5.23128 135.54 5.17041C136.166 5.0988 136.533 5.06299 136.641 5.06299H137.366V5.89551H136.904C136.424 5.89551 136.112 6.10856 135.969 6.53467C135.83 6.96077 135.76 7.5695 135.76 8.36084V9.15576V14.2368C135.76 14.8849 135.672 15.8016 135.497 16.9868H135.695C136.157 16.2707 137.169 15.0747 138.73 13.3989C139.414 12.6541 140.173 11.7948 141.007 10.8208C141.842 9.84326 142.66 8.8514 143.462 7.84521C144.264 6.83545 144.996 5.87044 145.659 4.9502C146.006 4.88574 146.38 4.84277 146.781 4.82129C146.692 5.91699 146.647 6.90706 146.647 7.7915V15.8643C146.647 16.584 146.668 17.1694 146.711 17.6206C146.754 18.0718 146.86 18.4424 147.028 18.7324C147.197 19.0189 147.451 19.1621 147.791 19.1621H148.253V20H147.506C147.295 20 146.994 19.9481 146.604 19.8442C146.164 19.7726 145.709 19.7368 145.24 19.7368C144.803 19.7368 144.364 19.7726 143.924 19.8442C143.523 19.9481 143.222 20 143.021 20H142.205V19.1621H142.667C143.025 19.1621 143.288 18.9974 143.457 18.668C143.628 18.3385 143.734 17.95 143.773 17.5024C143.813 17.0513 143.833 16.4909 143.833 15.8213V10.7402C143.833 10.2246 143.913 9.65169 144.074 9.02148H143.945C143.713 9.49772 143.009 10.4019 141.834 11.7339C140.66 13.0623 139.428 14.4087 138.139 15.7729C136.854 17.1372 135.973 18.0628 135.497 18.5498C134.884 19.1908 134.465 19.6742 134.24 20L132.747 20.376C132.879 18.2025 132.945 17.0513 132.945 16.9224V9.10742V8.16211C132.945 7.44238 132.872 6.88558 132.725 6.4917C132.578 6.09424 132.278 5.89551 131.823 5.89551H131.361V5.06299ZM149.773 5.06299H150.477C150.584 5.06299 150.951 5.0988 151.578 5.17041C152.133 5.23128 152.528 5.26172 152.765 5.26172C152.994 5.26172 153.389 5.23128 153.952 5.17041C154.578 5.0988 154.945 5.06299 155.053 5.06299H155.778V5.89551H155.316C154.836 5.89551 154.525 6.10856 154.381 6.53467C154.242 6.96077 154.172 7.5695 154.172 8.36084V9.15576V14.2368C154.172 14.8849 154.084 15.8016 153.909 16.9868H154.107C154.569 16.2707 155.581 15.0747 157.142 13.3989C157.826 12.6541 158.585 11.7948 159.419 10.8208C160.254 9.84326 161.072 8.8514 161.874 7.84521C162.676 6.83545 163.408 5.87044 164.071 4.9502C164.418 4.88574 164.792 4.84277 165.193 4.82129C165.104 5.91699 165.059 6.90706 165.059 7.7915V15.8643C165.059 16.584 165.081 17.1694 165.124 17.6206C165.167 18.0718 165.272 18.4424 165.44 18.7324C165.609 19.0189 165.863 19.1621 166.203 19.1621H166.665V20H165.918C165.707 20 165.406 19.9481 165.016 19.8442C164.576 19.7726 164.121 19.7368 163.652 19.7368C163.215 19.7368 162.776 19.7726 162.336 19.8442C161.935 19.9481 161.634 20 161.434 20H160.617V19.1621H161.079C161.437 19.1621 161.7 18.9974 161.869 18.668C162.041 18.3385 162.146 17.95 162.186 17.5024C162.225 17.0513 162.245 16.4909 162.245 15.8213V10.7402C162.245 10.2246 162.325 9.65169 162.486 9.02148H162.357C162.125 9.49772 161.421 10.4019 160.247 11.7339C159.072 13.0623 157.84 14.4087 156.551 15.7729C155.266 17.1372 154.385 18.0628 153.909 18.5498C153.296 19.1908 152.877 19.6742 152.652 20L151.159 20.376C151.291 18.2025 151.357 17.0513 151.357 16.9224V9.10742V8.16211C151.357 7.44238 151.284 6.88558 151.137 6.4917C150.99 6.09424 150.69 5.89551 150.235 5.89551H149.773V5.06299ZM157.341 1.01318V2.2002C157.341 2.52604 157.479 2.78385 157.754 2.97363C158.03 3.16341 158.333 3.2583 158.662 3.2583C159.081 3.2583 159.534 3.10254 160.021 2.79102C160.508 2.47949 160.956 1.88688 161.364 1.01318C161.625 1.24951 161.912 1.47689 162.223 1.69531C161.593 2.51888 160.959 3.12939 160.322 3.52686C159.684 3.92432 159.119 4.1696 158.625 4.2627C158.13 4.35579 157.615 4.40234 157.078 4.40234C156.086 4.40234 155.404 3.80078 155.031 2.59766C155.812 2.20378 156.501 1.67562 157.099 1.01318H157.341ZM2.20215 33.063H2.92725C3.05973 33.063 3.41781 33.0988 4.00146 33.1704C4.56364 33.2313 4.96826 33.2617 5.21533 33.2617C5.4445 33.2617 5.84017 33.2313 6.40234 33.1704C6.986 33.0988 7.34587 33.063 7.48193 33.063H8.22852V33.8955H7.7666C7.41211 33.8955 7.15072 34.0262 6.98242 34.2876C6.81413 34.549 6.71208 34.8748 6.67627 35.2651C6.64046 35.6519 6.62256 36.1854 6.62256 36.8657V44.4336C6.62256 46.2526 7.01107 47.1621 7.78809 47.1621H8.22852V48H7.43359C7.22591 48 6.92692 47.9481 6.53662 47.8442C6.08903 47.7726 5.64144 47.7368 5.19385 47.7368C4.7391 47.7368 4.2915 47.7726 3.85107 47.8442C3.46077 47.9481 3.15999 48 2.94873 48H2.15381V47.1621H2.59424C3.40348 47.1621 3.80811 46.2526 3.80811 44.4336V36.8657C3.80811 36.1854 3.7902 35.6519 3.75439 35.2651C3.71859 34.8748 3.61654 34.549 3.44824 34.2876C3.27995 34.0262 3.01855 33.8955 2.66406 33.8955H2.20215V33.063ZM11.1343 33.8955V33.063H11.5962C11.7072 33.063 11.8647 33.0719 12.0688 33.0898C12.2729 33.1077 12.4233 33.1203 12.52 33.1274C12.606 33.1382 12.8029 33.1632 13.1108 33.2026C13.4188 33.242 13.6676 33.2617 13.8574 33.2617C14.1152 33.2617 14.2853 33.2563 14.3677 33.2456C14.4536 33.2313 14.57 33.2062 14.7168 33.1704C14.8672 33.131 15.0194 33.1042 15.1733 33.0898C15.3273 33.0719 15.5798 33.063 15.9307 33.063H16.4141V33.8955H16.1025C15.8232 33.8955 15.5493 33.9403 15.2808 34.0298C15.0158 34.1157 14.6541 34.318 14.1958 34.6367C13.7375 34.9518 13.1413 35.437 12.4072 36.0923C11.6732 36.7476 10.7046 37.666 9.50146 38.8477C9.104 39.2451 8.8265 39.5101 8.66895 39.6426C9.29915 39.861 9.86849 40.1994 10.377 40.6577C10.8854 41.116 11.3778 41.68 11.854 42.3496C12.3302 43.0192 13.0213 44.0522 13.9272 45.4487C14.3247 46.061 14.6291 46.4961 14.8403 46.7539C15.0516 47.0117 15.304 47.1406 15.5977 47.1406C15.9056 47.1406 16.3245 47.0314 16.8545 46.813V47.6724C16.6217 47.7297 16.3944 47.8031 16.1724 47.8926C15.7033 48.0537 15.2253 48.1343 14.7383 48.1343C14.1546 48.1343 13.6515 48.0107 13.229 47.7637C12.8065 47.5166 12.4377 47.2015 12.1226 46.8184C11.8075 46.4352 11.3455 45.8247 10.7368 44.9868C9.41195 43.1535 8.18018 41.5833 7.0415 40.2764C7.44613 39.861 7.87402 39.4134 8.3252 38.9336C8.77637 38.4502 9.10579 38.1011 9.31348 37.8862C9.52116 37.6714 9.77539 37.4279 10.0762 37.1558C10.6956 36.5972 11.1665 36.1442 11.4888 35.7969C11.811 35.446 12.0223 35.0557 12.1226 34.626C12.1226 34.139 11.9543 33.8955 11.6177 33.8955H11.1343ZM18.0093 40.2119C18.0093 39.0768 18.217 38.0492 18.6323 37.1289C19.0513 36.2051 19.626 35.4191 20.3564 34.771C21.0905 34.1229 21.9302 33.6287 22.8755 33.2886C23.8244 32.9484 24.8198 32.7783 25.8618 32.7783C26.8644 32.7783 27.8097 32.9717 28.6978 33.3584C29.5894 33.7415 30.3682 34.2876 31.0342 34.9966C31.7038 35.7056 32.2266 36.556 32.6025 37.5479C32.9785 38.5361 33.1665 39.6068 33.1665 40.7598C33.1665 42.346 32.8066 43.7139 32.0869 44.8633C31.3672 46.0091 30.4398 46.8739 29.3047 47.4575C28.1732 48.0376 27.0112 48.3276 25.8188 48.3276C24.8198 48.3276 23.853 48.1432 22.9185 47.7744C21.9875 47.402 21.1496 46.8613 20.4048 46.1523C19.66 45.4398 19.0745 44.5786 18.6484 43.5688C18.2223 42.5555 18.0093 41.4365 18.0093 40.2119ZM21.1084 40.3677C21.1084 41.7642 21.3465 42.9977 21.8228 44.0684C22.3026 45.139 22.9238 45.9626 23.6865 46.5391C24.4492 47.1156 25.2334 47.4038 26.0391 47.4038C26.7051 47.4038 27.3442 47.1818 27.9565 46.7378C28.5724 46.2902 29.0773 45.5615 29.4712 44.5518C29.8651 43.542 30.062 42.2565 30.062 40.6953C30.062 39.3991 29.8472 38.2157 29.4175 37.145C28.9914 36.0744 28.4167 35.2329 27.6934 34.6206C26.9701 34.0083 26.1912 33.7021 25.3569 33.7021C24.6802 33.7021 24.0177 33.9206 23.3696 34.3574C22.7215 34.7943 22.1826 35.514 21.7529 36.5166C21.3232 37.5192 21.1084 38.8029 21.1084 40.3677ZM33.9561 48V47.1621H34.5522C35.0356 47.1621 35.4868 46.8936 35.9058 46.3564C36.3283 45.8158 36.6989 45.1641 37.0176 44.4014C37.3363 43.6387 37.6729 42.7041 38.0273 41.5977C38.3818 40.4912 38.5859 39.861 38.6396 39.707C39.234 38.0312 39.6763 36.7476 39.9663 35.856C40.2563 34.9608 40.5339 33.9707 40.7988 32.8857C41.4004 32.8141 41.9644 32.7192 42.4907 32.6011C42.9956 34.4451 43.6348 36.4325 44.4082 38.563C44.7949 39.6014 45.1029 40.459 45.332 41.1357C45.8691 42.6683 46.272 43.7819 46.5405 44.4766C46.8127 45.1712 47.1278 45.7925 47.4858 46.3403C47.8475 46.8882 48.2217 47.1621 48.6084 47.1621H49.0703V48H48.3452C48.202 48 47.9299 47.9552 47.5288 47.8657C47.1206 47.7798 46.6444 47.7368 46.1001 47.7368C45.5093 47.7368 45.0241 47.7816 44.6445 47.8711C44.265 47.957 44.0018 48 43.855 48H42.7324V47.1621H43.0225C43.7995 47.1621 44.188 46.8327 44.188 46.1738C44.188 45.9769 44.1576 45.7692 44.0967 45.5508C44.0394 45.3288 43.957 45.0781 43.8496 44.7988C43.7458 44.516 43.6885 44.3584 43.6777 44.3262L41.1479 37.043C41.1157 36.9463 41.0835 36.7941 41.0513 36.5864C41.019 36.3752 40.994 36.2266 40.9761 36.1406H40.7988C40.763 36.71 40.6162 37.3921 40.3584 38.187L38.1348 45.207C38.0023 45.6367 37.936 45.9733 37.936 46.2168C37.936 46.847 38.2225 47.1621 38.7954 47.1621H39.2788V48H38.9082C38.5931 48 38.2673 47.957 37.9307 47.8711C37.5941 47.7816 37.2306 47.7368 36.8403 47.7368C36.4321 47.7368 36.0078 47.7816 35.5674 47.8711C35.1305 47.957 34.8351 48 34.6812 48H33.9561ZM50.1069 33.063H50.7891C51.0934 33.063 51.5034 33.0934 52.019 33.1543C52.5347 33.2116 53.2257 33.2402 54.0923 33.2402C56.2157 33.2402 57.9022 33.2026 59.1519 33.1274C59.3166 33.1203 59.4347 33.1149 59.5063 33.1113C59.578 33.1042 59.8197 33.0881 60.2314 33.063C60.1097 33.7791 59.9468 34.4827 59.7427 35.1738C59.689 35.3923 59.6263 35.6465 59.5547 35.9365C59.4831 36.2266 59.4294 36.4486 59.3936 36.6025H58.5557C58.6309 35.9902 58.6685 35.6232 58.6685 35.5015C58.6685 34.6528 58.1546 34.2285 57.127 34.2285H54.6187V39.75H56.3804C56.9067 39.75 57.3185 39.7142 57.6157 39.6426C57.9129 39.571 58.1403 39.4134 58.2979 39.1699C58.4554 38.9264 58.5342 38.5487 58.5342 38.0366H59.3721C59.1214 39.4761 58.9961 40.5163 58.9961 41.1572V42.6558H58.2065C58.2352 42.5233 58.2495 42.3389 58.2495 42.1025C58.2495 41.1501 57.7285 40.6738 56.6865 40.6738H54.6187V44.2617C54.6187 45.0459 54.6688 45.6349 54.769 46.0288C54.8693 46.4227 55.0179 46.6948 55.2148 46.8452C55.4154 46.9956 55.6929 47.0941 56.0474 47.1406C56.3625 47.1872 56.6418 47.2104 56.8853 47.2104C57.1538 47.2104 57.4331 47.1872 57.7231 47.1406C58.2889 47.0618 58.7812 46.8488 59.2002 46.5015C59.6191 46.1506 59.9629 45.5275 60.2314 44.6323H61.021C60.9637 45.8426 60.7793 46.6984 60.4678 47.1997C60.1562 47.701 59.7534 48.0125 59.2593 48.1343C59.1268 48.1629 58.9299 48.1772 58.6685 48.1772C58.4608 48.1772 58.1672 48.1629 57.7876 48.1343C57.5477 48.1128 57.3185 48.0949 57.1001 48.0806C56.8817 48.0662 56.4287 48.0322 55.7412 47.9785C55.3438 47.9535 55.0107 47.9338 54.7422 47.9194C54.4736 47.9051 54.2069 47.8944 53.9419 47.8872C53.6769 47.88 53.4048 47.8729 53.1255 47.8657H51.8687C51.8006 47.8729 51.6825 47.8908 51.5142 47.9194C51.3459 47.9445 51.2223 47.9606 51.1436 47.9678C51.0684 47.9749 50.995 47.9785 50.9233 47.9785H50.1069V47.1406H50.5259C51.0451 47.1406 51.387 46.8613 51.5518 46.3027C51.7201 45.7406 51.8042 45.0298 51.8042 44.1704V37.2632C51.8042 35.0181 51.3709 33.8955 50.5044 33.8955H50.1069V33.063ZM62.6807 51.6738H61.5581C61.8804 49.9443 62.0415 48.2435 62.0415 46.5713C62.5034 46.6895 63.0173 46.7485 63.583 46.7485C63.7441 46.7485 63.9017 46.6429 64.0557 46.4316C64.2096 46.2204 64.3869 45.8641 64.5874 45.3628C64.7879 44.8615 64.992 44.2957 65.1997 43.6655C65.411 43.0353 65.8908 41.5833 66.6392 39.3096C67.5415 36.5882 68.195 34.4469 68.5996 32.8857C69.2656 32.8285 69.9621 32.7264 70.689 32.5796C71.1974 34.7101 71.8921 37.1504 72.7729 39.9004C73.6574 42.6504 74.3556 44.609 74.8677 45.7764C75.036 46.1344 75.2114 46.394 75.394 46.5552C75.5802 46.7127 75.8739 46.7915 76.2749 46.7915C76.6294 46.7915 77.0841 46.7181 77.6392 46.5713C77.3813 48.2757 77.0143 49.9766 76.5381 51.6738H75.4854C75.6895 51.0221 75.7915 50.186 75.7915 49.1655C75.7915 48.675 75.6053 48.3581 75.2329 48.2148C74.8605 48.0716 74.3789 48 73.7881 48C73.4372 48 72.8249 48.0143 71.9512 48.043C71.0775 48.0716 70.3488 48.0859 69.7651 48.0859C68.0786 48.0859 66.752 48.0645 65.7852 48.0215C65.7243 48.0215 65.6383 48.0179 65.5273 48.0107C65.4163 48.0036 65.3322 48 65.2749 48C64.77 48 64.3582 48.0841 64.0396 48.2524C63.7244 48.4207 63.4523 48.7681 63.2231 49.2944C62.9976 49.8244 62.8167 50.6175 62.6807 51.6738ZM69.0186 35.5498H68.8413C68.7017 36.2122 68.4277 37.2542 68.0195 38.6758C67.6113 40.0938 66.888 42.2493 65.8496 45.1426C65.7386 45.4505 65.6509 45.694 65.5864 45.873C65.522 46.0521 65.4038 46.3797 65.2319 46.856C66.5282 46.9276 67.7313 46.9634 68.8413 46.9634C69.7401 46.9634 70.9056 46.9276 72.3379 46.856C72.2555 46.6232 72.1965 46.4585 72.1606 46.3618C72.1248 46.2616 72.0675 46.104 71.9888 45.8892C71.91 45.6707 71.8366 45.472 71.7686 45.293C71.3997 44.2617 70.9665 42.9637 70.4688 41.3989C69.5628 38.5522 69.0794 36.6025 69.0186 35.5498ZM83.5259 33.063V33.8955H83.0425C82.8706 33.8955 82.7274 33.9546 82.6128 34.0728C82.5018 34.1873 82.4463 34.327 82.4463 34.4917C82.4463 34.6958 82.5269 34.8784 82.688 35.0396L84.251 36.7583C84.5446 37.077 84.8919 37.4422 85.293 37.854C85.694 38.2658 86.0575 38.6418 86.3833 38.9819C86.6948 39.3042 87.1138 39.7285 87.6401 40.2549C86.5802 41.4437 85.3413 43.021 83.9233 44.9868C83.3791 45.7495 82.9315 46.3385 82.5806 46.7539C82.2332 47.1657 81.8429 47.4987 81.4097 47.7529C80.98 48.0072 80.4823 48.1343 79.9165 48.1343C79.716 48.1343 79.5029 48.1128 79.2773 48.0698C79.0518 48.0304 78.7939 47.9678 78.5039 47.8818C78.2174 47.7959 77.9847 47.7261 77.8057 47.6724V46.7915C78.2712 47.0243 78.6901 47.1406 79.0625 47.1406C79.3883 47.1406 79.7052 46.9491 80.0132 46.5659C80.3211 46.1828 80.7526 45.5293 81.3076 44.6055C81.8662 43.6816 82.3854 42.8921 82.8652 42.2368C83.3486 41.578 83.9144 40.9836 84.5625 40.4536C85.0101 40.0776 85.4863 39.8073 85.9912 39.6426C85.7406 39.4349 85.4541 39.1699 85.1318 38.8477C83.9609 37.6803 83.0085 36.7637 82.2744 36.0977C81.5404 35.4316 80.9495 34.9411 80.502 34.626C80.0544 34.3073 79.6981 34.1068 79.4331 34.0244C79.1717 33.9385 78.8781 33.8955 78.5522 33.8955H78.2461V33.063H78.7295C79.0553 33.063 79.2952 33.0719 79.4492 33.0898C79.6068 33.1042 79.7679 33.131 79.9326 33.1704C80.0973 33.2062 80.2191 33.2313 80.2979 33.2456C80.3766 33.2563 80.5431 33.2617 80.7974 33.2617C80.9836 33.2617 81.2199 33.2438 81.5063 33.208C81.7964 33.1686 82.0005 33.1418 82.1187 33.1274C82.2118 33.1203 82.3693 33.1077 82.5913 33.0898C82.8133 33.0719 82.978 33.063 83.0854 33.063H83.5259ZM95.0308 33.063H95.4712C95.5858 33.063 95.7505 33.0719 95.9653 33.0898C96.1802 33.1077 96.3377 33.1203 96.438 33.1274C96.5418 33.1382 96.7406 33.1632 97.0342 33.2026C97.3278 33.242 97.5695 33.2617 97.7593 33.2617C98.0135 33.2617 98.1854 33.2563 98.2749 33.2456C98.3644 33.2313 98.488 33.2062 98.6455 33.1704C98.8066 33.131 98.9606 33.1042 99.1074 33.0898C99.2578 33.0719 99.4977 33.063 99.8271 33.063H100.311V33.8955H100.004C99.6821 33.8955 99.3903 33.9385 99.1289 34.0244C98.8675 34.1068 98.5094 34.3091 98.0547 34.6313C97.6035 34.95 97.0181 35.437 96.2983 36.0923C95.5786 36.744 94.6208 37.6624 93.4248 38.8477C93.1025 39.1699 92.8161 39.4349 92.5654 39.6426C93.0703 39.8073 93.5483 40.0776 93.9995 40.4536C94.6548 40.9871 95.2313 41.5977 95.729 42.2852C96.2303 42.9691 96.7549 43.7658 97.3027 44.6753C97.8506 45.5848 98.2713 46.224 98.5649 46.5928C98.8621 46.958 99.1737 47.1406 99.4995 47.1406C99.8683 47.1406 100.285 47.0243 100.751 46.7915V47.6724C100.479 47.7511 100.219 47.8281 99.9722 47.9033C99.7287 47.9749 99.4941 48.0304 99.2686 48.0698C99.0465 48.1128 98.8371 48.1343 98.6401 48.1343C98.0744 48.1343 97.5749 48.0072 97.1416 47.7529C96.7119 47.4987 96.3216 47.1657 95.9707 46.7539C95.6234 46.3385 95.1776 45.7495 94.6333 44.9868C93.2153 43.021 91.9764 41.4437 90.9165 40.2549C91.4178 39.7572 91.8368 39.3328 92.1733 38.9819C92.7498 38.3875 93.1938 37.9292 93.5054 37.6069C93.8205 37.2811 94.0872 36.9982 94.3057 36.7583L95.8687 35.0396C96.0298 34.882 96.1104 34.6994 96.1104 34.4917C96.1104 34.327 96.0531 34.1873 95.9385 34.0728C95.8275 33.9546 95.686 33.8955 95.5142 33.8955H95.0308V33.063ZM86.5176 33.063H87.2427C87.4718 33.063 87.7798 33.0988 88.1665 33.1704C88.5389 33.2313 88.9131 33.2617 89.2891 33.2617C89.6794 33.2617 90.0464 33.2313 90.3901 33.1704C90.7769 33.0988 91.0848 33.063 91.314 33.063H92.0391V33.8955H91.5771C91.2155 33.8955 90.9487 34.0316 90.7769 34.3037C90.6086 34.5723 90.5011 34.9232 90.4546 35.3564C90.4116 35.7897 90.3901 36.3662 90.3901 37.0859V43.2896V43.7783C90.3901 44.7451 90.4671 45.5508 90.6211 46.1953C90.7751 46.8398 91.1152 47.1621 91.6416 47.1621H92.082V48H91.2925C91.1278 48 90.8341 47.9481 90.4116 47.8442C90.118 47.7726 89.7438 47.7368 89.2891 47.7368C88.82 47.7368 88.4386 47.7726 88.145 47.8442C87.7225 47.9481 87.4289 48 87.2642 48H86.4746V47.1621H86.915C87.4414 47.1621 87.7816 46.8398 87.9355 46.1953C88.0895 45.5508 88.1665 44.7451 88.1665 43.7783V43.2896V37.0859C88.1665 35.9938 88.0967 35.1899 87.957 34.6743C87.821 34.1551 87.4951 33.8955 86.9795 33.8955H86.5176V33.063Z" fill="black"/>
<path d="M6.28418 77H5.41846C5.32471 77 5.12695 76.9707 4.8252 76.9121C4.55273 76.8623 4.23486 76.8374 3.87158 76.8374C3.44385 76.8374 3.11865 76.8623 2.896 76.9121C2.63232 76.9707 2.44043 77 2.32031 77H1.47656V76.4595H1.90723C2.32324 76.4595 2.5957 76.2632 2.72461 75.8706C2.85352 75.478 2.91797 74.8701 2.91797 74.0469C2.91797 73.833 2.91357 73.5884 2.90479 73.313C2.89893 73.0376 2.896 72.8149 2.896 72.645V72.1572C2.896 71.5801 2.87256 71.1509 2.82568 70.8696C2.77881 70.5854 2.66455 70.3701 2.48291 70.2236C2.30127 70.0742 2.01416 69.9995 1.62158 69.9995C1.36963 69.9995 1.16455 70.0112 1.00635 70.0347V69.3843H1.67432C2.18701 69.3843 2.77734 69.3315 3.44531 69.2261C4.11328 69.1177 4.6875 68.9785 5.16797 68.8086C5.0127 69.7871 4.91602 71.0469 4.87793 72.5879V74.1392C4.88672 74.7104 4.90137 75.1279 4.92188 75.3916C4.94238 75.6553 5.02295 75.8999 5.16357 76.1255C5.3042 76.3481 5.53271 76.4595 5.84912 76.4595H6.28418V77ZM2.32031 65.7148C2.32031 65.3867 2.43604 65.0952 2.66748 64.8403C2.89893 64.5825 3.20947 64.4536 3.59912 64.4536C3.97119 64.4536 4.27148 64.5649 4.5 64.7876C4.72852 65.0103 4.84277 65.3193 4.84277 65.7148C4.84277 66.1396 4.7124 66.459 4.45166 66.6729C4.19385 66.8867 3.90967 66.9937 3.59912 66.9937C3.22412 66.9937 2.9165 66.8618 2.67627 66.5981C2.43896 66.3345 2.32031 66.04 2.32031 65.7148ZM13.333 74.8203H13.5659C13.7124 74.4102 14.0244 73.7026 14.502 72.6978C15.2314 71.2271 15.7412 70.0024 16.0312 69.0239L17.6353 68.6108C17.7905 70.3101 17.9502 71.6914 18.1143 72.7549C18.2812 73.8184 18.4468 74.6182 18.6108 75.1543C18.7778 75.6904 18.9346 76.042 19.0811 76.209C19.2275 76.376 19.3813 76.4595 19.5425 76.4595H20.083V77H19.4502C19.2334 77 18.9272 76.9634 18.5317 76.8901C18.2329 76.8315 17.9575 76.8022 17.7056 76.8022C17.4272 76.8022 17.1211 76.8359 16.7871 76.9033C16.4561 76.9678 16.1982 77 16.0137 77H15.4204V76.4595H15.7061C16.2217 76.4595 16.4795 76.2441 16.4795 75.8135C16.4795 75.4619 16.4326 74.9814 16.3389 74.3721C16.1338 73.124 16.0312 72.0195 16.0312 71.0586V70.8608H15.8687C15.6606 71.564 15.2769 72.4648 14.7173 73.5635C14.187 74.5859 13.689 75.7314 13.2231 77H12.5947C12.249 76.1123 11.7319 75.002 11.0435 73.6689C10.6011 72.8047 10.3081 72.2217 10.1646 71.9199C10.0239 71.6182 9.89209 71.2651 9.76904 70.8608H9.58887C9.53027 71.3062 9.42188 72.0503 9.26367 73.0933C9.20508 73.4565 9.15381 73.7686 9.10986 74.0293C9.06885 74.29 9.03516 74.5449 9.00879 74.7939C8.98535 75.043 8.97363 75.292 8.97363 75.541C8.97363 75.8398 9.02051 76.0684 9.11426 76.2266C9.21094 76.3818 9.3208 76.4595 9.44385 76.4595H10.1646V77H9.75146C9.6665 77 9.44385 76.9707 9.0835 76.9121C8.81396 76.8506 8.56787 76.8198 8.34521 76.8198C8.07568 76.8198 7.82959 76.8433 7.60693 76.8901C7.53369 76.9048 7.45312 76.9224 7.36523 76.9429C7.28027 76.9604 7.2041 76.9751 7.13672 76.9868C7.06934 76.9956 7.01074 77 6.96094 77H6.58301V76.4595H7.03125C7.34766 76.4595 7.60693 76.2822 7.80908 75.9277C8.01416 75.5732 8.1665 75.1924 8.26611 74.7852C8.36572 74.3779 8.48877 73.8022 8.63525 73.0581C8.79639 72.229 8.91064 71.5903 8.97803 71.1421C9.04541 70.6938 9.10986 69.9878 9.17139 69.0239C9.73389 68.9448 10.2627 68.8071 10.7578 68.6108C11.373 70.3628 12.1465 72.2114 13.0781 74.1567C13.1895 74.3735 13.2744 74.5947 13.333 74.8203ZM20.7817 75.8486C20.7817 75.4209 20.9004 75.0796 21.1377 74.8247C21.375 74.5698 21.6519 74.4424 21.9683 74.4424C22.2788 74.4424 22.5601 74.5713 22.812 74.8291C23.0669 75.084 23.1943 75.4238 23.1943 75.8486C23.1943 76.2354 23.0801 76.5635 22.8516 76.833C22.626 77.0996 22.3315 77.2329 21.9683 77.2329C21.6431 77.2329 21.3633 77.1113 21.1289 76.8682C20.8975 76.6221 20.7817 76.2822 20.7817 75.8486ZM42.1392 74.2271H42.8071C42.646 75.0884 42.3691 75.7402 41.9766 76.1826C41.584 76.6221 41.0728 76.9121 40.4429 77.0527C39.8159 77.1963 38.978 77.2681 37.9292 77.2681C36.8862 77.2681 35.9238 77.1069 35.042 76.7847C34.1602 76.4624 33.397 76.0068 32.7524 75.418C32.1108 74.8262 31.6187 74.1362 31.2759 73.3481C30.9331 72.5601 30.7617 71.7075 30.7617 70.7905C30.7617 69.7329 30.9844 68.7295 31.4297 67.7803C31.8779 66.8281 32.6001 66.0474 33.5962 65.438C34.5952 64.8286 35.8711 64.5239 37.4238 64.5239C37.8838 64.5239 38.2544 64.54 38.5356 64.5723C38.8198 64.6016 39.1084 64.647 39.4014 64.7085C39.6973 64.7671 39.958 64.811 40.1836 64.8403C40.4092 64.8696 40.7197 64.8843 41.1152 64.8843C41.6631 64.8843 42.1069 64.8608 42.4468 64.814C42.3706 65.3003 42.3223 65.8276 42.3018 66.396C42.29 66.9263 42.2842 67.4609 42.2842 68H41.5811C41.5811 67.4111 41.417 66.9116 41.0889 66.5015C40.7637 66.0913 40.3301 65.7866 39.7881 65.5874C39.2461 65.3853 38.6616 65.2842 38.0347 65.2842C37.1558 65.2842 36.3604 65.4951 35.6484 65.917C34.9365 66.3359 34.3755 66.9453 33.9653 67.7451C33.5581 68.5449 33.3545 69.4883 33.3545 70.5752C33.3545 71.8262 33.5962 72.8999 34.0796 73.7964C34.563 74.6929 35.1841 75.3696 35.9429 75.8267C36.7046 76.2837 37.4795 76.5122 38.2676 76.5122C39.0205 76.5122 39.7778 76.2925 40.5396 75.853C41.3042 75.4136 41.8374 74.8716 42.1392 74.2271ZM46.5425 71.0762L44.165 72.0342C44.1064 71.8672 44.0771 71.6812 44.0771 71.4761C44.0771 70.9399 44.3291 70.4697 44.833 70.0654C45.3369 69.6611 45.9595 69.3535 46.7007 69.1426C47.4419 68.9316 48.145 68.8262 48.8101 68.8262C49.5776 68.8262 50.0962 69.04 50.3657 69.4678C50.6353 69.8955 50.77 70.354 50.77 70.8433C50.77 71.3208 50.7407 71.8496 50.6821 72.4297C50.6265 72.9482 50.5781 73.3701 50.5371 73.6953C50.499 74.0176 50.4712 74.2461 50.4536 74.3809C50.439 74.5127 50.4243 74.6475 50.4097 74.7852C50.3979 74.9199 50.3921 75.0342 50.3921 75.1279C50.3921 75.3975 50.4478 75.6304 50.5591 75.8267C50.6704 76.02 50.7949 76.1167 50.9326 76.1167C51.0967 76.1167 51.3384 75.998 51.6577 75.7607C51.9771 75.5205 52.2217 75.292 52.3916 75.0752V75.9761C51.7793 76.4741 51.2915 76.8198 50.9282 77.0132C50.5679 77.2095 50.2515 77.3076 49.979 77.3076C49.5483 77.3076 49.2144 77.1714 48.9771 76.8989C48.7397 76.6235 48.5815 76.3159 48.5024 75.9761C48.0161 76.4448 47.5415 76.7847 47.0786 76.9956C46.6157 77.2036 46.1118 77.3076 45.5669 77.3076C45.1216 77.3076 44.7554 77.2168 44.4683 77.0352C44.1841 76.8564 43.9775 76.6382 43.8486 76.3804C43.7227 76.1226 43.6597 75.8735 43.6597 75.6333C43.6597 75.1763 43.8589 74.7544 44.2573 74.3677C44.6587 73.978 45.2358 73.6558 45.9888 73.4009C46.7417 73.1431 47.6279 72.9746 48.6475 72.8955C48.6826 72.5352 48.7002 72.1748 48.7002 71.8145C48.7002 70.3643 48.293 69.6392 47.4785 69.6392C47.2031 69.6392 46.9629 69.7329 46.7578 69.9204C46.5527 70.105 46.4502 70.3408 46.4502 70.6279C46.4502 70.7568 46.481 70.9062 46.5425 71.0762ZM48.6123 73.4536C48.2754 73.4741 47.9092 73.5327 47.5137 73.6294C47.1211 73.7231 46.7651 73.896 46.4458 74.1479C46.1265 74.3999 45.9668 74.7383 45.9668 75.1631C45.9668 75.5088 46.0547 75.7637 46.2305 75.9277C46.4092 76.0918 46.626 76.1738 46.8809 76.1738C47.2119 76.1738 47.5093 76.0405 47.7729 75.7739C48.0396 75.5073 48.2461 75.1646 48.3926 74.7456C48.5391 74.3237 48.6123 73.8931 48.6123 73.4536ZM52.4048 76.4595H52.7124C52.8911 76.4595 53.0464 76.4199 53.1782 76.3408C53.3101 76.2588 53.4229 76.1475 53.5166 76.0068C53.6104 75.8633 53.6968 75.6978 53.7759 75.5103C53.855 75.3198 53.9619 75.0605 54.0967 74.7324C54.2227 74.4248 54.3882 74.022 54.5933 73.5239C54.8013 73.0229 54.9771 72.5894 55.1206 72.2231C55.2671 71.854 55.4502 71.3662 55.6699 70.7598C55.8896 70.1533 56.0977 69.5571 56.2939 68.9712C56.877 68.8423 57.3809 68.6738 57.8057 68.4658L58.2188 69.7271L60.0557 74.5171C60.3135 75.1616 60.5508 75.6465 60.7676 75.9717C60.9844 76.2969 61.2334 76.4595 61.5146 76.4595H61.9629V77H61.5498C61.4531 77 61.1953 76.9707 60.7764 76.9121C60.4248 76.8506 60.1069 76.8198 59.8228 76.8198C59.4712 76.8198 59.2236 76.8418 59.0801 76.8857C58.9365 76.9297 58.8149 76.9604 58.7153 76.978C58.6157 76.9927 58.2773 77 57.7002 77H57.3574V76.4595H57.8628C57.9771 76.4595 58.0767 76.395 58.1616 76.2661C58.2495 76.1372 58.2935 75.9731 58.2935 75.7739C58.2935 75.5396 58.2568 75.3301 58.1836 75.1455L56.6719 70.7378L56.6016 70.2324V70.0698H56.4565C56.3892 70.6147 56.1973 71.2988 55.8809 72.1221C55.1016 74.1875 54.7119 75.3579 54.7119 75.6333C54.7119 76.1841 54.8438 76.4595 55.1074 76.4595H55.6655V77H55.2129C55.1719 77 55.1206 76.9956 55.0591 76.9868C55.0005 76.9751 54.9419 76.9604 54.8833 76.9429C54.8247 76.9253 54.7617 76.9077 54.6943 76.8901C54.5186 76.8433 54.3135 76.8198 54.0791 76.8198C53.8916 76.8198 53.6338 76.8564 53.3057 76.9297C53.0654 76.9766 52.8853 77 52.7651 77H52.4048V76.4595ZM62.4375 69.0635H63.3735C63.5435 69.0635 63.8071 69.0869 64.1646 69.1338C64.4751 69.1807 64.7036 69.2041 64.8501 69.2041C65.0054 69.2041 65.2383 69.1807 65.5488 69.1338C65.9121 69.0869 66.1772 69.0635 66.3442 69.0635H67.2803V69.604H66.8452C66.4614 69.604 66.2036 69.7358 66.0718 69.9995C65.9399 70.2603 65.874 70.7393 65.874 71.4365V72.4648C66.3604 72.3564 66.8101 72.3022 67.2231 72.3022C67.9673 72.3022 68.6045 72.4033 69.1348 72.6055C69.668 72.8047 70.0708 73.0845 70.3433 73.4448C70.6157 73.8022 70.752 74.2139 70.752 74.6797C70.752 75.3447 70.5264 75.916 70.0752 76.3936C69.627 76.8711 68.7422 77.1099 67.4209 77.1099C66.8555 77.1099 66.3706 77.0732 65.9663 77C65.8784 76.9883 65.7129 76.959 65.4697 76.9121C65.2266 76.8623 65.0317 76.8374 64.8853 76.8374C64.2407 76.8374 63.8701 76.8652 63.7734 76.9209C63.6768 76.9736 63.4351 77 63.0483 77H62.4375V76.4595H62.9209C63.3428 76.4595 63.6108 76.269 63.7251 75.8882C63.8394 75.5044 63.8965 74.9155 63.8965 74.1216V72.0869C63.8965 71.4248 63.8657 70.9165 63.8042 70.562C63.7427 70.2046 63.6387 69.9556 63.4922 69.8149C63.3486 69.6743 63.1406 69.604 62.8682 69.604H62.4375V69.0635ZM65.874 72.9658V74.7324C65.874 75.2217 65.8931 75.5908 65.9312 75.8398C65.9722 76.0889 66.0747 76.2822 66.2388 76.4199C66.4028 76.5547 66.665 76.6221 67.0254 76.6221C67.5088 76.6221 67.8911 76.458 68.1724 76.1299C68.4536 75.7988 68.5942 75.3813 68.5942 74.8774C68.5942 74.2827 68.4229 73.8066 68.0801 73.4492C67.7402 73.0918 67.3052 72.9131 66.7749 72.9131C66.4087 72.9131 66.1084 72.9307 65.874 72.9658ZM71.5605 69.604V69.0635H72.3164C72.416 69.0635 72.6929 69.0928 73.147 69.1514C73.4487 69.1865 73.7534 69.2041 74.061 69.2041C74.4009 69.2041 74.8931 69.1572 75.5376 69.0635C75.9067 69.002 76.2554 68.9712 76.5835 68.9712C77.4448 68.9712 78.0923 69.1587 78.5259 69.5337C78.9595 69.9087 79.1763 70.376 79.1763 70.9355C79.1763 71.498 78.9756 71.9053 78.5742 72.1572C78.1729 72.4062 77.7363 72.5498 77.2646 72.5879V72.7329C78.9346 72.9292 79.7695 73.6616 79.7695 74.9302C79.7695 75.2905 79.686 75.6318 79.519 75.9541C79.3521 76.2764 79.0649 76.543 78.6577 76.7539C78.2505 76.9648 77.7144 77.0703 77.0493 77.0703C76.3872 77.0703 75.8291 77.0352 75.375 76.9648C74.9238 76.8799 74.4258 76.8374 73.8809 76.8374C73.459 76.8374 73.1851 76.8477 73.0591 76.8682C72.9331 76.8857 72.8101 76.9121 72.6899 76.9473C72.5698 76.9824 72.4336 77 72.2812 77H71.5605V76.4595H71.9209C72.6182 76.4595 72.9668 75.8662 72.9668 74.6797V71.5112C72.9668 71.0864 72.9492 70.7437 72.9141 70.4829C72.8818 70.2192 72.7983 70.0068 72.6636 69.8457C72.5288 69.6846 72.3179 69.604 72.0308 69.604H71.5605ZM75.397 73.2207V72.7153C75.4673 72.7271 75.6885 72.7329 76.0605 72.7329C76.4941 72.7329 76.8208 72.5674 77.0405 72.2363C77.2632 71.9053 77.3745 71.5127 77.3745 71.0586C77.3745 70.7158 77.2559 70.4185 77.0186 70.1665C76.7812 69.9116 76.4443 69.7842 76.0078 69.7842C75.627 69.7842 75.3091 69.8076 75.0542 69.8545C74.981 71.2285 74.9443 71.9727 74.9443 72.0869V74.9478C74.9443 76.0171 75.2505 76.5518 75.8628 76.5518C76.311 76.5518 76.7168 76.4463 77.0801 76.2354C77.4434 76.0215 77.625 75.6641 77.625 75.1631C77.625 74.5889 77.499 74.1187 77.2471 73.7524C76.998 73.3862 76.6084 73.2031 76.0781 73.2031C75.7295 73.2031 75.5024 73.209 75.397 73.2207ZM83.439 71.0762L81.0615 72.0342C81.0029 71.8672 80.9736 71.6812 80.9736 71.4761C80.9736 70.9399 81.2256 70.4697 81.7295 70.0654C82.2334 69.6611 82.856 69.3535 83.5972 69.1426C84.3384 68.9316 85.0415 68.8262 85.7065 68.8262C86.4741 68.8262 86.9927 69.04 87.2622 69.4678C87.5317 69.8955 87.6665 70.354 87.6665 70.8433C87.6665 71.3208 87.6372 71.8496 87.5786 72.4297C87.5229 72.9482 87.4746 73.3701 87.4336 73.6953C87.3955 74.0176 87.3677 74.2461 87.3501 74.3809C87.3354 74.5127 87.3208 74.6475 87.3062 74.7852C87.2944 74.9199 87.2886 75.0342 87.2886 75.1279C87.2886 75.3975 87.3442 75.6304 87.4556 75.8267C87.5669 76.02 87.6914 76.1167 87.8291 76.1167C87.9932 76.1167 88.2349 75.998 88.5542 75.7607C88.8735 75.5205 89.1182 75.292 89.2881 75.0752V75.9761C88.6758 76.4741 88.188 76.8198 87.8247 77.0132C87.4644 77.2095 87.1479 77.3076 86.8755 77.3076C86.4448 77.3076 86.1108 77.1714 85.8735 76.8989C85.6362 76.6235 85.478 76.3159 85.3989 75.9761C84.9126 76.4448 84.438 76.7847 83.9751 76.9956C83.5122 77.2036 83.0083 77.3076 82.4634 77.3076C82.0181 77.3076 81.6519 77.2168 81.3647 77.0352C81.0806 76.8564 80.874 76.6382 80.7451 76.3804C80.6191 76.1226 80.5562 75.8735 80.5562 75.6333C80.5562 75.1763 80.7554 74.7544 81.1538 74.3677C81.5552 73.978 82.1323 73.6558 82.8853 73.4009C83.6382 73.1431 84.5244 72.9746 85.5439 72.8955C85.5791 72.5352 85.5967 72.1748 85.5967 71.8145C85.5967 70.3643 85.1895 69.6392 84.375 69.6392C84.0996 69.6392 83.8594 69.7329 83.6543 69.9204C83.4492 70.105 83.3467 70.3408 83.3467 70.6279C83.3467 70.7568 83.3774 70.9062 83.439 71.0762ZM85.5088 73.4536C85.1719 73.4741 84.8057 73.5327 84.4102 73.6294C84.0176 73.7231 83.6616 73.896 83.3423 74.1479C83.0229 74.3999 82.8633 74.7383 82.8633 75.1631C82.8633 75.5088 82.9512 75.7637 83.127 75.9277C83.3057 76.0918 83.5225 76.1738 83.7773 76.1738C84.1084 76.1738 84.4058 76.0405 84.6694 75.7739C84.936 75.5073 85.1426 75.1646 85.2891 74.7456C85.4355 74.3237 85.5088 73.8931 85.5088 73.4536ZM93.1201 68.9536L94.6318 68.5229L96.9521 75.3608C97.0518 75.6216 97.1499 75.8252 97.2466 75.9717C97.3462 76.1182 97.5117 76.1914 97.7432 76.1914C98.1182 76.1914 98.4785 76.1489 98.8242 76.064C98.6133 76.5708 98.4507 76.9766 98.3364 77.2812C98.2251 77.5889 98.1167 77.917 98.0112 78.2656C97.9058 78.6172 97.7754 79.0537 97.6201 79.5752H96.8643C96.9229 79.3584 96.9814 79.0698 97.04 78.7095C97.1016 78.3491 97.1323 78.062 97.1323 77.8481C97.1323 77.2827 96.6826 77 95.7832 77H91.894C91.4517 77 91.0415 77.1465 90.6636 77.4395C90.2856 77.7354 90.0967 78.3389 90.0967 79.25V79.5752H89.3013V76.064C89.4214 76.0786 89.5547 76.0977 89.7012 76.1211C89.8477 76.1416 89.9678 76.1519 90.0615 76.1519C90.2607 76.1519 90.4277 76.0977 90.5625 75.9893C90.6973 75.8779 90.8145 75.7227 90.9141 75.5234C91.0166 75.3213 91.125 75.0503 91.2393 74.7104C91.3535 74.3706 91.4707 74.0234 91.5908 73.6689C91.6436 73.5107 91.8164 73.0244 92.1094 72.21C92.6367 70.7686 92.9736 69.6831 93.1201 68.9536ZM93.3882 70.7378H93.2827C93.2534 70.9985 93.1143 71.5112 92.8652 72.2759C92.6191 73.0376 92.3467 73.8125 92.0479 74.6006C91.749 75.3887 91.5249 75.9189 91.3755 76.1914C92.2397 76.25 92.8872 76.2793 93.3179 76.2793C93.8159 76.2793 94.4092 76.25 95.0977 76.1914C94.2305 73.8623 93.6606 72.0444 93.3882 70.7378ZM103.997 68.8262C104.922 68.8262 105.727 69.0049 106.409 69.3623C107.092 69.7197 107.613 70.2119 107.974 70.8389C108.334 71.4658 108.514 72.1631 108.514 72.9307C108.514 73.7393 108.313 74.479 107.912 75.1499C107.514 75.8179 106.947 76.3452 106.211 76.7319C105.476 77.1157 104.635 77.3076 103.689 77.3076C102.883 77.3076 102.142 77.1318 101.465 76.7803C100.792 76.4258 100.258 75.938 99.8657 75.3169C99.4761 74.6929 99.2812 74.0059 99.2812 73.2559C99.2812 72.6523 99.3823 72.084 99.5845 71.5508C99.7866 71.0176 100.088 70.5459 100.49 70.1357C100.891 69.7256 101.386 69.4048 101.975 69.1733C102.567 68.9419 103.241 68.8262 103.997 68.8262ZM103.764 69.5645C103.468 69.5645 103.163 69.6509 102.85 69.8237C102.536 69.9937 102.265 70.3101 102.037 70.7729C101.808 71.2358 101.694 71.8716 101.694 72.6802C101.694 74.0864 101.95 75.0869 102.463 75.6816C102.976 76.2734 103.541 76.5693 104.159 76.5693C105.454 76.5693 106.102 75.4824 106.102 73.3086C106.102 72.5059 105.986 71.8203 105.754 71.252C105.523 70.6807 105.227 70.2573 104.867 69.9819C104.509 69.7036 104.142 69.5645 103.764 69.5645ZM114.715 81.4121H113.691C113.591 81.4121 113.369 81.3813 113.023 81.3198C112.759 81.2729 112.436 81.2495 112.052 81.2495C111.68 81.2495 111.362 81.2729 111.098 81.3198C110.782 81.3813 110.584 81.4121 110.505 81.4121H109.639V80.8716H110.07C110.527 80.8716 110.818 80.6621 110.944 80.2432C111.07 79.8271 111.133 79.2617 111.133 78.5469V73.2383C111.133 72.2012 111.117 71.4834 111.085 71.085C111.053 70.6865 110.962 70.4067 110.812 70.2456C110.666 70.0815 110.413 69.9995 110.052 69.9995C109.692 69.9995 109.392 70.0229 109.151 70.0698V69.4414C109.875 69.3799 110.414 69.3301 110.769 69.292C111.123 69.251 111.489 69.1909 111.867 69.1118C112.248 69.0327 112.657 68.9199 113.093 68.7734C113.02 69.21 112.96 69.7139 112.913 70.2852C113.625 69.7695 114.208 69.3945 114.662 69.1602C115.119 68.9258 115.617 68.8086 116.156 68.8086C116.678 68.8086 117.157 68.9492 117.593 69.2305C118.033 69.5088 118.383 69.916 118.644 70.4521C118.904 70.9883 119.035 71.6226 119.035 72.355C119.035 73.1431 118.838 73.9048 118.446 74.6401C118.056 75.3726 117.502 75.9673 116.785 76.4243C116.067 76.8813 115.257 77.1099 114.354 77.1099C113.78 77.1099 113.367 77.0791 113.115 77.0176V78.5469C113.115 79.3057 113.191 79.8828 113.344 80.2783C113.499 80.6738 113.807 80.8716 114.267 80.8716H114.715V81.4121ZM113.115 70.9707V76.354C113.353 76.4741 113.706 76.5342 114.174 76.5342C115.126 76.5342 115.805 76.1489 116.209 75.3784C116.616 74.6079 116.82 73.751 116.82 72.8076C116.82 71.9404 116.654 71.2461 116.323 70.7246C115.995 70.2031 115.542 69.9424 114.965 69.9424C114.397 69.9424 113.78 70.2852 113.115 70.9707ZM122.779 71.0762L120.401 72.0342C120.343 71.8672 120.313 71.6812 120.313 71.4761C120.313 70.9399 120.565 70.4697 121.069 70.0654C121.573 69.6611 122.196 69.3535 122.937 69.1426C123.678 68.9316 124.381 68.8262 125.046 68.8262C125.814 68.8262 126.333 69.04 126.602 69.4678C126.872 69.8955 127.006 70.354 127.006 70.8433C127.006 71.3208 126.977 71.8496 126.918 72.4297C126.863 72.9482 126.814 73.3701 126.773 73.6953C126.735 74.0176 126.708 74.2461 126.69 74.3809C126.675 74.5127 126.661 74.6475 126.646 74.7852C126.634 74.9199 126.628 75.0342 126.628 75.1279C126.628 75.3975 126.684 75.6304 126.795 75.8267C126.907 76.02 127.031 76.1167 127.169 76.1167C127.333 76.1167 127.575 75.998 127.894 75.7607C128.213 75.5205 128.458 75.292 128.628 75.0752V75.9761C128.016 76.4741 127.528 76.8198 127.165 77.0132C126.804 77.2095 126.488 77.3076 126.215 77.3076C125.785 77.3076 125.451 77.1714 125.213 76.8989C124.976 76.6235 124.818 76.3159 124.739 75.9761C124.252 76.4448 123.778 76.7847 123.315 76.9956C122.852 77.2036 122.348 77.3076 121.803 77.3076C121.358 77.3076 120.992 77.2168 120.705 77.0352C120.42 76.8564 120.214 76.6382 120.085 76.3804C119.959 76.1226 119.896 75.8735 119.896 75.6333C119.896 75.1763 120.095 74.7544 120.494 74.3677C120.895 73.978 121.472 73.6558 122.225 73.4009C122.978 73.1431 123.864 72.9746 124.884 72.8955C124.919 72.5352 124.937 72.1748 124.937 71.8145C124.937 70.3643 124.529 69.6392 123.715 69.6392C123.439 69.6392 123.199 69.7329 122.994 69.9204C122.789 70.105 122.687 70.3408 122.687 70.6279C122.687 70.7568 122.717 70.9062 122.779 71.0762ZM124.849 73.4536C124.512 73.4741 124.146 73.5327 123.75 73.6294C123.357 73.7231 123.001 73.896 122.682 74.1479C122.363 74.3999 122.203 74.7383 122.203 75.1631C122.203 75.5088 122.291 75.7637 122.467 75.9277C122.646 76.0918 122.862 76.1738 123.117 76.1738C123.448 76.1738 123.746 76.0405 124.009 75.7739C124.276 75.5073 124.482 75.1646 124.629 74.7456C124.775 74.3237 124.849 73.8931 124.849 73.4536ZM135.817 80.0059H134.899C135.163 78.5908 135.294 77.1992 135.294 75.8311C135.672 75.9277 136.093 75.9761 136.556 75.9761C136.688 75.9761 136.816 75.8896 136.942 75.7168C137.068 75.5439 137.213 75.2524 137.377 74.8423C137.542 74.4321 137.708 73.9692 137.878 73.4536C138.051 72.938 138.444 71.75 139.056 69.8896C139.794 67.6631 140.329 65.9111 140.66 64.6338C141.205 64.5869 141.775 64.5034 142.37 64.3833C142.786 66.1265 143.354 68.123 144.075 70.373C144.798 72.623 145.37 74.2256 145.789 75.1807C145.926 75.4736 146.07 75.686 146.219 75.8179C146.372 75.9468 146.612 76.0112 146.94 76.0112C147.23 76.0112 147.602 75.9512 148.056 75.8311C147.845 77.2256 147.545 78.6172 147.155 80.0059H146.294C146.461 79.4727 146.544 78.7886 146.544 77.9536C146.544 77.5522 146.392 77.293 146.087 77.1758C145.783 77.0586 145.389 77 144.905 77C144.618 77 144.117 77.0117 143.402 77.0352C142.688 77.0586 142.091 77.0703 141.614 77.0703C140.234 77.0703 139.148 77.0527 138.357 77.0176C138.308 77.0176 138.237 77.0146 138.146 77.0088C138.056 77.0029 137.987 77 137.94 77C137.527 77 137.19 77.0688 136.929 77.2065C136.671 77.3442 136.449 77.6284 136.261 78.0591C136.077 78.4927 135.929 79.1416 135.817 80.0059ZM141.003 66.8135H140.858C140.744 67.3555 140.52 68.208 140.186 69.3711C139.852 70.5312 139.26 72.2949 138.41 74.6621C138.319 74.9141 138.248 75.1133 138.195 75.2598C138.142 75.4062 138.045 75.6743 137.905 76.064C138.965 76.1226 139.95 76.1519 140.858 76.1519C141.593 76.1519 142.547 76.1226 143.719 76.064C143.651 75.8735 143.603 75.7388 143.574 75.6597C143.544 75.5776 143.498 75.4487 143.433 75.2729C143.369 75.0942 143.309 74.9316 143.253 74.7852C142.951 73.9414 142.597 72.8794 142.189 71.5991C141.448 69.27 141.053 67.6748 141.003 66.8135ZM151.308 71.0762L148.931 72.0342C148.872 71.8672 148.843 71.6812 148.843 71.4761C148.843 70.9399 149.095 70.4697 149.599 70.0654C150.103 69.6611 150.725 69.3535 151.466 69.1426C152.208 68.9316 152.911 68.8262 153.576 68.8262C154.343 68.8262 154.862 69.04 155.131 69.4678C155.401 69.8955 155.536 70.354 155.536 70.8433C155.536 71.3208 155.506 71.8496 155.448 72.4297C155.392 72.9482 155.344 73.3701 155.303 73.6953C155.265 74.0176 155.237 74.2461 155.219 74.3809C155.205 74.5127 155.19 74.6475 155.175 74.7852C155.164 74.9199 155.158 75.0342 155.158 75.1279C155.158 75.3975 155.213 75.6304 155.325 75.8267C155.436 76.02 155.561 76.1167 155.698 76.1167C155.862 76.1167 156.104 75.998 156.423 75.7607C156.743 75.5205 156.987 75.292 157.157 75.0752V75.9761C156.545 76.4741 156.057 76.8198 155.694 77.0132C155.333 77.2095 155.017 77.3076 154.745 77.3076C154.314 77.3076 153.98 77.1714 153.743 76.8989C153.505 76.6235 153.347 76.3159 153.268 75.9761C152.782 76.4448 152.307 76.7847 151.844 76.9956C151.381 77.2036 150.877 77.3076 150.333 77.3076C149.887 77.3076 149.521 77.2168 149.234 77.0352C148.95 76.8564 148.743 76.6382 148.614 76.3804C148.488 76.1226 148.425 75.8735 148.425 75.6333C148.425 75.1763 148.625 74.7544 149.023 74.3677C149.424 73.978 150.001 73.6558 150.754 73.4009C151.507 73.1431 152.394 72.9746 153.413 72.8955C153.448 72.5352 153.466 72.1748 153.466 71.8145C153.466 70.3643 153.059 69.6392 152.244 69.6392C151.969 69.6392 151.729 69.7329 151.523 69.9204C151.318 70.105 151.216 70.3408 151.216 70.6279C151.216 70.7568 151.247 70.9062 151.308 71.0762ZM153.378 73.4536C153.041 73.4741 152.675 73.5327 152.279 73.6294C151.887 73.7231 151.531 73.896 151.211 74.1479C150.892 74.3999 150.732 74.7383 150.732 75.1631C150.732 75.5088 150.82 75.7637 150.996 75.9277C151.175 76.0918 151.392 76.1738 151.646 76.1738C151.978 76.1738 152.275 76.0405 152.539 75.7739C152.805 75.5073 153.012 75.1646 153.158 74.7456C153.305 74.3237 153.378 73.8931 153.378 73.4536ZM157.17 76.4595H157.478C157.657 76.4595 157.812 76.4199 157.944 76.3408C158.076 76.2588 158.188 76.1475 158.282 76.0068C158.376 75.8633 158.462 75.6978 158.542 75.5103C158.621 75.3198 158.728 75.0605 158.862 74.7324C158.988 74.4248 159.154 74.022 159.359 73.5239C159.567 73.0229 159.743 72.5894 159.886 72.2231C160.033 71.854 160.216 71.3662 160.436 70.7598C160.655 70.1533 160.863 69.5571 161.06 68.9712C161.643 68.8423 162.146 68.6738 162.571 68.4658L162.984 69.7271L164.821 74.5171C165.079 75.1616 165.316 75.6465 165.533 75.9717C165.75 76.2969 165.999 76.4595 166.28 76.4595H166.729V77H166.315C166.219 77 165.961 76.9707 165.542 76.9121C165.19 76.8506 164.873 76.8198 164.588 76.8198C164.237 76.8198 163.989 76.8418 163.846 76.8857C163.702 76.9297 163.581 76.9604 163.481 76.978C163.381 76.9927 163.043 77 162.466 77H162.123V76.4595H162.628C162.743 76.4595 162.842 76.395 162.927 76.2661C163.015 76.1372 163.059 75.9731 163.059 75.7739C163.059 75.5396 163.022 75.3301 162.949 75.1455L161.438 70.7378L161.367 70.2324V70.0698H161.222C161.155 70.6147 160.963 71.2988 160.646 72.1221C159.867 74.1875 159.478 75.3579 159.478 75.6333C159.478 76.1841 159.609 76.4595 159.873 76.4595H160.431V77H159.979C159.938 77 159.886 76.9956 159.825 76.9868C159.766 76.9751 159.708 76.9604 159.649 76.9429C159.59 76.9253 159.527 76.9077 159.46 76.8901C159.284 76.8433 159.079 76.8198 158.845 76.8198C158.657 76.8198 158.399 76.8564 158.071 76.9297C157.831 76.9766 157.651 77 157.531 77H157.17V76.4595ZM169.83 67.172V77H167.148V67.172H169.83ZM168.498 63.32C168.894 63.32 169.236 63.416 169.524 63.608C169.812 63.788 169.956 64.13 169.956 64.634C169.956 65.126 169.812 65.468 169.524 65.66C169.236 65.852 168.894 65.948 168.498 65.948C168.09 65.948 167.742 65.852 167.454 65.66C167.178 65.468 167.04 65.126 167.04 64.634C167.04 64.13 167.178 63.788 167.454 63.608C167.742 63.416 168.09 63.32 168.498 63.32Z" fill="black"/>
</svg>
