<svg width="224" height="80" viewBox="0 0 224 80" fill="none" xmlns="http://www.w3.org/2000/svg">
<path d="M30.3809 20V19.1621H30.7139C30.986 19.1621 31.2563 19.0798 31.5249 18.915C31.7935 18.7503 32.0405 18.4245 32.2661 17.9375C32.4917 17.4505 32.6421 16.7738 32.7173 15.9072L33.2651 9.56934C33.369 8.28385 33.4424 6.73698 33.4854 4.92871C34.0081 4.86068 34.4915 4.73714 34.9355 4.55811L39.4043 14.5645C39.7946 15.4346 40.0721 16.1471 40.2368 16.7021H40.4141C40.5465 16.251 40.7005 15.8088 40.876 15.3755C41.0514 14.9386 41.2358 14.5233 41.4292 14.1294C41.6261 13.7355 41.9162 13.1608 42.2993 12.4053C42.6825 11.6462 42.985 11.0321 43.207 10.563C44.4782 7.85596 45.2928 5.97786 45.6509 4.92871C46.2632 4.87142 46.9453 4.74788 47.6973 4.55811C47.708 4.70492 47.7188 4.91081 47.7295 5.17578C47.7438 5.43717 47.7546 5.64128 47.7617 5.78809C47.7617 6.18555 47.776 6.56689 47.8047 6.93213C47.8226 7.24723 47.8369 7.48356 47.8477 7.64111C47.862 7.79508 47.8781 8.02067 47.896 8.31787L48.2666 14.1025C48.2917 14.6432 48.3203 15.2072 48.3525 15.7944C48.3848 16.3781 48.4492 16.9224 48.5459 17.4272C48.6426 17.9321 48.8037 18.3475 49.0293 18.6733C49.2549 18.9992 49.5664 19.1621 49.9639 19.1621H50.2915V20H49.5879C48.9183 20 48.5011 19.957 48.3364 19.8711C48.1717 19.7816 47.7904 19.7368 47.1924 19.7368C46.8988 19.7368 46.4583 19.7798 45.8711 19.8657C45.4163 19.9552 45.0636 20 44.813 20H44.2651V19.1621H44.5713C44.9258 19.1621 45.2051 19.0475 45.4092 18.8184C45.6133 18.5892 45.7153 18.1022 45.7153 17.3574C45.7153 17.318 45.7118 17.2482 45.7046 17.1479C45.6974 17.0477 45.6938 16.9725 45.6938 16.9224L45.3018 10.1226L45.3447 8.97852H45.2104C45.1102 9.18978 44.9347 9.59977 44.6841 10.2085C43.9321 11.9523 42.9635 14.0363 41.7783 16.4604C41.5205 16.9868 41.3343 17.3664 41.2197 17.5991C41.1087 17.8319 40.9351 18.1917 40.6987 18.6787C40.5376 19.0475 40.3836 19.3787 40.2368 19.6724H39.4258C39.2682 19.3573 39.1071 19.0189 38.9424 18.6572C38.681 18.0771 38.2191 17.139 37.5566 15.8428C36.7474 14.2923 36.1154 13.0122 35.6606 12.0024C35.2095 10.9891 34.9141 10.2747 34.7744 9.85938C34.6383 9.44401 34.5524 9.15039 34.5166 8.97852L34.2749 8.95703V9.32764C34.2749 9.93994 34.2391 10.8942 34.1675 12.1904C34.1138 13.2288 34.0762 13.9915 34.0547 14.4785C34.0475 14.7077 34.0386 15.055 34.0278 15.5205C34.0171 15.986 34.0046 16.3351 33.9902 16.5679C33.9616 16.8901 33.9473 17.1533 33.9473 17.3574C33.9473 18.5605 34.3 19.1621 35.0054 19.1621H35.5103V20H35.0054C34.812 20 34.5327 19.9552 34.1675 19.8657C33.813 19.7798 33.4603 19.7368 33.1094 19.7368C32.9089 19.7368 32.6009 19.7798 32.1855 19.8657C31.7093 19.9552 31.328 20 31.0415 20H30.3809ZM51.2583 5.06299H51.9619C52.0693 5.06299 52.4364 5.0988 53.063 5.17041C53.618 5.23128 54.0137 5.26172 54.25 5.26172C54.4792 5.26172 54.8748 5.23128 55.437 5.17041C56.0636 5.0988 56.4307 5.06299 56.5381 5.06299H57.2632V5.89551H56.8013C56.3215 5.89551 56.0099 6.10856 55.8667 6.53467C55.7271 6.96077 55.6572 7.5695 55.6572 8.36084V9.15576V14.2368C55.6572 14.8849 55.5695 15.8016 55.394 16.9868H55.5928C56.0547 16.2707 57.0662 15.0747 58.6274 13.3989C59.3114 12.6541 60.0705 11.7948 60.9048 10.8208C61.7391 9.84326 62.5573 8.8514 63.3594 7.84521C64.1615 6.83545 64.8937 5.87044 65.5562 4.9502C65.9035 4.88574 66.2777 4.84277 66.6787 4.82129C66.5892 5.91699 66.5444 6.90706 66.5444 7.7915V15.8643C66.5444 16.584 66.5659 17.1694 66.6089 17.6206C66.6519 18.0718 66.7575 18.4424 66.9258 18.7324C67.0941 19.0189 67.3483 19.1621 67.6885 19.1621H68.1504V20H67.4038C67.1925 20 66.8918 19.9481 66.5015 19.8442C66.061 19.7726 65.6063 19.7368 65.1372 19.7368C64.7004 19.7368 64.2617 19.7726 63.8213 19.8442C63.4202 19.9481 63.1195 20 62.9189 20H62.1025V19.1621H62.5645C62.9225 19.1621 63.1857 18.9974 63.354 18.668C63.5259 18.3385 63.6315 17.95 63.6709 17.5024C63.7103 17.0513 63.73 16.4909 63.73 15.8213V10.7402C63.73 10.2246 63.8105 9.65169 63.9717 9.02148H63.8428C63.61 9.49772 62.9064 10.4019 61.7319 11.7339C60.5575 13.0623 59.3257 14.4087 58.0366 15.7729C56.7511 17.1372 55.8703 18.0628 55.394 18.5498C54.7817 19.1908 54.3628 19.6742 54.1372 20L52.644 20.376C52.7765 18.2025 52.8428 17.0513 52.8428 16.9224V9.10742V8.16211C52.8428 7.44238 52.7694 6.88558 52.6226 6.4917C52.4757 6.09424 52.175 5.89551 51.7202 5.89551H51.2583V5.06299ZM83.5063 16.6108H84.3228C84.1258 17.6636 83.7874 18.4603 83.3076 19.001C82.8278 19.5381 82.203 19.8926 81.4331 20.0645C80.6668 20.2399 79.6427 20.3276 78.3608 20.3276C77.0861 20.3276 75.9098 20.1307 74.832 19.7368C73.7542 19.3429 72.8215 18.7861 72.0337 18.0664C71.2495 17.3431 70.6479 16.4998 70.229 15.5366C69.8101 14.5734 69.6006 13.5314 69.6006 12.4106C69.6006 11.118 69.8727 9.8916 70.417 8.73145C70.9648 7.56771 71.8475 6.61344 73.0649 5.86865C74.286 5.12386 75.8454 4.75146 77.7432 4.75146C78.3053 4.75146 78.7583 4.77116 79.1021 4.81055C79.4494 4.84635 79.8021 4.90186 80.1602 4.97705C80.5218 5.04867 80.8405 5.10238 81.1162 5.13818C81.3919 5.17399 81.7715 5.19189 82.2549 5.19189C82.9245 5.19189 83.467 5.16325 83.8823 5.10596C83.7892 5.70036 83.7301 6.34489 83.7051 7.03955C83.6908 7.68766 83.6836 8.34115 83.6836 9H82.8242C82.8242 8.28027 82.6237 7.66976 82.2227 7.16846C81.8252 6.66715 81.2952 6.29476 80.6328 6.05127C79.9704 5.8042 79.256 5.68066 78.4897 5.68066C77.4155 5.68066 76.4434 5.93848 75.5732 6.4541C74.7031 6.96615 74.0174 7.71094 73.5161 8.68848C73.0184 9.66602 72.7695 10.819 72.7695 12.1475C72.7695 13.6764 73.0649 14.9888 73.6558 16.0845C74.2466 17.1802 75.0057 18.0073 75.9331 18.5659C76.8641 19.1245 77.8112 19.4038 78.7744 19.4038C79.6947 19.4038 80.6203 19.1353 81.5513 18.5981C82.4858 18.061 83.1375 17.3986 83.5063 16.6108ZM90.9775 5.92236H89.2158C88.4495 5.92236 87.8068 6.11214 87.2876 6.4917C86.772 6.86768 86.3656 7.59456 86.0684 8.67236H85.2358C85.2752 8.37158 85.3092 8.1263 85.3379 7.93652C85.3701 7.74674 85.4023 7.53727 85.4346 7.30811C85.5993 6.28402 85.7085 5.4318 85.7622 4.75146C85.884 4.76221 86.0218 4.77474 86.1758 4.78906C86.3298 4.7998 86.4837 4.81234 86.6377 4.82666C86.7917 4.8374 87.0065 4.8571 87.2822 4.88574C88.1953 4.97526 89.214 5.02718 90.3384 5.0415C90.8325 5.0415 91.2729 5.04508 91.6597 5.05225C92.0464 5.05941 92.2881 5.06299 92.3848 5.06299C93.86 5.06299 95.6719 4.98958 97.8203 4.84277C98.1712 4.83203 98.7137 4.8016 99.4478 4.75146C99.3761 5.62516 99.2437 6.53467 99.0503 7.47998C99.0396 7.53011 98.9661 7.92757 98.8301 8.67236H97.9707C98.0459 8.24984 98.0835 7.91862 98.0835 7.67871C98.0835 7.15234 97.9116 6.72803 97.5679 6.40576C97.2277 6.0835 96.5492 5.92236 95.5322 5.92236H93.792V15.3379C93.792 16.5518 93.86 17.4935 93.9961 18.1631C94.1357 18.8291 94.4777 19.1621 95.022 19.1621H95.4839V20H94.6729C94.4473 20 94.1393 19.9481 93.749 19.8442C93.3086 19.7726 92.8538 19.7368 92.3848 19.7368C91.9157 19.7368 91.4609 19.7726 91.0205 19.8442C90.6302 19.9481 90.3223 20 90.0967 20H89.2158V19.1621H89.6777C90.2435 19.1621 90.6016 18.7879 90.752 18.0396C90.9023 17.2876 90.9775 16.3942 90.9775 15.3594V5.92236ZM100.629 5.06299H101.312C101.616 5.06299 102.026 5.09342 102.542 5.1543C103.057 5.21159 103.748 5.24023 104.615 5.24023C106.738 5.24023 108.425 5.20264 109.674 5.12744C109.839 5.12028 109.957 5.11491 110.029 5.11133C110.1 5.10417 110.342 5.08805 110.754 5.06299C110.632 5.77913 110.469 6.48275 110.265 7.17383C110.211 7.39225 110.149 7.64648 110.077 7.93652C110.006 8.22656 109.952 8.44857 109.916 8.60254H109.078C109.153 7.99023 109.191 7.62321 109.191 7.50146C109.191 6.65283 108.677 6.22852 107.649 6.22852H105.141V11.75H106.903C107.429 11.75 107.841 11.7142 108.138 11.6426C108.435 11.571 108.663 11.4134 108.82 11.1699C108.978 10.9264 109.057 10.5487 109.057 10.0366H109.895C109.644 11.4761 109.519 12.5163 109.519 13.1572V14.6558H108.729C108.758 14.5233 108.772 14.3389 108.772 14.1025C108.772 13.1501 108.251 12.6738 107.209 12.6738H105.141V16.2617C105.141 17.0459 105.191 17.6349 105.292 18.0288C105.392 18.4227 105.54 18.6948 105.737 18.8452C105.938 18.9956 106.215 19.0941 106.57 19.1406C106.885 19.1872 107.164 19.2104 107.408 19.2104C107.676 19.2104 107.956 19.1872 108.246 19.1406C108.811 19.0618 109.304 18.8488 109.723 18.5015C110.142 18.1506 110.485 17.5275 110.754 16.6323H111.543C111.486 17.8426 111.302 18.6984 110.99 19.1997C110.679 19.701 110.276 20.0125 109.782 20.1343C109.649 20.1629 109.452 20.1772 109.191 20.1772C108.983 20.1772 108.69 20.1629 108.31 20.1343C108.07 20.1128 107.841 20.0949 107.623 20.0806C107.404 20.0662 106.951 20.0322 106.264 19.9785C105.866 19.9535 105.533 19.9338 105.265 19.9194C104.996 19.9051 104.729 19.8944 104.464 19.8872C104.199 19.88 103.927 19.8729 103.648 19.8657H102.391C102.323 19.8729 102.205 19.8908 102.037 19.9194C101.868 19.9445 101.745 19.9606 101.666 19.9678C101.591 19.9749 101.517 19.9785 101.446 19.9785H100.629V19.1406H101.048C101.568 19.1406 101.91 18.8613 102.074 18.3027C102.243 17.7406 102.327 17.0298 102.327 16.1704V9.26318C102.327 7.01807 101.893 5.89551 101.027 5.89551H100.629V5.06299ZM113.139 5.06299H113.842C113.95 5.06299 114.317 5.0988 114.943 5.17041C115.498 5.23128 115.894 5.26172 116.13 5.26172C116.36 5.26172 116.755 5.23128 117.317 5.17041C117.944 5.0988 118.311 5.06299 118.418 5.06299H119.144V5.89551H118.682C118.202 5.89551 117.89 6.10677 117.747 6.5293C117.607 6.95182 117.538 7.54801 117.538 8.31787V9.08594V18.7915C119.682 18.9526 121.032 19.0332 121.587 19.0332C122.769 19.0332 123.816 19.0099 124.729 18.9634V9.08594V8.14062C124.729 7.43164 124.658 6.88021 124.515 6.48633C124.371 6.09245 124.069 5.89551 123.607 5.89551H123.145V5.06299H123.875C123.986 5.06299 124.352 5.0988 124.971 5.17041C125.533 5.23128 125.931 5.26172 126.164 5.26172C126.393 5.26172 126.788 5.23128 127.351 5.17041C127.97 5.0988 128.337 5.06299 128.452 5.06299H129.128V5.89551H128.667C128.201 5.89551 127.898 6.09603 127.759 6.49707C127.619 6.89811 127.549 7.4764 127.549 8.23193V9.08594V16.5034C127.549 17.0978 127.567 17.5597 127.603 17.8892C127.639 18.2186 127.737 18.4889 127.898 18.7002C128.063 18.9079 128.319 19.0117 128.667 19.0117C129.193 19.0117 129.721 18.8936 130.251 18.6572V20.0215C129.832 20.0215 129.528 20.1038 129.338 20.2686C129.148 20.4368 128.948 20.6929 128.736 21.0366C128.156 21.9819 127.65 22.7267 127.216 23.271C126.787 23.8188 126.264 24.2682 125.648 24.6191C125.032 24.9701 124.302 25.1455 123.457 25.1455C122.722 25.1455 122.067 25.0864 121.491 24.9683C120.918 24.8501 120.356 24.5798 119.804 24.1572C120.331 23.9281 120.792 23.6577 121.19 23.3462C121.38 23.7329 121.625 24.0194 121.926 24.2056C122.23 24.3953 122.535 24.4902 122.839 24.4902C123.322 24.4902 123.736 24.3363 124.08 24.0283C124.427 23.7204 124.762 23.3158 125.084 22.8145C125.388 22.3669 125.664 22.007 125.911 21.7349C126.158 21.4663 126.502 21.187 126.942 20.897C127.386 20.6069 127.961 20.3151 128.667 20.0215V19.8228C127.925 19.9338 127.417 20.0036 127.141 20.0322C126.869 20.0609 126.52 20.0806 126.094 20.0913C125.671 20.1021 125.055 20.1164 124.246 20.1343H122.576C121.863 20.1164 120.989 20.0501 119.955 19.9355C118.744 19.8031 117.52 19.7368 116.281 19.7368C115.572 19.7368 115.053 19.7798 114.723 19.8657C114.261 19.9696 113.937 20.0215 113.751 20.0215H113.069V19.1836H113.509C114.028 19.1836 114.36 18.8846 114.503 18.2866C114.65 17.6851 114.723 16.84 114.723 15.7515V9.08594V8.14062C114.723 7.43164 114.65 6.88021 114.503 6.48633C114.356 6.09245 114.055 5.89551 113.601 5.89551H113.139V5.06299ZM131.594 5.06299H132.319C132.448 5.06299 132.808 5.0988 133.398 5.17041C133.953 5.23128 134.356 5.26172 134.607 5.26172C134.836 5.26172 135.232 5.23128 135.794 5.17041C136.385 5.0988 136.745 5.06299 136.874 5.06299H137.599V5.89551H137.137C136.671 5.89551 136.363 6.09424 136.213 6.4917C136.066 6.88916 135.993 7.46208 135.993 8.21045V9.22021V11.6426C136.641 11.5531 137.25 11.5083 137.819 11.5083C139.061 11.5083 140.085 11.7088 140.891 12.1099C141.697 12.5073 142.277 13.0194 142.631 13.646C142.986 14.269 143.163 14.9351 143.163 15.644C143.163 16.1024 143.117 16.5625 143.023 17.0244C142.93 17.4863 142.717 17.959 142.384 18.4424C142.051 18.9222 141.527 19.325 140.811 19.6509C140.098 19.9731 139.16 20.1343 137.996 20.1343C136.997 20.1343 136.36 20.1128 136.084 20.0698C135.812 20.0269 135.543 19.9606 135.278 19.8711C135.017 19.7816 134.661 19.7368 134.209 19.7368C133.973 19.7368 133.629 19.7887 133.178 19.8926C132.702 19.9642 132.29 20 131.943 20H131.481V19.1621H131.921C132.451 19.1621 132.793 18.8577 132.947 18.249C133.101 17.6403 133.178 16.8454 133.178 15.8643V9.22021V8.2749C133.178 7.49788 133.107 6.90706 132.963 6.50244C132.824 6.09782 132.521 5.89551 132.056 5.89551H131.594V5.06299ZM135.993 12.3892V17.1426C135.993 17.9411 136.104 18.4997 136.326 18.8184C136.548 19.137 136.979 19.2964 137.62 19.2964C138.043 19.2964 138.454 19.1782 138.855 18.9419C139.26 18.702 139.591 18.3332 139.849 17.8354C140.111 17.3341 140.241 16.7129 140.241 15.9717C140.241 15.0192 140.044 14.2762 139.65 13.7427C139.26 13.2056 138.787 12.8421 138.232 12.6523C137.677 12.4626 137.099 12.3677 136.498 12.3677C136.265 12.3677 136.097 12.3748 135.993 12.3892ZM144.463 5.06299H145.188C145.32 5.06299 145.679 5.0988 146.262 5.17041C146.824 5.23128 147.229 5.26172 147.476 5.26172C147.705 5.26172 148.101 5.23128 148.663 5.17041C149.247 5.0988 149.607 5.06299 149.743 5.06299H150.489V5.89551H150.027C149.673 5.89551 149.411 6.0262 149.243 6.2876C149.075 6.54899 148.973 6.87484 148.937 7.26514C148.901 7.65186 148.883 8.18538 148.883 8.86572V16.4336C148.883 18.2526 149.272 19.1621 150.049 19.1621H150.489V20H149.694C149.487 20 149.188 19.9481 148.797 19.8442C148.35 19.7726 147.902 19.7368 147.455 19.7368C147 19.7368 146.552 19.7726 146.112 19.8442C145.722 19.9481 145.421 20 145.209 20H144.415V19.1621H144.855C145.664 19.1621 146.069 18.2526 146.069 16.4336V8.86572C146.069 8.18538 146.051 7.65186 146.015 7.26514C145.979 6.87484 145.877 6.54899 145.709 6.2876C145.541 6.0262 145.279 5.89551 144.925 5.89551H144.463V5.06299ZM153.395 5.89551V5.06299H153.857C153.968 5.06299 154.125 5.07194 154.33 5.08984C154.534 5.10775 154.684 5.12028 154.781 5.12744C154.867 5.13818 155.064 5.16325 155.372 5.20264C155.68 5.24202 155.928 5.26172 156.118 5.26172C156.376 5.26172 156.546 5.25635 156.628 5.24561C156.714 5.23128 156.831 5.20622 156.978 5.17041C157.128 5.13102 157.28 5.10417 157.434 5.08984C157.588 5.07194 157.84 5.06299 158.191 5.06299H158.675V5.89551H158.363C158.084 5.89551 157.81 5.94027 157.542 6.02979C157.277 6.11572 156.915 6.31803 156.457 6.63672C155.998 6.95182 155.402 7.43701 154.668 8.09229C153.934 8.74756 152.965 9.66602 151.762 10.8477C151.365 11.2451 151.087 11.5101 150.93 11.6426C151.56 11.861 152.129 12.1994 152.638 12.6577C153.146 13.116 153.639 13.68 154.115 14.3496C154.591 15.0192 155.282 16.0522 156.188 17.4487C156.585 18.061 156.89 18.4961 157.101 18.7539C157.312 19.0117 157.565 19.1406 157.858 19.1406C158.166 19.1406 158.585 19.0314 159.115 18.813V19.6724C158.882 19.7297 158.655 19.8031 158.433 19.8926C157.964 20.0537 157.486 20.1343 156.999 20.1343C156.415 20.1343 155.912 20.0107 155.49 19.7637C155.067 19.5166 154.698 19.2015 154.383 18.8184C154.068 18.4352 153.606 17.8247 152.998 16.9868C151.673 15.1535 150.441 13.5833 149.302 12.2764C149.707 11.861 150.135 11.4134 150.586 10.9336C151.037 10.4502 151.367 10.1011 151.574 9.88623C151.782 9.67139 152.036 9.4279 152.337 9.15576C152.956 8.59717 153.427 8.14421 153.75 7.79688C154.072 7.44596 154.283 7.05566 154.383 6.62598C154.383 6.139 154.215 5.89551 153.878 5.89551H153.395ZM160.27 5.06299H160.974C161.081 5.06299 161.448 5.0988 162.075 5.17041C162.63 5.23128 163.025 5.26172 163.262 5.26172C163.491 5.26172 163.887 5.23128 164.449 5.17041C165.075 5.0988 165.442 5.06299 165.55 5.06299H166.275V5.89551H165.813C165.333 5.89551 165.022 6.10856 164.878 6.53467C164.739 6.96077 164.669 7.5695 164.669 8.36084V9.15576V14.2368C164.669 14.8849 164.581 15.8016 164.406 16.9868H164.604C165.066 16.2707 166.078 15.0747 167.639 13.3989C168.323 12.6541 169.082 11.7948 169.917 10.8208C170.751 9.84326 171.569 8.8514 172.371 7.84521C173.173 6.83545 173.905 5.87044 174.568 4.9502C174.915 4.88574 175.289 4.84277 175.69 4.82129C175.601 5.91699 175.556 6.90706 175.556 7.7915V15.8643C175.556 16.584 175.578 17.1694 175.621 17.6206C175.664 18.0718 175.769 18.4424 175.938 18.7324C176.106 19.0189 176.36 19.1621 176.7 19.1621H177.162V20H176.416C176.204 20 175.903 19.9481 175.513 19.8442C175.073 19.7726 174.618 19.7368 174.149 19.7368C173.712 19.7368 173.273 19.7726 172.833 19.8442C172.432 19.9481 172.131 20 171.931 20H171.114V19.1621H171.576C171.934 19.1621 172.197 18.9974 172.366 18.668C172.538 18.3385 172.643 17.95 172.683 17.5024C172.722 17.0513 172.742 16.4909 172.742 15.8213V10.7402C172.742 10.2246 172.822 9.65169 172.983 9.02148H172.854C172.622 9.49772 171.918 10.4019 170.744 11.7339C169.569 13.0623 168.337 14.4087 167.048 15.7729C165.763 17.1372 164.882 18.0628 164.406 18.5498C163.793 19.1908 163.375 19.6742 163.149 20L161.656 20.376C161.788 18.2025 161.854 17.0513 161.854 16.9224V9.10742V8.16211C161.854 7.44238 161.781 6.88558 161.634 6.4917C161.487 6.09424 161.187 5.89551 160.732 5.89551H160.27V5.06299ZM178.682 5.06299H179.386C179.493 5.06299 179.86 5.0988 180.487 5.17041C181.042 5.23128 181.438 5.26172 181.674 5.26172C181.903 5.26172 182.299 5.23128 182.861 5.17041C183.487 5.0988 183.854 5.06299 183.962 5.06299H184.687V5.89551H184.225C183.745 5.89551 183.434 6.10856 183.291 6.53467C183.151 6.96077 183.081 7.5695 183.081 8.36084V9.15576V14.2368C183.081 14.8849 182.993 15.8016 182.818 16.9868H183.017C183.479 16.2707 184.49 15.0747 186.051 13.3989C186.735 12.6541 187.494 11.7948 188.329 10.8208C189.163 9.84326 189.981 8.8514 190.783 7.84521C191.585 6.83545 192.318 5.87044 192.98 4.9502C193.327 4.88574 193.701 4.84277 194.103 4.82129C194.013 5.91699 193.968 6.90706 193.968 7.7915V15.8643C193.968 16.584 193.99 17.1694 194.033 17.6206C194.076 18.0718 194.181 18.4424 194.35 18.7324C194.518 19.0189 194.772 19.1621 195.112 19.1621H195.574V20H194.828C194.616 20 194.316 19.9481 193.925 19.8442C193.485 19.7726 193.03 19.7368 192.561 19.7368C192.124 19.7368 191.686 19.7726 191.245 19.8442C190.844 19.9481 190.543 20 190.343 20H189.526V19.1621H189.988C190.346 19.1621 190.61 18.9974 190.778 18.668C190.95 18.3385 191.055 17.95 191.095 17.5024C191.134 17.0513 191.154 16.4909 191.154 15.8213V10.7402C191.154 10.2246 191.234 9.65169 191.396 9.02148H191.267C191.034 9.49772 190.33 10.4019 189.156 11.7339C187.981 13.0623 186.75 14.4087 185.46 15.7729C184.175 17.1372 183.294 18.0628 182.818 18.5498C182.206 19.1908 181.787 19.6742 181.561 20L180.068 20.376C180.2 18.2025 180.267 17.0513 180.267 16.9224V9.10742V8.16211C180.267 7.44238 180.193 6.88558 180.046 6.4917C179.9 6.09424 179.599 5.89551 179.144 5.89551H178.682V5.06299ZM186.25 1.01318V2.2002C186.25 2.52604 186.388 2.78385 186.664 2.97363C186.939 3.16341 187.242 3.2583 187.571 3.2583C187.99 3.2583 188.443 3.10254 188.93 2.79102C189.417 2.47949 189.865 1.88688 190.273 1.01318C190.534 1.24951 190.821 1.47689 191.132 1.69531C190.502 2.51888 189.868 3.12939 189.231 3.52686C188.594 3.92432 188.028 4.1696 187.534 4.2627C187.04 4.35579 186.524 4.40234 185.987 4.40234C184.995 4.40234 184.313 3.80078 183.94 2.59766C184.721 2.20378 185.41 1.67562 186.008 1.01318H186.25ZM64.2832 33.063H65.0083C65.1408 33.063 65.4989 33.0988 66.0825 33.1704C66.6447 33.2313 67.0493 33.2617 67.2964 33.2617C67.5256 33.2617 67.9212 33.2313 68.4834 33.1704C69.0671 33.0988 69.4269 33.063 69.563 33.063H70.3096V33.8955H69.8477C69.4932 33.8955 69.2318 34.0262 69.0635 34.2876C68.8952 34.549 68.7931 34.8748 68.7573 35.2651C68.7215 35.6519 68.7036 36.1854 68.7036 36.8657V44.4336C68.7036 46.2526 69.0921 47.1621 69.8691 47.1621H70.3096V48H69.5146C69.307 48 69.008 47.9481 68.6177 47.8442C68.1701 47.7726 67.7225 47.7368 67.2749 47.7368C66.8201 47.7368 66.3726 47.7726 65.9321 47.8442C65.5418 47.9481 65.241 48 65.0298 48H64.2349V47.1621H64.6753C65.4845 47.1621 65.8892 46.2526 65.8892 44.4336V36.8657C65.8892 36.1854 65.8713 35.6519 65.8354 35.2651C65.7996 34.8748 65.6976 34.549 65.5293 34.2876C65.361 34.0262 65.0996 33.8955 64.7451 33.8955H64.2832V33.063ZM73.2153 33.8955V33.063H73.6772C73.7882 33.063 73.9458 33.0719 74.1499 33.0898C74.354 33.1077 74.5044 33.1203 74.6011 33.1274C74.687 33.1382 74.884 33.1632 75.1919 33.2026C75.4998 33.242 75.7487 33.2617 75.9385 33.2617C76.1963 33.2617 76.3664 33.2563 76.4487 33.2456C76.5347 33.2313 76.651 33.2062 76.7979 33.1704C76.9482 33.131 77.1004 33.1042 77.2544 33.0898C77.4084 33.0719 77.6608 33.063 78.0117 33.063H78.4951V33.8955H78.1836C77.9043 33.8955 77.6304 33.9403 77.3618 34.0298C77.0968 34.1157 76.7352 34.318 76.2769 34.6367C75.8185 34.9518 75.2223 35.437 74.4883 36.0923C73.7542 36.7476 72.7856 37.666 71.5825 38.8477C71.1851 39.2451 70.9076 39.5101 70.75 39.6426C71.3802 39.861 71.9495 40.1994 72.458 40.6577C72.9665 41.116 73.4588 41.68 73.9351 42.3496C74.4113 43.0192 75.1024 44.0522 76.0083 45.4487C76.4058 46.061 76.7101 46.4961 76.9214 46.7539C77.1326 47.0117 77.3851 47.1406 77.6787 47.1406C77.9867 47.1406 78.4056 47.0314 78.9355 46.813V47.6724C78.7028 47.7297 78.4754 47.8031 78.2534 47.8926C77.7843 48.0537 77.3063 48.1343 76.8193 48.1343C76.2357 48.1343 75.7326 48.0107 75.3101 47.7637C74.8875 47.5166 74.5187 47.2015 74.2036 46.8184C73.8885 46.4352 73.4266 45.8247 72.8179 44.9868C71.493 43.1535 70.2612 41.5833 69.1226 40.2764C69.5272 39.861 69.9551 39.4134 70.4062 38.9336C70.8574 38.4502 71.1868 38.1011 71.3945 37.8862C71.6022 37.6714 71.8564 37.4279 72.1572 37.1558C72.7767 36.5972 73.2476 36.1442 73.5698 35.7969C73.8921 35.446 74.1034 35.0557 74.2036 34.626C74.2036 34.139 74.0353 33.8955 73.6987 33.8955H73.2153ZM80.0903 40.2119C80.0903 39.0768 80.298 38.0492 80.7134 37.1289C81.1323 36.2051 81.707 35.4191 82.4375 34.771C83.1715 34.1229 84.0112 33.6287 84.9565 33.2886C85.9054 32.9484 86.9009 32.7783 87.9429 32.7783C88.9455 32.7783 89.8908 32.9717 90.7788 33.3584C91.6704 33.7415 92.4492 34.2876 93.1152 34.9966C93.7848 35.7056 94.3076 36.556 94.6836 37.5479C95.0596 38.5361 95.2476 39.6068 95.2476 40.7598C95.2476 42.346 94.8877 43.7139 94.168 44.8633C93.4482 46.0091 92.5208 46.8739 91.3857 47.4575C90.2542 48.0376 89.0923 48.3276 87.8999 48.3276C86.9009 48.3276 85.9341 48.1432 84.9995 47.7744C84.0685 47.402 83.2306 46.8613 82.4858 46.1523C81.741 45.4398 81.1556 44.5786 80.7295 43.5688C80.3034 42.5555 80.0903 41.4365 80.0903 40.2119ZM83.1895 40.3677C83.1895 41.7642 83.4276 42.9977 83.9038 44.0684C84.3836 45.139 85.0049 45.9626 85.7676 46.5391C86.5303 47.1156 87.3145 47.4038 88.1201 47.4038C88.7861 47.4038 89.4253 47.1818 90.0376 46.7378C90.6535 46.2902 91.1584 45.5615 91.5522 44.5518C91.9461 43.542 92.1431 42.2565 92.1431 40.6953C92.1431 39.3991 91.9282 38.2157 91.4985 37.145C91.0724 36.0744 90.4977 35.2329 89.7744 34.6206C89.0511 34.0083 88.2723 33.7021 87.438 33.7021C86.7612 33.7021 86.0988 33.9206 85.4507 34.3574C84.8026 34.7943 84.2637 35.514 83.834 36.5166C83.4043 37.5192 83.1895 38.8029 83.1895 40.3677ZM96.0371 48V47.1621H96.6333C97.1167 47.1621 97.5679 46.8936 97.9868 46.3564C98.4093 45.8158 98.7799 45.1641 99.0986 44.4014C99.4173 43.6387 99.7539 42.7041 100.108 41.5977C100.463 40.4912 100.667 39.861 100.721 39.707C101.315 38.0312 101.757 36.7476 102.047 35.856C102.337 34.9608 102.615 33.9707 102.88 32.8857C103.481 32.8141 104.045 32.7192 104.572 32.6011C105.077 34.4451 105.716 36.4325 106.489 38.563C106.876 39.6014 107.184 40.459 107.413 41.1357C107.95 42.6683 108.353 43.7819 108.622 44.4766C108.894 45.1712 109.209 45.7925 109.567 46.3403C109.929 46.8882 110.303 47.1621 110.689 47.1621H111.151V48H110.426C110.283 48 110.011 47.9552 109.61 47.8657C109.202 47.7798 108.725 47.7368 108.181 47.7368C107.59 47.7368 107.105 47.7816 106.726 47.8711C106.346 47.957 106.083 48 105.936 48H104.813V47.1621H105.104C105.881 47.1621 106.269 46.8327 106.269 46.1738C106.269 45.9769 106.239 45.7692 106.178 45.5508C106.12 45.3288 106.038 45.0781 105.931 44.7988C105.827 44.516 105.77 44.3584 105.759 44.3262L103.229 37.043C103.197 36.9463 103.165 36.7941 103.132 36.5864C103.1 36.3752 103.075 36.2266 103.057 36.1406H102.88C102.844 36.71 102.697 37.3921 102.439 38.187L100.216 45.207C100.083 45.6367 100.017 45.9733 100.017 46.2168C100.017 46.847 100.304 47.1621 100.876 47.1621H101.36V48H100.989C100.674 48 100.348 47.957 100.012 47.8711C99.6751 47.7816 99.3117 47.7368 98.9214 47.7368C98.5132 47.7368 98.0889 47.7816 97.6484 47.8711C97.2116 47.957 96.9162 48 96.7622 48H96.0371ZM112.188 33.063H112.87C113.174 33.063 113.584 33.0934 114.1 33.1543C114.616 33.2116 115.307 33.2402 116.173 33.2402C118.297 33.2402 119.983 33.2026 121.233 33.1274C121.398 33.1203 121.516 33.1149 121.587 33.1113C121.659 33.1042 121.901 33.0881 122.312 33.063C122.191 33.7791 122.028 34.4827 121.824 35.1738C121.77 35.3923 121.707 35.6465 121.636 35.9365C121.564 36.2266 121.51 36.4486 121.475 36.6025H120.637C120.712 35.9902 120.75 35.6232 120.75 35.5015C120.75 34.6528 120.236 34.2285 119.208 34.2285H116.7V39.75H118.461C118.988 39.75 119.4 39.7142 119.697 39.6426C119.994 39.571 120.221 39.4134 120.379 39.1699C120.536 38.9264 120.615 38.5487 120.615 38.0366H121.453C121.202 39.4761 121.077 40.5163 121.077 41.1572V42.6558H120.288C120.316 42.5233 120.331 42.3389 120.331 42.1025C120.331 41.1501 119.81 40.6738 118.768 40.6738H116.7V44.2617C116.7 45.0459 116.75 45.6349 116.85 46.0288C116.95 46.4227 117.099 46.6948 117.296 46.8452C117.496 46.9956 117.774 47.0941 118.128 47.1406C118.444 47.1872 118.723 47.2104 118.966 47.2104C119.235 47.2104 119.514 47.1872 119.804 47.1406C120.37 47.0618 120.862 46.8488 121.281 46.5015C121.7 46.1506 122.044 45.5275 122.312 44.6323H123.102C123.045 45.8426 122.86 46.6984 122.549 47.1997C122.237 47.701 121.834 48.0125 121.34 48.1343C121.208 48.1629 121.011 48.1772 120.75 48.1772C120.542 48.1772 120.248 48.1629 119.869 48.1343C119.629 48.1128 119.4 48.0949 119.181 48.0806C118.963 48.0662 118.51 48.0322 117.822 47.9785C117.425 47.9535 117.092 47.9338 116.823 47.9194C116.555 47.9051 116.288 47.8944 116.023 47.8872C115.758 47.88 115.486 47.8729 115.207 47.8657H113.95C113.882 47.8729 113.764 47.8908 113.595 47.9194C113.427 47.9445 113.303 47.9606 113.225 47.9678C113.149 47.9749 113.076 47.9785 113.004 47.9785H112.188V47.1406H112.607C113.126 47.1406 113.468 46.8613 113.633 46.3027C113.801 45.7406 113.885 45.0298 113.885 44.1704V37.2632C113.885 35.0181 113.452 33.8955 112.585 33.8955H112.188V33.063ZM124.762 51.6738H123.639C123.961 49.9443 124.123 48.2435 124.123 46.5713C124.584 46.6895 125.098 46.7485 125.664 46.7485C125.825 46.7485 125.983 46.6429 126.137 46.4316C126.291 46.2204 126.468 45.8641 126.668 45.3628C126.869 44.8615 127.073 44.2957 127.281 43.6655C127.492 43.0353 127.972 41.5833 128.72 39.3096C129.623 36.5882 130.276 34.4469 130.681 32.8857C131.347 32.8285 132.043 32.7264 132.77 32.5796C133.278 34.7101 133.973 37.1504 134.854 39.9004C135.738 42.6504 136.437 44.609 136.949 45.7764C137.117 46.1344 137.292 46.394 137.475 46.5552C137.661 46.7127 137.955 46.7915 138.356 46.7915C138.71 46.7915 139.165 46.7181 139.72 46.5713C139.462 48.2757 139.095 49.9766 138.619 51.6738H137.566C137.771 51.0221 137.873 50.186 137.873 49.1655C137.873 48.675 137.686 48.3581 137.314 48.2148C136.942 48.0716 136.46 48 135.869 48C135.518 48 134.906 48.0143 134.032 48.043C133.159 48.0716 132.43 48.0859 131.846 48.0859C130.16 48.0859 128.833 48.0645 127.866 48.0215C127.805 48.0215 127.719 48.0179 127.608 48.0107C127.497 48.0036 127.413 48 127.356 48C126.851 48 126.439 48.0841 126.121 48.2524C125.806 48.4207 125.533 48.7681 125.304 49.2944C125.079 49.8244 124.898 50.6175 124.762 51.6738ZM131.1 35.5498H130.922C130.783 36.2122 130.509 37.2542 130.101 38.6758C129.692 40.0938 128.969 42.2493 127.931 45.1426C127.82 45.4505 127.732 45.694 127.667 45.873C127.603 46.0521 127.485 46.3797 127.313 46.856C128.609 46.9276 129.812 46.9634 130.922 46.9634C131.821 46.9634 132.987 46.9276 134.419 46.856C134.337 46.6232 134.278 46.4585 134.242 46.3618C134.206 46.2616 134.149 46.104 134.07 45.8892C133.991 45.6707 133.918 45.472 133.85 45.293C133.481 44.2617 133.048 42.9637 132.55 41.3989C131.644 38.5522 131.16 36.6025 131.1 35.5498ZM145.607 33.063V33.8955H145.124C144.952 33.8955 144.808 33.9546 144.694 34.0728C144.583 34.1873 144.527 34.327 144.527 34.4917C144.527 34.6958 144.608 34.8784 144.769 35.0396L146.332 36.7583C146.626 37.077 146.973 37.4422 147.374 37.854C147.775 38.2658 148.139 38.6418 148.464 38.9819C148.776 39.3042 149.195 39.7285 149.721 40.2549C148.661 41.4437 147.422 43.021 146.004 44.9868C145.46 45.7495 145.013 46.3385 144.662 46.7539C144.314 47.1657 143.924 47.4987 143.491 47.7529C143.061 48.0072 142.563 48.1343 141.998 48.1343C141.797 48.1343 141.584 48.1128 141.358 48.0698C141.133 48.0304 140.875 47.9678 140.585 47.8818C140.299 47.7959 140.066 47.7261 139.887 47.6724V46.7915C140.352 47.0243 140.771 47.1406 141.144 47.1406C141.469 47.1406 141.786 46.9491 142.094 46.5659C142.402 46.1828 142.834 45.5293 143.389 44.6055C143.947 43.6816 144.466 42.8921 144.946 42.2368C145.43 41.578 145.995 40.9836 146.644 40.4536C147.091 40.0776 147.567 39.8073 148.072 39.6426C147.822 39.4349 147.535 39.1699 147.213 38.8477C146.042 37.6803 145.09 36.7637 144.355 36.0977C143.621 35.4316 143.031 34.9411 142.583 34.626C142.135 34.3073 141.779 34.1068 141.514 34.0244C141.253 33.9385 140.959 33.8955 140.633 33.8955H140.327V33.063H140.811C141.136 33.063 141.376 33.0719 141.53 33.0898C141.688 33.1042 141.849 33.131 142.014 33.1704C142.178 33.2062 142.3 33.2313 142.379 33.2456C142.458 33.2563 142.624 33.2617 142.878 33.2617C143.065 33.2617 143.301 33.2438 143.587 33.208C143.877 33.1686 144.082 33.1418 144.2 33.1274C144.293 33.1203 144.45 33.1077 144.672 33.0898C144.894 33.0719 145.059 33.063 145.167 33.063H145.607ZM157.112 33.063H157.552C157.667 33.063 157.832 33.0719 158.046 33.0898C158.261 33.1077 158.419 33.1203 158.519 33.1274C158.623 33.1382 158.822 33.1632 159.115 33.2026C159.409 33.242 159.651 33.2617 159.84 33.2617C160.095 33.2617 160.266 33.2563 160.356 33.2456C160.445 33.2313 160.569 33.2062 160.727 33.1704C160.888 33.131 161.042 33.1042 161.188 33.0898C161.339 33.0719 161.579 33.063 161.908 33.063H162.392V33.8955H162.085C161.763 33.8955 161.471 33.9385 161.21 34.0244C160.949 34.1068 160.59 34.3091 160.136 34.6313C159.685 34.95 159.099 35.437 158.379 36.0923C157.66 36.744 156.702 37.6624 155.506 38.8477C155.184 39.1699 154.897 39.4349 154.646 39.6426C155.151 39.8073 155.629 40.0776 156.081 40.4536C156.736 40.9871 157.312 41.5977 157.81 42.2852C158.311 42.9691 158.836 43.7658 159.384 44.6753C159.932 45.5848 160.352 46.224 160.646 46.5928C160.943 46.958 161.255 47.1406 161.581 47.1406C161.949 47.1406 162.367 47.0243 162.832 46.7915V47.6724C162.56 47.7511 162.3 47.8281 162.053 47.9033C161.81 47.9749 161.575 48.0304 161.35 48.0698C161.128 48.1128 160.918 48.1343 160.721 48.1343C160.155 48.1343 159.656 48.0072 159.223 47.7529C158.793 47.4987 158.403 47.1657 158.052 46.7539C157.704 46.3385 157.259 45.7495 156.714 44.9868C155.296 43.021 154.057 41.4437 152.998 40.2549C153.499 39.7572 153.918 39.3328 154.254 38.9819C154.831 38.3875 155.275 37.9292 155.586 37.6069C155.902 37.2811 156.168 36.9982 156.387 36.7583L157.95 35.0396C158.111 34.882 158.191 34.6994 158.191 34.4917C158.191 34.327 158.134 34.1873 158.02 34.0728C157.909 33.9546 157.767 33.8955 157.595 33.8955H157.112V33.063ZM148.599 33.063H149.324C149.553 33.063 149.861 33.0988 150.248 33.1704C150.62 33.2313 150.994 33.2617 151.37 33.2617C151.76 33.2617 152.127 33.2313 152.471 33.1704C152.858 33.0988 153.166 33.063 153.395 33.063H154.12V33.8955H153.658C153.297 33.8955 153.03 34.0316 152.858 34.3037C152.69 34.5723 152.582 34.9232 152.536 35.3564C152.493 35.7897 152.471 36.3662 152.471 37.0859V43.2896V43.7783C152.471 44.7451 152.548 45.5508 152.702 46.1953C152.856 46.8398 153.196 47.1621 153.723 47.1621H154.163V48H153.374C153.209 48 152.915 47.9481 152.493 47.8442C152.199 47.7726 151.825 47.7368 151.37 47.7368C150.901 47.7368 150.52 47.7726 150.226 47.8442C149.804 47.9481 149.51 48 149.345 48H148.556V47.1621H148.996C149.522 47.1621 149.863 46.8398 150.017 46.1953C150.171 45.5508 150.248 44.7451 150.248 43.7783V43.2896V37.0859C150.248 35.9938 150.178 35.1899 150.038 34.6743C149.902 34.1551 149.576 33.8955 149.061 33.8955H148.599V33.063Z" fill="black"/>
<path d="M32.6699 75H31.8042C31.7104 75 31.5127 74.9707 31.2109 74.9121C30.9385 74.8623 30.6206 74.8374 30.2573 74.8374C29.8296 74.8374 29.5044 74.8623 29.2817 74.9121C29.0181 74.9707 28.8262 75 28.7061 75H27.8623V74.4595H28.293C28.709 74.4595 28.9814 74.2632 29.1104 73.8706C29.2393 73.478 29.3037 72.8701 29.3037 72.0469C29.3037 71.833 29.2993 71.5884 29.2905 71.313C29.2847 71.0376 29.2817 70.8149 29.2817 70.645V70.1572C29.2817 69.5801 29.2583 69.1509 29.2114 68.8696C29.1646 68.5854 29.0503 68.3701 28.8687 68.2236C28.687 68.0742 28.3999 67.9995 28.0073 67.9995C27.7554 67.9995 27.5503 68.0112 27.3921 68.0347V67.3843H28.0601C28.5728 67.3843 29.1631 67.3315 29.8311 67.2261C30.499 67.1177 31.0732 66.9785 31.5537 66.8086C31.3984 67.7871 31.3018 69.0469 31.2637 70.5879V72.1392C31.2725 72.7104 31.2871 73.1279 31.3076 73.3916C31.3281 73.6553 31.4087 73.8999 31.5493 74.1255C31.6899 74.3481 31.9185 74.4595 32.2349 74.4595H32.6699V75ZM28.7061 63.7148C28.7061 63.3867 28.8218 63.0952 29.0532 62.8403C29.2847 62.5825 29.5952 62.4536 29.9849 62.4536C30.3569 62.4536 30.6572 62.5649 30.8857 62.7876C31.1143 63.0103 31.2285 63.3193 31.2285 63.7148C31.2285 64.1396 31.0981 64.459 30.8374 64.6729C30.5796 64.8867 30.2954 64.9937 29.9849 64.9937C29.6099 64.9937 29.3022 64.8618 29.062 64.5981C28.8247 64.3345 28.7061 64.04 28.7061 63.7148ZM39.7188 72.8203H39.9517C40.0981 72.4102 40.4102 71.7026 40.8877 70.6978C41.6172 69.2271 42.127 68.0024 42.417 67.0239L44.021 66.6108C44.1763 68.3101 44.3359 69.6914 44.5 70.7549C44.667 71.8184 44.8325 72.6182 44.9966 73.1543C45.1636 73.6904 45.3203 74.042 45.4668 74.209C45.6133 74.376 45.7671 74.4595 45.9282 74.4595H46.4688V75H45.8359C45.6191 75 45.313 74.9634 44.9175 74.8901C44.6187 74.8315 44.3433 74.8022 44.0913 74.8022C43.813 74.8022 43.5068 74.8359 43.1729 74.9033C42.8418 74.9678 42.584 75 42.3994 75H41.8062V74.4595H42.0918C42.6074 74.4595 42.8652 74.2441 42.8652 73.8135C42.8652 73.4619 42.8184 72.9814 42.7246 72.3721C42.5195 71.124 42.417 70.0195 42.417 69.0586V68.8608H42.2544C42.0464 69.564 41.6626 70.4648 41.103 71.5635C40.5728 72.5859 40.0747 73.7314 39.6089 75H38.9805C38.6348 74.1123 38.1177 73.002 37.4292 71.6689C36.9868 70.8047 36.6938 70.2217 36.5503 69.9199C36.4097 69.6182 36.2778 69.2651 36.1548 68.8608H35.9746C35.916 69.3062 35.8076 70.0503 35.6494 71.0933C35.5908 71.4565 35.5396 71.7686 35.4956 72.0293C35.4546 72.29 35.4209 72.5449 35.3945 72.7939C35.3711 73.043 35.3594 73.292 35.3594 73.541C35.3594 73.8398 35.4062 74.0684 35.5 74.2266C35.5967 74.3818 35.7065 74.4595 35.8296 74.4595H36.5503V75H36.1372C36.0522 75 35.8296 74.9707 35.4692 74.9121C35.1997 74.8506 34.9536 74.8198 34.731 74.8198C34.4614 74.8198 34.2153 74.8433 33.9927 74.8901C33.9194 74.9048 33.8389 74.9224 33.751 74.9429C33.666 74.9604 33.5898 74.9751 33.5225 74.9868C33.4551 74.9956 33.3965 75 33.3467 75H32.9688V74.4595H33.417C33.7334 74.4595 33.9927 74.2822 34.1948 73.9277C34.3999 73.5732 34.5522 73.1924 34.6519 72.7852C34.7515 72.3779 34.8745 71.8022 35.021 71.0581C35.1821 70.229 35.2964 69.5903 35.3638 69.1421C35.4312 68.6938 35.4956 67.9878 35.5571 67.0239C36.1196 66.9448 36.6484 66.8071 37.1436 66.6108C37.7588 68.3628 38.5322 70.2114 39.4639 72.1567C39.5752 72.3735 39.6602 72.5947 39.7188 72.8203ZM47.1675 73.8486C47.1675 73.4209 47.2861 73.0796 47.5234 72.8247C47.7607 72.5698 48.0376 72.4424 48.354 72.4424C48.6646 72.4424 48.9458 72.5713 49.1978 72.8291C49.4526 73.084 49.5801 73.4238 49.5801 73.8486C49.5801 74.2354 49.4658 74.5635 49.2373 74.833C49.0117 75.0996 48.7173 75.2329 48.354 75.2329C48.0288 75.2329 47.749 75.1113 47.5146 74.8682C47.2832 74.6221 47.1675 74.2822 47.1675 73.8486ZM68.5249 72.2271H69.1929C69.0317 73.0884 68.7549 73.7402 68.3623 74.1826C67.9697 74.6221 67.4585 74.9121 66.8286 75.0527C66.2017 75.1963 65.3638 75.2681 64.3149 75.2681C63.272 75.2681 62.3096 75.1069 61.4277 74.7847C60.5459 74.4624 59.7827 74.0068 59.1382 73.418C58.4966 72.8262 58.0044 72.1362 57.6616 71.3481C57.3188 70.5601 57.1475 69.7075 57.1475 68.7905C57.1475 67.7329 57.3701 66.7295 57.8154 65.7803C58.2637 64.8281 58.9858 64.0474 59.9819 63.438C60.981 62.8286 62.2568 62.5239 63.8096 62.5239C64.2695 62.5239 64.6401 62.54 64.9214 62.5723C65.2056 62.6016 65.4941 62.647 65.7871 62.7085C66.083 62.7671 66.3438 62.811 66.5693 62.8403C66.7949 62.8696 67.1055 62.8843 67.501 62.8843C68.0488 62.8843 68.4927 62.8608 68.8325 62.814C68.7563 63.3003 68.708 63.8276 68.6875 64.396C68.6758 64.9263 68.6699 65.4609 68.6699 66H67.9668C67.9668 65.4111 67.8027 64.9116 67.4746 64.5015C67.1494 64.0913 66.7158 63.7866 66.1738 63.5874C65.6318 63.3853 65.0474 63.2842 64.4204 63.2842C63.5415 63.2842 62.7461 63.4951 62.0342 63.917C61.3223 64.3359 60.7612 64.9453 60.3511 65.7451C59.9438 66.5449 59.7402 67.4883 59.7402 68.5752C59.7402 69.8262 59.9819 70.8999 60.4653 71.7964C60.9487 72.6929 61.5698 73.3696 62.3286 73.8267C63.0903 74.2837 63.8652 74.5122 64.6533 74.5122C65.4062 74.5122 66.1636 74.2925 66.9253 73.853C67.6899 73.4136 68.2231 72.8716 68.5249 72.2271ZM72.9282 69.0762L70.5508 70.0342C70.4922 69.8672 70.4629 69.6812 70.4629 69.4761C70.4629 68.9399 70.7148 68.4697 71.2188 68.0654C71.7227 67.6611 72.3452 67.3535 73.0864 67.1426C73.8276 66.9316 74.5308 66.8262 75.1958 66.8262C75.9634 66.8262 76.4819 67.04 76.7515 67.4678C77.021 67.8955 77.1558 68.354 77.1558 68.8433C77.1558 69.3208 77.1265 69.8496 77.0679 70.4297C77.0122 70.9482 76.9639 71.3701 76.9229 71.6953C76.8848 72.0176 76.8569 72.2461 76.8394 72.3809C76.8247 72.5127 76.8101 72.6475 76.7954 72.7852C76.7837 72.9199 76.7778 73.0342 76.7778 73.1279C76.7778 73.3975 76.8335 73.6304 76.9448 73.8267C77.0562 74.02 77.1807 74.1167 77.3184 74.1167C77.4824 74.1167 77.7241 73.998 78.0435 73.7607C78.3628 73.5205 78.6074 73.292 78.7773 73.0752V73.9761C78.165 74.4741 77.6772 74.8198 77.314 75.0132C76.9536 75.2095 76.6372 75.3076 76.3647 75.3076C75.9341 75.3076 75.6001 75.1714 75.3628 74.8989C75.1255 74.6235 74.9673 74.3159 74.8882 73.9761C74.4019 74.4448 73.9272 74.7847 73.4644 74.9956C73.0015 75.2036 72.4976 75.3076 71.9526 75.3076C71.5073 75.3076 71.1411 75.2168 70.854 75.0352C70.5698 74.8564 70.3633 74.6382 70.2344 74.3804C70.1084 74.1226 70.0454 73.8735 70.0454 73.6333C70.0454 73.1763 70.2446 72.7544 70.6431 72.3677C71.0444 71.978 71.6216 71.6558 72.3745 71.4009C73.1274 71.1431 74.0137 70.9746 75.0332 70.8955C75.0684 70.5352 75.0859 70.1748 75.0859 69.8145C75.0859 68.3643 74.6787 67.6392 73.8643 67.6392C73.5889 67.6392 73.3486 67.7329 73.1436 67.9204C72.9385 68.105 72.8359 68.3408 72.8359 68.6279C72.8359 68.7568 72.8667 68.9062 72.9282 69.0762ZM74.998 71.4536C74.6611 71.4741 74.2949 71.5327 73.8994 71.6294C73.5068 71.7231 73.1509 71.896 72.8315 72.1479C72.5122 72.3999 72.3525 72.7383 72.3525 73.1631C72.3525 73.5088 72.4404 73.7637 72.6162 73.9277C72.7949 74.0918 73.0117 74.1738 73.2666 74.1738C73.5977 74.1738 73.895 74.0405 74.1587 73.7739C74.4253 73.5073 74.6318 73.1646 74.7783 72.7456C74.9248 72.3237 74.998 71.8931 74.998 71.4536ZM78.7905 74.4595H79.0981C79.2769 74.4595 79.4321 74.4199 79.564 74.3408C79.6958 74.2588 79.8086 74.1475 79.9023 74.0068C79.9961 73.8633 80.0825 73.6978 80.1616 73.5103C80.2407 73.3198 80.3477 73.0605 80.4824 72.7324C80.6084 72.4248 80.7739 72.022 80.979 71.5239C81.187 71.0229 81.3628 70.5894 81.5063 70.2231C81.6528 69.854 81.8359 69.3662 82.0557 68.7598C82.2754 68.1533 82.4834 67.5571 82.6797 66.9712C83.2627 66.8423 83.7666 66.6738 84.1914 66.4658L84.6045 67.7271L86.4414 72.5171C86.6992 73.1616 86.9365 73.6465 87.1533 73.9717C87.3701 74.2969 87.6191 74.4595 87.9004 74.4595H88.3486V75H87.9355C87.8389 75 87.5811 74.9707 87.1621 74.9121C86.8105 74.8506 86.4927 74.8198 86.2085 74.8198C85.8569 74.8198 85.6094 74.8418 85.4658 74.8857C85.3223 74.9297 85.2007 74.9604 85.1011 74.978C85.0015 74.9927 84.6631 75 84.0859 75H83.7432V74.4595H84.2485C84.3628 74.4595 84.4624 74.395 84.5474 74.2661C84.6353 74.1372 84.6792 73.9731 84.6792 73.7739C84.6792 73.5396 84.6426 73.3301 84.5693 73.1455L83.0576 68.7378L82.9873 68.2324V68.0698H82.8423C82.7749 68.6147 82.583 69.2988 82.2666 70.1221C81.4873 72.1875 81.0977 73.3579 81.0977 73.6333C81.0977 74.1841 81.2295 74.4595 81.4932 74.4595H82.0513V75H81.5986C81.5576 75 81.5063 74.9956 81.4448 74.9868C81.3862 74.9751 81.3276 74.9604 81.269 74.9429C81.2104 74.9253 81.1475 74.9077 81.0801 74.8901C80.9043 74.8433 80.6992 74.8198 80.4648 74.8198C80.2773 74.8198 80.0195 74.8564 79.6914 74.9297C79.4512 74.9766 79.271 75 79.1509 75H78.7905V74.4595ZM88.8232 67.0635H89.7593C89.9292 67.0635 90.1929 67.0869 90.5503 67.1338C90.8608 67.1807 91.0894 67.2041 91.2358 67.2041C91.3911 67.2041 91.624 67.1807 91.9346 67.1338C92.2979 67.0869 92.563 67.0635 92.73 67.0635H93.666V67.604H93.231C92.8472 67.604 92.5894 67.7358 92.4575 67.9995C92.3257 68.2603 92.2598 68.7393 92.2598 69.4365V70.4648C92.7461 70.3564 93.1958 70.3022 93.6089 70.3022C94.353 70.3022 94.9902 70.4033 95.5205 70.6055C96.0537 70.8047 96.4565 71.0845 96.729 71.4448C97.0015 71.8022 97.1377 72.2139 97.1377 72.6797C97.1377 73.3447 96.9121 73.916 96.4609 74.3936C96.0127 74.8711 95.1279 75.1099 93.8066 75.1099C93.2412 75.1099 92.7563 75.0732 92.3521 75C92.2642 74.9883 92.0986 74.959 91.8555 74.9121C91.6123 74.8623 91.4175 74.8374 91.271 74.8374C90.6265 74.8374 90.2559 74.8652 90.1592 74.9209C90.0625 74.9736 89.8208 75 89.4341 75H88.8232V74.4595H89.3066C89.7285 74.4595 89.9966 74.269 90.1108 73.8882C90.2251 73.5044 90.2822 72.9155 90.2822 72.1216V70.0869C90.2822 69.4248 90.2515 68.9165 90.1899 68.562C90.1284 68.2046 90.0244 67.9556 89.8779 67.8149C89.7344 67.6743 89.5264 67.604 89.2539 67.604H88.8232V67.0635ZM92.2598 70.9658V72.7324C92.2598 73.2217 92.2788 73.5908 92.3169 73.8398C92.3579 74.0889 92.4604 74.2822 92.6245 74.4199C92.7886 74.5547 93.0508 74.6221 93.4111 74.6221C93.8945 74.6221 94.2769 74.458 94.5581 74.1299C94.8394 73.7988 94.98 73.3813 94.98 72.8774C94.98 72.2827 94.8086 71.8066 94.4658 71.4492C94.126 71.0918 93.6909 70.9131 93.1606 70.9131C92.7944 70.9131 92.4941 70.9307 92.2598 70.9658ZM97.9463 67.604V67.0635H98.7021C98.8018 67.0635 99.0786 67.0928 99.5327 67.1514C99.8345 67.1865 100.139 67.2041 100.447 67.2041C100.787 67.2041 101.279 67.1572 101.923 67.0635C102.292 67.002 102.641 66.9712 102.969 66.9712C103.831 66.9712 104.478 67.1587 104.912 67.5337C105.345 67.9087 105.562 68.376 105.562 68.9355C105.562 69.498 105.361 69.9053 104.96 70.1572C104.559 70.4062 104.122 70.5498 103.65 70.5879V70.7329C105.32 70.9292 106.155 71.6616 106.155 72.9302C106.155 73.2905 106.072 73.6318 105.905 73.9541C105.738 74.2764 105.451 74.543 105.043 74.7539C104.636 74.9648 104.1 75.0703 103.435 75.0703C102.773 75.0703 102.215 75.0352 101.761 74.9648C101.31 74.8799 100.812 74.8374 100.267 74.8374C99.8447 74.8374 99.5708 74.8477 99.4448 74.8682C99.3188 74.8857 99.1958 74.9121 99.0757 74.9473C98.9556 74.9824 98.8193 75 98.667 75H97.9463V74.4595H98.3066C99.0039 74.4595 99.3525 73.8662 99.3525 72.6797V69.5112C99.3525 69.0864 99.335 68.7437 99.2998 68.4829C99.2676 68.2192 99.1841 68.0068 99.0493 67.8457C98.9146 67.6846 98.7036 67.604 98.4165 67.604H97.9463ZM101.783 71.2207V70.7153C101.853 70.7271 102.074 70.7329 102.446 70.7329C102.88 70.7329 103.207 70.5674 103.426 70.2363C103.649 69.9053 103.76 69.5127 103.76 69.0586C103.76 68.7158 103.642 68.4185 103.404 68.1665C103.167 67.9116 102.83 67.7842 102.394 67.7842C102.013 67.7842 101.695 67.8076 101.44 67.8545C101.367 69.2285 101.33 69.9727 101.33 70.0869V72.9478C101.33 74.0171 101.636 74.5518 102.249 74.5518C102.697 74.5518 103.103 74.4463 103.466 74.2354C103.829 74.0215 104.011 73.6641 104.011 73.1631C104.011 72.5889 103.885 72.1187 103.633 71.7524C103.384 71.3862 102.994 71.2031 102.464 71.2031C102.115 71.2031 101.888 71.209 101.783 71.2207ZM109.825 69.0762L107.447 70.0342C107.389 69.8672 107.359 69.6812 107.359 69.4761C107.359 68.9399 107.611 68.4697 108.115 68.0654C108.619 67.6611 109.242 67.3535 109.983 67.1426C110.724 66.9316 111.427 66.8262 112.092 66.8262C112.86 66.8262 113.378 67.04 113.648 67.4678C113.917 67.8955 114.052 68.354 114.052 68.8433C114.052 69.3208 114.023 69.8496 113.964 70.4297C113.909 70.9482 113.86 71.3701 113.819 71.6953C113.781 72.0176 113.753 72.2461 113.736 72.3809C113.721 72.5127 113.707 72.6475 113.692 72.7852C113.68 72.9199 113.674 73.0342 113.674 73.1279C113.674 73.3975 113.73 73.6304 113.841 73.8267C113.953 74.02 114.077 74.1167 114.215 74.1167C114.379 74.1167 114.621 73.998 114.94 73.7607C115.259 73.5205 115.504 73.292 115.674 73.0752V73.9761C115.062 74.4741 114.574 74.8198 114.21 75.0132C113.85 75.2095 113.534 75.3076 113.261 75.3076C112.831 75.3076 112.497 75.1714 112.259 74.8989C112.022 74.6235 111.864 74.3159 111.785 73.9761C111.298 74.4448 110.824 74.7847 110.361 74.9956C109.898 75.2036 109.394 75.3076 108.849 75.3076C108.404 75.3076 108.038 75.2168 107.75 75.0352C107.466 74.8564 107.26 74.6382 107.131 74.3804C107.005 74.1226 106.942 73.8735 106.942 73.6333C106.942 73.1763 107.141 72.7544 107.54 72.3677C107.941 71.978 108.518 71.6558 109.271 71.4009C110.024 71.1431 110.91 70.9746 111.93 70.8955C111.965 70.5352 111.982 70.1748 111.982 69.8145C111.982 68.3643 111.575 67.6392 110.761 67.6392C110.485 67.6392 110.245 67.7329 110.04 67.9204C109.835 68.105 109.732 68.3408 109.732 68.6279C109.732 68.7568 109.763 68.9062 109.825 69.0762ZM111.895 71.4536C111.558 71.4741 111.191 71.5327 110.796 71.6294C110.403 71.7231 110.047 71.896 109.728 72.1479C109.409 72.3999 109.249 72.7383 109.249 73.1631C109.249 73.5088 109.337 73.7637 109.513 73.9277C109.691 74.0918 109.908 74.1738 110.163 74.1738C110.494 74.1738 110.792 74.0405 111.055 73.7739C111.322 73.5073 111.528 73.1646 111.675 72.7456C111.821 72.3237 111.895 71.8931 111.895 71.4536ZM119.506 66.9536L121.018 66.5229L123.338 73.3608C123.438 73.6216 123.536 73.8252 123.632 73.9717C123.732 74.1182 123.897 74.1914 124.129 74.1914C124.504 74.1914 124.864 74.1489 125.21 74.064C124.999 74.5708 124.836 74.9766 124.722 75.2812C124.611 75.5889 124.502 75.917 124.397 76.2656C124.292 76.6172 124.161 77.0537 124.006 77.5752H123.25C123.309 77.3584 123.367 77.0698 123.426 76.7095C123.487 76.3491 123.518 76.062 123.518 75.8481C123.518 75.2827 123.068 75 122.169 75H118.28C117.837 75 117.427 75.1465 117.049 75.4395C116.671 75.7354 116.482 76.3389 116.482 77.25V77.5752H115.687V74.064C115.807 74.0786 115.94 74.0977 116.087 74.1211C116.233 74.1416 116.354 74.1519 116.447 74.1519C116.646 74.1519 116.813 74.0977 116.948 73.9893C117.083 73.8779 117.2 73.7227 117.3 73.5234C117.402 73.3213 117.511 73.0503 117.625 72.7104C117.739 72.3706 117.856 72.0234 117.977 71.6689C118.029 71.5107 118.202 71.0244 118.495 70.21C119.022 68.7686 119.359 67.6831 119.506 66.9536ZM119.774 68.7378H119.668C119.639 68.9985 119.5 69.5112 119.251 70.2759C119.005 71.0376 118.732 71.8125 118.434 72.6006C118.135 73.3887 117.911 73.9189 117.761 74.1914C118.625 74.25 119.273 74.2793 119.704 74.2793C120.202 74.2793 120.795 74.25 121.483 74.1914C120.616 71.8623 120.046 70.0444 119.774 68.7378ZM130.382 66.8262C131.308 66.8262 132.112 67.0049 132.795 67.3623C133.478 67.7197 133.999 68.2119 134.359 68.8389C134.72 69.4658 134.9 70.1631 134.9 70.9307C134.9 71.7393 134.699 72.479 134.298 73.1499C133.899 73.8179 133.333 74.3452 132.597 74.7319C131.862 75.1157 131.021 75.3076 130.075 75.3076C129.269 75.3076 128.528 75.1318 127.851 74.7803C127.177 74.4258 126.644 73.938 126.251 73.3169C125.862 72.6929 125.667 72.0059 125.667 71.2559C125.667 70.6523 125.768 70.084 125.97 69.5508C126.172 69.0176 126.474 68.5459 126.875 68.1357C127.277 67.7256 127.772 67.4048 128.361 67.1733C128.953 66.9419 129.626 66.8262 130.382 66.8262ZM130.149 67.5645C129.854 67.5645 129.549 67.6509 129.235 67.8237C128.922 67.9937 128.651 68.3101 128.422 68.7729C128.194 69.2358 128.08 69.8716 128.08 70.6802C128.08 72.0864 128.336 73.0869 128.849 73.6816C129.361 74.2734 129.927 74.5693 130.545 74.5693C131.84 74.5693 132.487 73.4824 132.487 71.3086C132.487 70.5059 132.372 69.8203 132.14 69.252C131.909 68.6807 131.613 68.2573 131.252 67.9819C130.895 67.7036 130.527 67.5645 130.149 67.5645ZM141.101 79.4121H140.077C139.977 79.4121 139.754 79.3813 139.409 79.3198C139.145 79.2729 138.821 79.2495 138.438 79.2495C138.065 79.2495 137.748 79.2729 137.484 79.3198C137.167 79.3813 136.97 79.4121 136.891 79.4121H136.025V78.8716H136.456C136.913 78.8716 137.204 78.6621 137.33 78.2432C137.456 77.8271 137.519 77.2617 137.519 76.5469V71.2383C137.519 70.2012 137.503 69.4834 137.471 69.085C137.438 68.6865 137.348 68.4067 137.198 68.2456C137.052 68.0815 136.798 67.9995 136.438 67.9995C136.078 67.9995 135.777 68.0229 135.537 68.0698V67.4414C136.261 67.3799 136.8 67.3301 137.154 67.292C137.509 67.251 137.875 67.1909 138.253 67.1118C138.634 67.0327 139.042 66.9199 139.479 66.7734C139.406 67.21 139.346 67.7139 139.299 68.2852C140.011 67.7695 140.594 67.3945 141.048 67.1602C141.505 66.9258 142.003 66.8086 142.542 66.8086C143.063 66.8086 143.542 66.9492 143.979 67.2305C144.418 67.5088 144.769 67.916 145.029 68.4521C145.29 68.9883 145.42 69.6226 145.42 70.355C145.42 71.1431 145.224 71.9048 144.832 72.6401C144.442 73.3726 143.888 73.9673 143.17 74.4243C142.453 74.8813 141.643 75.1099 140.74 75.1099C140.166 75.1099 139.753 75.0791 139.501 75.0176V76.5469C139.501 77.3057 139.577 77.8828 139.729 78.2783C139.885 78.6738 140.192 78.8716 140.652 78.8716H141.101V79.4121ZM139.501 68.9707V74.354C139.738 74.4741 140.091 74.5342 140.56 74.5342C141.512 74.5342 142.19 74.1489 142.595 73.3784C143.002 72.6079 143.206 71.751 143.206 70.8076C143.206 69.9404 143.04 69.2461 142.709 68.7246C142.381 68.2031 141.928 67.9424 141.351 67.9424C140.783 67.9424 140.166 68.2852 139.501 68.9707ZM149.165 69.0762L146.787 70.0342C146.729 69.8672 146.699 69.6812 146.699 69.4761C146.699 68.9399 146.951 68.4697 147.455 68.0654C147.959 67.6611 148.582 67.3535 149.323 67.1426C150.064 66.9316 150.767 66.8262 151.432 66.8262C152.2 66.8262 152.718 67.04 152.988 67.4678C153.257 67.8955 153.392 68.354 153.392 68.8433C153.392 69.3208 153.363 69.8496 153.304 70.4297C153.249 70.9482 153.2 71.3701 153.159 71.6953C153.121 72.0176 153.093 72.2461 153.076 72.3809C153.061 72.5127 153.046 72.6475 153.032 72.7852C153.02 72.9199 153.014 73.0342 153.014 73.1279C153.014 73.3975 153.07 73.6304 153.181 73.8267C153.292 74.02 153.417 74.1167 153.555 74.1167C153.719 74.1167 153.96 73.998 154.28 73.7607C154.599 73.5205 154.844 73.292 155.014 73.0752V73.9761C154.401 74.4741 153.914 74.8198 153.55 75.0132C153.19 75.2095 152.874 75.3076 152.601 75.3076C152.17 75.3076 151.836 75.1714 151.599 74.8989C151.362 74.6235 151.204 74.3159 151.125 73.9761C150.638 74.4448 150.164 74.7847 149.701 74.9956C149.238 75.2036 148.734 75.3076 148.189 75.3076C147.744 75.3076 147.377 75.2168 147.09 75.0352C146.806 74.8564 146.6 74.6382 146.471 74.3804C146.345 74.1226 146.282 73.8735 146.282 73.6333C146.282 73.1763 146.481 72.7544 146.879 72.3677C147.281 71.978 147.858 71.6558 148.611 71.4009C149.364 71.1431 150.25 70.9746 151.27 70.8955C151.305 70.5352 151.322 70.1748 151.322 69.8145C151.322 68.3643 150.915 67.6392 150.101 67.6392C149.825 67.6392 149.585 67.7329 149.38 67.9204C149.175 68.105 149.072 68.3408 149.072 68.6279C149.072 68.7568 149.103 68.9062 149.165 69.0762ZM151.234 71.4536C150.897 71.4741 150.531 71.5327 150.136 71.6294C149.743 71.7231 149.387 71.896 149.068 72.1479C148.749 72.3999 148.589 72.7383 148.589 73.1631C148.589 73.5088 148.677 73.7637 148.853 73.9277C149.031 74.0918 149.248 74.1738 149.503 74.1738C149.834 74.1738 150.131 74.0405 150.395 73.7739C150.662 73.5073 150.868 73.1646 151.015 72.7456C151.161 72.3237 151.234 71.8931 151.234 71.4536ZM162.203 78.0059H161.285C161.548 76.5908 161.68 75.1992 161.68 73.8311C162.058 73.9277 162.479 73.9761 162.941 73.9761C163.073 73.9761 163.202 73.8896 163.328 73.7168C163.454 73.5439 163.599 73.2524 163.763 72.8423C163.927 72.4321 164.094 71.9692 164.264 71.4536C164.437 70.938 164.83 69.75 165.442 67.8896C166.18 65.6631 166.715 63.9111 167.046 62.6338C167.591 62.5869 168.161 62.5034 168.755 62.3833C169.171 64.1265 169.74 66.123 170.46 68.373C171.184 70.623 171.755 72.2256 172.174 73.1807C172.312 73.4736 172.456 73.686 172.605 73.8179C172.757 73.9468 172.998 74.0112 173.326 74.0112C173.616 74.0112 173.988 73.9512 174.442 73.8311C174.231 75.2256 173.931 76.6172 173.541 78.0059H172.68C172.847 77.4727 172.93 76.7886 172.93 75.9536C172.93 75.5522 172.778 75.293 172.473 75.1758C172.168 75.0586 171.774 75 171.291 75C171.004 75 170.503 75.0117 169.788 75.0352C169.073 75.0586 168.477 75.0703 168 75.0703C166.62 75.0703 165.534 75.0527 164.743 75.0176C164.693 75.0176 164.623 75.0146 164.532 75.0088C164.441 75.0029 164.373 75 164.326 75C163.913 75 163.576 75.0688 163.315 75.2065C163.057 75.3442 162.834 75.6284 162.647 76.0591C162.462 76.4927 162.314 77.1416 162.203 78.0059ZM167.389 64.8135H167.244C167.129 65.3555 166.905 66.208 166.571 67.3711C166.237 68.5312 165.646 70.2949 164.796 72.6621C164.705 72.9141 164.633 73.1133 164.581 73.2598C164.528 73.4062 164.431 73.6743 164.291 74.064C165.351 74.1226 166.335 74.1519 167.244 74.1519C167.979 74.1519 168.933 74.1226 170.104 74.064C170.037 73.8735 169.989 73.7388 169.959 73.6597C169.93 73.5776 169.883 73.4487 169.819 73.2729C169.754 73.0942 169.694 72.9316 169.639 72.7852C169.337 71.9414 168.982 70.8794 168.575 69.5991C167.834 67.27 167.438 65.6748 167.389 64.8135ZM177.694 69.0762L175.316 70.0342C175.258 69.8672 175.229 69.6812 175.229 69.4761C175.229 68.9399 175.48 68.4697 175.984 68.0654C176.488 67.6611 177.111 67.3535 177.852 67.1426C178.593 66.9316 179.296 66.8262 179.961 66.8262C180.729 66.8262 181.248 67.04 181.517 67.4678C181.787 67.8955 181.921 68.354 181.921 68.8433C181.921 69.3208 181.892 69.8496 181.833 70.4297C181.778 70.9482 181.729 71.3701 181.688 71.6953C181.65 72.0176 181.623 72.2461 181.605 72.3809C181.59 72.5127 181.576 72.6475 181.561 72.7852C181.549 72.9199 181.543 73.0342 181.543 73.1279C181.543 73.3975 181.599 73.6304 181.71 73.8267C181.822 74.02 181.946 74.1167 182.084 74.1167C182.248 74.1167 182.49 73.998 182.809 73.7607C183.128 73.5205 183.373 73.292 183.543 73.0752V73.9761C182.931 74.4741 182.443 74.8198 182.08 75.0132C181.719 75.2095 181.403 75.3076 181.13 75.3076C180.7 75.3076 180.366 75.1714 180.128 74.8989C179.891 74.6235 179.733 74.3159 179.654 73.9761C179.167 74.4448 178.693 74.7847 178.23 74.9956C177.767 75.2036 177.263 75.3076 176.718 75.3076C176.273 75.3076 175.907 75.2168 175.62 75.0352C175.335 74.8564 175.129 74.6382 175 74.3804C174.874 74.1226 174.811 73.8735 174.811 73.6333C174.811 73.1763 175.01 72.7544 175.409 72.3677C175.81 71.978 176.387 71.6558 177.14 71.4009C177.893 71.1431 178.779 70.9746 179.799 70.8955C179.834 70.5352 179.852 70.1748 179.852 69.8145C179.852 68.3643 179.444 67.6392 178.63 67.6392C178.354 67.6392 178.114 67.7329 177.909 67.9204C177.704 68.105 177.602 68.3408 177.602 68.6279C177.602 68.7568 177.632 68.9062 177.694 69.0762ZM179.764 71.4536C179.427 71.4741 179.061 71.5327 178.665 71.6294C178.272 71.7231 177.917 71.896 177.597 72.1479C177.278 72.3999 177.118 72.7383 177.118 73.1631C177.118 73.5088 177.206 73.7637 177.382 73.9277C177.561 74.0918 177.777 74.1738 178.032 74.1738C178.363 74.1738 178.661 74.0405 178.924 73.7739C179.191 73.5073 179.397 73.1646 179.544 72.7456C179.69 72.3237 179.764 71.8931 179.764 71.4536ZM183.556 74.4595H183.864C184.042 74.4595 184.198 74.4199 184.33 74.3408C184.461 74.2588 184.574 74.1475 184.668 74.0068C184.762 73.8633 184.848 73.6978 184.927 73.5103C185.006 73.3198 185.113 73.0605 185.248 72.7324C185.374 72.4248 185.54 72.022 185.745 71.5239C185.953 71.0229 186.128 70.5894 186.272 70.2231C186.418 69.854 186.602 69.3662 186.821 68.7598C187.041 68.1533 187.249 67.5571 187.445 66.9712C188.028 66.8423 188.532 66.6738 188.957 66.4658L189.37 67.7271L191.207 72.5171C191.465 73.1616 191.702 73.6465 191.919 73.9717C192.136 74.2969 192.385 74.4595 192.666 74.4595H193.114V75H192.701C192.604 75 192.347 74.9707 191.928 74.9121C191.576 74.8506 191.258 74.8198 190.974 74.8198C190.623 74.8198 190.375 74.8418 190.231 74.8857C190.088 74.9297 189.966 74.9604 189.867 74.978C189.767 74.9927 189.429 75 188.852 75H188.509V74.4595H189.014C189.128 74.4595 189.228 74.395 189.313 74.2661C189.401 74.1372 189.445 73.9731 189.445 73.7739C189.445 73.5396 189.408 73.3301 189.335 73.1455L187.823 68.7378L187.753 68.2324V68.0698H187.608C187.541 68.6147 187.349 69.2988 187.032 70.1221C186.253 72.1875 185.863 73.3579 185.863 73.6333C185.863 74.1841 185.995 74.4595 186.259 74.4595H186.817V75H186.364C186.323 75 186.272 74.9956 186.21 74.9868C186.152 74.9751 186.093 74.9604 186.035 74.9429C185.976 74.9253 185.913 74.9077 185.846 74.8901C185.67 74.8433 185.465 74.8198 185.23 74.8198C185.043 74.8198 184.785 74.8564 184.457 74.9297C184.217 74.9766 184.037 75 183.917 75H183.556V74.4595ZM196.216 65.172V75H193.534V65.172H196.216ZM194.884 61.32C195.28 61.32 195.622 61.416 195.91 61.608C196.198 61.788 196.342 62.13 196.342 62.634C196.342 63.126 196.198 63.468 195.91 63.66C195.622 63.852 195.28 63.948 194.884 63.948C194.476 63.948 194.128 63.852 193.84 63.66C193.564 63.468 193.426 63.126 193.426 62.634C193.426 62.13 193.564 61.788 193.84 61.608C194.128 61.416 194.476 61.32 194.884 61.32Z" fill="black"/>
</svg>
