<svg width="275" height="52" viewBox="0 0 275 52" fill="none" xmlns="http://www.w3.org/2000/svg">
<path d="M1.59473 20V19.1621H1.92773C2.19987 19.1621 2.47021 19.0798 2.73877 18.915C3.00732 18.7503 3.25439 18.4245 3.47998 17.9375C3.70557 17.4505 3.85596 16.7738 3.93115 15.9072L4.479 9.56934C4.58285 8.28385 4.65625 6.73698 4.69922 4.92871C5.22201 4.86068 5.7054 4.73714 6.14941 4.55811L10.6182 14.5645C11.0085 15.4346 11.286 16.1471 11.4507 16.7021H11.6279C11.7604 16.251 11.9144 15.8088 12.0898 15.3755C12.2653 14.9386 12.4497 14.5233 12.6431 14.1294C12.84 13.7355 13.13 13.1608 13.5132 12.4053C13.8963 11.6462 14.1989 11.0321 14.4209 10.563C15.6921 7.85596 16.5067 5.97786 16.8647 4.92871C17.4771 4.87142 18.1592 4.74788 18.9111 4.55811C18.9219 4.70492 18.9326 4.91081 18.9434 5.17578C18.9577 5.43717 18.9684 5.64128 18.9756 5.78809C18.9756 6.18555 18.9899 6.56689 19.0186 6.93213C19.0365 7.24723 19.0508 7.48356 19.0615 7.64111C19.0758 7.79508 19.092 8.02067 19.1099 8.31787L19.4805 14.1025C19.5055 14.6432 19.5342 15.2072 19.5664 15.7944C19.5986 16.3781 19.6631 16.9224 19.7598 17.4272C19.8564 17.9321 20.0176 18.3475 20.2432 18.6733C20.4688 18.9992 20.7803 19.1621 21.1777 19.1621H21.5054V20H20.8018C20.1322 20 19.715 19.957 19.5503 19.8711C19.3856 19.7816 19.0042 19.7368 18.4062 19.7368C18.1126 19.7368 17.6722 19.7798 17.085 19.8657C16.6302 19.9552 16.2775 20 16.0269 20H15.479V19.1621H15.7852C16.1396 19.1621 16.4189 19.0475 16.623 18.8184C16.8271 18.5892 16.9292 18.1022 16.9292 17.3574C16.9292 17.318 16.9256 17.2482 16.9185 17.1479C16.9113 17.0477 16.9077 16.9725 16.9077 16.9224L16.5156 10.1226L16.5586 8.97852H16.4243C16.3241 9.18978 16.1486 9.59977 15.8979 10.2085C15.146 11.9523 14.1774 14.0363 12.9922 16.4604C12.7344 16.9868 12.5482 17.3664 12.4336 17.5991C12.3226 17.8319 12.1489 18.1917 11.9126 18.6787C11.7515 19.0475 11.5975 19.3787 11.4507 19.6724H10.6396C10.4821 19.3573 10.321 19.0189 10.1562 18.6572C9.89486 18.0771 9.43294 17.139 8.77051 15.8428C7.96126 14.2923 7.32926 13.0122 6.87451 12.0024C6.42334 10.9891 6.12793 10.2747 5.98828 9.85938C5.85221 9.44401 5.76628 9.15039 5.73047 8.97852L5.48877 8.95703V9.32764C5.48877 9.93994 5.45296 10.8942 5.38135 12.1904C5.32764 13.2288 5.29004 13.9915 5.26855 14.4785C5.26139 14.7077 5.25244 15.055 5.2417 15.5205C5.23096 15.986 5.21842 16.3351 5.2041 16.5679C5.17546 16.8901 5.16113 17.1533 5.16113 17.3574C5.16113 18.5605 5.51383 19.1621 6.21924 19.1621H6.72412V20H6.21924C6.02588 20 5.74658 19.9552 5.38135 19.8657C5.02686 19.7798 4.67415 19.7368 4.32324 19.7368C4.12272 19.7368 3.81478 19.7798 3.39941 19.8657C2.92318 19.9552 2.54183 20 2.25537 20H1.59473ZM22.4722 5.06299H23.1758C23.2832 5.06299 23.6502 5.0988 24.2769 5.17041C24.8319 5.23128 25.2275 5.26172 25.4639 5.26172C25.693 5.26172 26.0887 5.23128 26.6509 5.17041C27.2775 5.0988 27.6445 5.06299 27.752 5.06299H28.4771V5.89551H28.0151C27.5353 5.89551 27.2238 6.10856 27.0806 6.53467C26.9409 6.96077 26.8711 7.5695 26.8711 8.36084V9.15576V14.2368C26.8711 14.8849 26.7834 15.8016 26.6079 16.9868H26.8066C27.2686 16.2707 28.2801 15.0747 29.8413 13.3989C30.5252 12.6541 31.2843 11.7948 32.1187 10.8208C32.953 9.84326 33.7712 8.8514 34.5732 7.84521C35.3753 6.83545 36.1076 5.87044 36.77 4.9502C37.1174 4.88574 37.4915 4.84277 37.8926 4.82129C37.8031 5.91699 37.7583 6.90706 37.7583 7.7915V15.8643C37.7583 16.584 37.7798 17.1694 37.8228 17.6206C37.8657 18.0718 37.9714 18.4424 38.1396 18.7324C38.3079 19.0189 38.5622 19.1621 38.9023 19.1621H39.3643V20H38.6177C38.4064 20 38.1056 19.9481 37.7153 19.8442C37.2749 19.7726 36.8201 19.7368 36.3511 19.7368C35.9142 19.7368 35.4756 19.7726 35.0352 19.8442C34.6341 19.9481 34.3333 20 34.1328 20H33.3164V19.1621H33.7783C34.1364 19.1621 34.3996 18.9974 34.5679 18.668C34.7397 18.3385 34.8454 17.95 34.8848 17.5024C34.9242 17.0513 34.9438 16.4909 34.9438 15.8213V10.7402C34.9438 10.2246 35.0244 9.65169 35.1855 9.02148H35.0566C34.8239 9.49772 34.1203 10.4019 32.9458 11.7339C31.7713 13.0623 30.5396 14.4087 29.2505 15.7729C27.965 17.1372 27.0841 18.0628 26.6079 18.5498C25.9956 19.1908 25.5767 19.6742 25.3511 20L23.8579 20.376C23.9904 18.2025 24.0566 17.0513 24.0566 16.9224V9.10742V8.16211C24.0566 7.44238 23.9832 6.88558 23.8364 6.4917C23.6896 6.09424 23.3888 5.89551 22.9341 5.89551H22.4722V5.06299ZM54.7202 16.6108H55.5366C55.3397 17.6636 55.0013 18.4603 54.5215 19.001C54.0417 19.5381 53.4168 19.8926 52.647 20.0645C51.8807 20.2399 50.8566 20.3276 49.5747 20.3276C48.3 20.3276 47.1237 20.1307 46.0459 19.7368C44.9681 19.3429 44.0353 18.7861 43.2476 18.0664C42.4634 17.3431 41.8618 16.4998 41.4429 15.5366C41.0239 14.5734 40.8145 13.5314 40.8145 12.4106C40.8145 11.118 41.0866 9.8916 41.6309 8.73145C42.1787 7.56771 43.0614 6.61344 44.2788 5.86865C45.4998 5.12386 47.0592 4.75146 48.957 4.75146C49.5192 4.75146 49.9722 4.77116 50.3159 4.81055C50.6632 4.84635 51.016 4.90186 51.374 4.97705C51.7357 5.04867 52.0544 5.10238 52.3301 5.13818C52.6058 5.17399 52.9854 5.19189 53.4688 5.19189C54.1383 5.19189 54.6808 5.16325 55.0962 5.10596C55.0031 5.70036 54.944 6.34489 54.9189 7.03955C54.9046 7.68766 54.8975 8.34115 54.8975 9H54.0381C54.0381 8.28027 53.8376 7.66976 53.4365 7.16846C53.0391 6.66715 52.5091 6.29476 51.8467 6.05127C51.1842 5.8042 50.4699 5.68066 49.7036 5.68066C48.6294 5.68066 47.6572 5.93848 46.7871 6.4541C45.917 6.96615 45.2313 7.71094 44.73 8.68848C44.2323 9.66602 43.9834 10.819 43.9834 12.1475C43.9834 13.6764 44.2788 14.9888 44.8696 16.0845C45.4604 17.1802 46.2196 18.0073 47.147 18.5659C48.078 19.1245 49.0251 19.4038 49.9883 19.4038C50.9085 19.4038 51.8341 19.1353 52.7651 18.5981C53.6997 18.061 54.3514 17.3986 54.7202 16.6108ZM62.1914 5.92236H60.4297C59.6634 5.92236 59.0207 6.11214 58.5015 6.4917C57.9858 6.86768 57.5794 7.59456 57.2822 8.67236H56.4497C56.4891 8.37158 56.5231 8.1263 56.5518 7.93652C56.584 7.74674 56.6162 7.53727 56.6484 7.30811C56.8132 6.28402 56.9224 5.4318 56.9761 4.75146C57.0978 4.76221 57.2357 4.77474 57.3896 4.78906C57.5436 4.7998 57.6976 4.81234 57.8516 4.82666C58.0055 4.8374 58.2204 4.8571 58.4961 4.88574C59.4092 4.97526 60.4279 5.02718 61.5522 5.0415C62.0464 5.0415 62.4868 5.04508 62.8735 5.05225C63.2603 5.05941 63.502 5.06299 63.5986 5.06299C65.0739 5.06299 66.8857 4.98958 69.0342 4.84277C69.3851 4.83203 69.9276 4.8016 70.6616 4.75146C70.59 5.62516 70.4575 6.53467 70.2642 7.47998C70.2534 7.53011 70.18 7.92757 70.0439 8.67236H69.1846C69.2598 8.24984 69.2974 7.91862 69.2974 7.67871C69.2974 7.15234 69.1255 6.72803 68.7817 6.40576C68.4416 6.0835 67.763 5.92236 66.7461 5.92236H65.0059V15.3379C65.0059 16.5518 65.0739 17.4935 65.21 18.1631C65.3496 18.8291 65.6916 19.1621 66.2358 19.1621H66.6978V20H65.8867C65.6611 20 65.3532 19.9481 64.9629 19.8442C64.5225 19.7726 64.0677 19.7368 63.5986 19.7368C63.1296 19.7368 62.6748 19.7726 62.2344 19.8442C61.8441 19.9481 61.5361 20 61.3105 20H60.4297V19.1621H60.8916C61.4574 19.1621 61.8154 18.7879 61.9658 18.0396C62.1162 17.2876 62.1914 16.3942 62.1914 15.3594V5.92236ZM71.8433 5.06299H72.5254C72.8298 5.06299 73.2397 5.09342 73.7554 5.1543C74.271 5.21159 74.9621 5.24023 75.8286 5.24023C77.952 5.24023 79.6385 5.20264 80.8882 5.12744C81.0529 5.12028 81.1711 5.11491 81.2427 5.11133C81.3143 5.10417 81.556 5.08805 81.9678 5.06299C81.846 5.77913 81.6831 6.48275 81.479 7.17383C81.4253 7.39225 81.3626 7.64648 81.291 7.93652C81.2194 8.22656 81.1657 8.44857 81.1299 8.60254H80.292C80.3672 7.99023 80.4048 7.62321 80.4048 7.50146C80.4048 6.65283 79.891 6.22852 78.8633 6.22852H76.355V11.75H78.1167C78.6431 11.75 79.0549 11.7142 79.3521 11.6426C79.6493 11.571 79.8766 11.4134 80.0342 11.1699C80.1917 10.9264 80.2705 10.5487 80.2705 10.0366H81.1084C80.8577 11.4761 80.7324 12.5163 80.7324 13.1572V14.6558H79.9429C79.9715 14.5233 79.9858 14.3389 79.9858 14.1025C79.9858 13.1501 79.4648 12.6738 78.4229 12.6738H76.355V16.2617C76.355 17.0459 76.4051 17.6349 76.5054 18.0288C76.6056 18.4227 76.7542 18.6948 76.9512 18.8452C77.1517 18.9956 77.4292 19.0941 77.7837 19.1406C78.0988 19.1872 78.3781 19.2104 78.6216 19.2104C78.8901 19.2104 79.1694 19.1872 79.4595 19.1406C80.0252 19.0618 80.5176 18.8488 80.9365 18.5015C81.3555 18.1506 81.6992 17.5275 81.9678 16.6323H82.7573C82.7 17.8426 82.5156 18.6984 82.2041 19.1997C81.8926 19.701 81.4897 20.0125 80.9956 20.1343C80.8631 20.1629 80.6662 20.1772 80.4048 20.1772C80.1971 20.1772 79.9035 20.1629 79.5239 20.1343C79.284 20.1128 79.0549 20.0949 78.8364 20.0806C78.618 20.0662 78.165 20.0322 77.4775 19.9785C77.0801 19.9535 76.7471 19.9338 76.4785 19.9194C76.21 19.9051 75.9432 19.8944 75.6782 19.8872C75.4132 19.88 75.1411 19.8729 74.8618 19.8657H73.605C73.5369 19.8729 73.4188 19.8908 73.2505 19.9194C73.0822 19.9445 72.9587 19.9606 72.8799 19.9678C72.8047 19.9749 72.7313 19.9785 72.6597 19.9785H71.8433V19.1406H72.2622C72.7814 19.1406 73.1234 18.8613 73.2881 18.3027C73.4564 17.7406 73.5405 17.0298 73.5405 16.1704V9.26318C73.5405 7.01807 73.1073 5.89551 72.2407 5.89551H71.8433V5.06299ZM84.3525 5.06299H85.0562C85.1636 5.06299 85.5306 5.0988 86.1572 5.17041C86.7122 5.23128 87.1079 5.26172 87.3442 5.26172C87.5734 5.26172 87.9691 5.23128 88.5312 5.17041C89.1579 5.0988 89.5249 5.06299 89.6323 5.06299H90.3574V5.89551H89.8955C89.4157 5.89551 89.1042 6.10677 88.9609 6.5293C88.8213 6.95182 88.7515 7.54801 88.7515 8.31787V9.08594V18.7915C90.8963 18.9526 92.2463 19.0332 92.8013 19.0332C93.9829 19.0332 95.0303 19.0099 95.9434 18.9634V9.08594V8.14062C95.9434 7.43164 95.8717 6.88021 95.7285 6.48633C95.5853 6.09245 95.2827 5.89551 94.8208 5.89551H94.3589V5.06299H95.0894C95.2004 5.06299 95.5656 5.0988 96.1851 5.17041C96.7472 5.23128 97.1447 5.26172 97.3774 5.26172C97.6066 5.26172 98.0023 5.23128 98.5645 5.17041C99.1839 5.0988 99.5509 5.06299 99.6655 5.06299H100.342V5.89551H99.8804C99.4149 5.89551 99.1123 6.09603 98.9727 6.49707C98.833 6.89811 98.7632 7.4764 98.7632 8.23193V9.08594V16.5034C98.7632 17.0978 98.7811 17.5597 98.8169 17.8892C98.8527 18.2186 98.9512 18.4889 99.1123 18.7002C99.277 18.9079 99.533 19.0117 99.8804 19.0117C100.407 19.0117 100.935 18.8936 101.465 18.6572V20.0215C101.046 20.0215 100.742 20.1038 100.552 20.2686C100.362 20.4368 100.161 20.6929 99.9502 21.0366C99.3701 21.9819 98.8634 22.7267 98.4302 23.271C98.0005 23.8188 97.4777 24.2682 96.8618 24.6191C96.2459 24.9701 95.5155 25.1455 94.6704 25.1455C93.9364 25.1455 93.2811 25.0864 92.7046 24.9683C92.1317 24.8501 91.5695 24.5798 91.0181 24.1572C91.5444 23.9281 92.0063 23.6577 92.4038 23.3462C92.5936 23.7329 92.8389 24.0194 93.1396 24.2056C93.444 24.3953 93.7484 24.4902 94.0527 24.4902C94.5361 24.4902 94.9497 24.3363 95.2935 24.0283C95.6408 23.7204 95.9756 23.3158 96.2979 22.8145C96.6022 22.3669 96.8779 22.007 97.125 21.7349C97.3721 21.4663 97.7158 21.187 98.1562 20.897C98.6003 20.6069 99.175 20.3151 99.8804 20.0215V19.8228C99.1392 19.9338 98.6307 20.0036 98.355 20.0322C98.0828 20.0609 97.7337 20.0806 97.3076 20.0913C96.8851 20.1021 96.2692 20.1164 95.46 20.1343H93.7896C93.077 20.1164 92.2033 20.0501 91.1685 19.9355C89.9582 19.8031 88.7336 19.7368 87.4946 19.7368C86.7856 19.7368 86.2664 19.7798 85.937 19.8657C85.4751 19.9696 85.151 20.0215 84.9648 20.0215H84.2827V19.1836H84.7231C85.2424 19.1836 85.5736 18.8846 85.7168 18.2866C85.8636 17.6851 85.937 16.84 85.937 15.7515V9.08594V8.14062C85.937 7.43164 85.8636 6.88021 85.7168 6.48633C85.57 6.09245 85.2692 5.89551 84.8145 5.89551H84.3525V5.06299ZM102.808 5.06299H103.533C103.662 5.06299 104.021 5.0988 104.612 5.17041C105.167 5.23128 105.57 5.26172 105.821 5.26172C106.05 5.26172 106.446 5.23128 107.008 5.17041C107.599 5.0988 107.958 5.06299 108.087 5.06299H108.812V5.89551H108.351C107.885 5.89551 107.577 6.09424 107.427 6.4917C107.28 6.88916 107.207 7.46208 107.207 8.21045V9.22021V11.6426C107.855 11.5531 108.463 11.5083 109.033 11.5083C110.275 11.5083 111.299 11.7088 112.105 12.1099C112.911 12.5073 113.491 13.0194 113.845 13.646C114.2 14.269 114.377 14.9351 114.377 15.644C114.377 16.1024 114.33 16.5625 114.237 17.0244C114.144 17.4863 113.931 17.959 113.598 18.4424C113.265 18.9222 112.741 19.325 112.024 19.6509C111.312 19.9731 110.374 20.1343 109.21 20.1343C108.211 20.1343 107.574 20.1128 107.298 20.0698C107.026 20.0269 106.757 19.9606 106.492 19.8711C106.231 19.7816 105.875 19.7368 105.423 19.7368C105.187 19.7368 104.843 19.7887 104.392 19.8926C103.916 19.9642 103.504 20 103.157 20H102.695V19.1621H103.135C103.665 19.1621 104.007 18.8577 104.161 18.249C104.315 17.6403 104.392 16.8454 104.392 15.8643V9.22021V8.2749C104.392 7.49788 104.32 6.90706 104.177 6.50244C104.038 6.09782 103.735 5.89551 103.27 5.89551H102.808V5.06299ZM107.207 12.3892V17.1426C107.207 17.9411 107.318 18.4997 107.54 18.8184C107.762 19.137 108.193 19.2964 108.834 19.2964C109.257 19.2964 109.668 19.1782 110.069 18.9419C110.474 18.702 110.805 18.3332 111.063 17.8354C111.324 17.3341 111.455 16.7129 111.455 15.9717C111.455 15.0192 111.258 14.2762 110.864 13.7427C110.474 13.2056 110.001 12.8421 109.446 12.6523C108.891 12.4626 108.313 12.3677 107.711 12.3677C107.479 12.3677 107.31 12.3748 107.207 12.3892ZM115.677 5.06299H116.402C116.534 5.06299 116.892 5.0988 117.476 5.17041C118.038 5.23128 118.443 5.26172 118.69 5.26172C118.919 5.26172 119.315 5.23128 119.877 5.17041C120.461 5.0988 120.82 5.06299 120.957 5.06299H121.703V5.89551H121.241C120.887 5.89551 120.625 6.0262 120.457 6.2876C120.289 6.54899 120.187 6.87484 120.151 7.26514C120.115 7.65186 120.097 8.18538 120.097 8.86572V16.4336C120.097 18.2526 120.486 19.1621 121.263 19.1621H121.703V20H120.908C120.701 20 120.402 19.9481 120.011 19.8442C119.564 19.7726 119.116 19.7368 118.668 19.7368C118.214 19.7368 117.766 19.7726 117.326 19.8442C116.935 19.9481 116.635 20 116.423 20H115.628V19.1621H116.069C116.878 19.1621 117.283 18.2526 117.283 16.4336V8.86572C117.283 8.18538 117.265 7.65186 117.229 7.26514C117.193 6.87484 117.091 6.54899 116.923 6.2876C116.755 6.0262 116.493 5.89551 116.139 5.89551H115.677V5.06299ZM124.609 5.89551V5.06299H125.071C125.182 5.06299 125.339 5.07194 125.543 5.08984C125.748 5.10775 125.898 5.12028 125.995 5.12744C126.081 5.13818 126.278 5.16325 126.585 5.20264C126.893 5.24202 127.142 5.26172 127.332 5.26172C127.59 5.26172 127.76 5.25635 127.842 5.24561C127.928 5.23128 128.045 5.20622 128.191 5.17041C128.342 5.13102 128.494 5.10417 128.648 5.08984C128.802 5.07194 129.054 5.06299 129.405 5.06299H129.889V5.89551H129.577C129.298 5.89551 129.024 5.94027 128.755 6.02979C128.49 6.11572 128.129 6.31803 127.67 6.63672C127.212 6.95182 126.616 7.43701 125.882 8.09229C125.148 8.74756 124.179 9.66602 122.976 10.8477C122.579 11.2451 122.301 11.5101 122.144 11.6426C122.774 11.861 123.343 12.1994 123.852 12.6577C124.36 13.116 124.852 13.68 125.329 14.3496C125.805 15.0192 126.496 16.0522 127.402 17.4487C127.799 18.061 128.104 18.4961 128.315 18.7539C128.526 19.0117 128.779 19.1406 129.072 19.1406C129.38 19.1406 129.799 19.0314 130.329 18.813V19.6724C130.096 19.7297 129.869 19.8031 129.647 19.8926C129.178 20.0537 128.7 20.1343 128.213 20.1343C127.629 20.1343 127.126 20.0107 126.704 19.7637C126.281 19.5166 125.912 19.2015 125.597 18.8184C125.282 18.4352 124.82 17.8247 124.211 16.9868C122.887 15.1535 121.655 13.5833 120.516 12.2764C120.921 11.861 121.349 11.4134 121.8 10.9336C122.251 10.4502 122.58 10.1011 122.788 9.88623C122.996 9.67139 123.25 9.4279 123.551 9.15576C124.17 8.59717 124.641 8.14421 124.963 7.79688C125.286 7.44596 125.497 7.05566 125.597 6.62598C125.597 6.139 125.429 5.89551 125.092 5.89551H124.609ZM131.484 5.06299H132.188C132.295 5.06299 132.662 5.0988 133.289 5.17041C133.844 5.23128 134.239 5.26172 134.476 5.26172C134.705 5.26172 135.1 5.23128 135.663 5.17041C136.289 5.0988 136.656 5.06299 136.764 5.06299H137.489V5.89551H137.027C136.547 5.89551 136.236 6.10856 136.092 6.53467C135.953 6.96077 135.883 7.5695 135.883 8.36084V9.15576V14.2368C135.883 14.8849 135.795 15.8016 135.62 16.9868H135.818C136.28 16.2707 137.292 15.0747 138.853 13.3989C139.537 12.6541 140.296 11.7948 141.13 10.8208C141.965 9.84326 142.783 8.8514 143.585 7.84521C144.387 6.83545 145.119 5.87044 145.782 4.9502C146.129 4.88574 146.503 4.84277 146.904 4.82129C146.815 5.91699 146.77 6.90706 146.77 7.7915V15.8643C146.77 16.584 146.792 17.1694 146.834 17.6206C146.877 18.0718 146.983 18.4424 147.151 18.7324C147.32 19.0189 147.574 19.1621 147.914 19.1621H148.376V20H147.629C147.418 20 147.117 19.9481 146.727 19.8442C146.287 19.7726 145.832 19.7368 145.363 19.7368C144.926 19.7368 144.487 19.7726 144.047 19.8442C143.646 19.9481 143.345 20 143.145 20H142.328V19.1621H142.79C143.148 19.1621 143.411 18.9974 143.58 18.668C143.751 18.3385 143.857 17.95 143.896 17.5024C143.936 17.0513 143.956 16.4909 143.956 15.8213V10.7402C143.956 10.2246 144.036 9.65169 144.197 9.02148H144.068C143.836 9.49772 143.132 10.4019 141.958 11.7339C140.783 13.0623 139.551 14.4087 138.262 15.7729C136.977 17.1372 136.096 18.0628 135.62 18.5498C135.007 19.1908 134.588 19.6742 134.363 20L132.87 20.376C133.002 18.2025 133.068 17.0513 133.068 16.9224V9.10742V8.16211C133.068 7.44238 132.995 6.88558 132.848 6.4917C132.701 6.09424 132.401 5.89551 131.946 5.89551H131.484V5.06299ZM149.896 5.06299H150.6C150.707 5.06299 151.074 5.0988 151.701 5.17041C152.256 5.23128 152.651 5.26172 152.888 5.26172C153.117 5.26172 153.513 5.23128 154.075 5.17041C154.701 5.0988 155.068 5.06299 155.176 5.06299H155.901V5.89551H155.439C154.959 5.89551 154.648 6.10856 154.504 6.53467C154.365 6.96077 154.295 7.5695 154.295 8.36084V9.15576V14.2368C154.295 14.8849 154.207 15.8016 154.032 16.9868H154.23C154.692 16.2707 155.704 15.0747 157.265 13.3989C157.949 12.6541 158.708 11.7948 159.542 10.8208C160.377 9.84326 161.195 8.8514 161.997 7.84521C162.799 6.83545 163.531 5.87044 164.194 4.9502C164.541 4.88574 164.915 4.84277 165.316 4.82129C165.227 5.91699 165.182 6.90706 165.182 7.7915V15.8643C165.182 16.584 165.204 17.1694 165.247 17.6206C165.29 18.0718 165.395 18.4424 165.563 18.7324C165.732 19.0189 165.986 19.1621 166.326 19.1621H166.788V20H166.042C165.83 20 165.529 19.9481 165.139 19.8442C164.699 19.7726 164.244 19.7368 163.775 19.7368C163.338 19.7368 162.899 19.7726 162.459 19.8442C162.058 19.9481 161.757 20 161.557 20H160.74V19.1621H161.202C161.56 19.1621 161.823 18.9974 161.992 18.668C162.164 18.3385 162.269 17.95 162.309 17.5024C162.348 17.0513 162.368 16.4909 162.368 15.8213V10.7402C162.368 10.2246 162.448 9.65169 162.609 9.02148H162.48C162.248 9.49772 161.544 10.4019 160.37 11.7339C159.195 13.0623 157.963 14.4087 156.674 15.7729C155.389 17.1372 154.508 18.0628 154.032 18.5498C153.419 19.1908 153 19.6742 152.775 20L151.282 20.376C151.414 18.2025 151.48 17.0513 151.48 16.9224V9.10742V8.16211C151.48 7.44238 151.407 6.88558 151.26 6.4917C151.113 6.09424 150.813 5.89551 150.358 5.89551H149.896V5.06299ZM157.464 1.01318V2.2002C157.464 2.52604 157.602 2.78385 157.877 2.97363C158.153 3.16341 158.456 3.2583 158.785 3.2583C159.204 3.2583 159.657 3.10254 160.144 2.79102C160.631 2.47949 161.079 1.88688 161.487 1.01318C161.748 1.24951 162.035 1.47689 162.346 1.69531C161.716 2.51888 161.082 3.12939 160.445 3.52686C159.807 3.92432 159.242 4.1696 158.748 4.2627C158.253 4.35579 157.738 4.40234 157.201 4.40234C156.209 4.40234 155.527 3.80078 155.154 2.59766C155.935 2.20378 156.624 1.67562 157.222 1.01318H157.464ZM176.241 5.06299H176.966C177.099 5.06299 177.457 5.0988 178.041 5.17041C178.603 5.23128 179.007 5.26172 179.254 5.26172C179.484 5.26172 179.879 5.23128 180.441 5.17041C181.025 5.0988 181.385 5.06299 181.521 5.06299H182.268V5.89551H181.806C181.451 5.89551 181.19 6.0262 181.021 6.2876C180.853 6.54899 180.751 6.87484 180.715 7.26514C180.68 7.65186 180.662 8.18538 180.662 8.86572V16.4336C180.662 18.2526 181.05 19.1621 181.827 19.1621H182.268V20H181.473C181.265 20 180.966 19.9481 180.576 19.8442C180.128 19.7726 179.681 19.7368 179.233 19.7368C178.778 19.7368 178.331 19.7726 177.89 19.8442C177.5 19.9481 177.199 20 176.988 20H176.193V19.1621H176.633C177.443 19.1621 177.847 18.2526 177.847 16.4336V8.86572C177.847 8.18538 177.829 7.65186 177.793 7.26514C177.758 6.87484 177.656 6.54899 177.487 6.2876C177.319 6.0262 177.058 5.89551 176.703 5.89551H176.241V5.06299ZM185.173 5.89551V5.06299H185.635C185.746 5.06299 185.904 5.07194 186.108 5.08984C186.312 5.10775 186.462 5.12028 186.559 5.12744C186.645 5.13818 186.842 5.16325 187.15 5.20264C187.458 5.24202 187.707 5.26172 187.896 5.26172C188.154 5.26172 188.324 5.25635 188.407 5.24561C188.493 5.23128 188.609 5.20622 188.756 5.17041C188.906 5.13102 189.058 5.10417 189.212 5.08984C189.366 5.07194 189.619 5.06299 189.97 5.06299H190.453V5.89551H190.142C189.862 5.89551 189.588 5.94027 189.32 6.02979C189.055 6.11572 188.693 6.31803 188.235 6.63672C187.777 6.95182 187.18 7.43701 186.446 8.09229C185.712 8.74756 184.744 9.66602 183.541 10.8477C183.143 11.2451 182.866 11.5101 182.708 11.6426C183.338 11.861 183.908 12.1994 184.416 12.6577C184.924 13.116 185.417 13.68 185.893 14.3496C186.369 15.0192 187.06 16.0522 187.966 17.4487C188.364 18.061 188.668 18.4961 188.879 18.7539C189.091 19.0117 189.343 19.1406 189.637 19.1406C189.945 19.1406 190.364 19.0314 190.894 18.813V19.6724C190.661 19.7297 190.433 19.8031 190.211 19.8926C189.742 20.0537 189.264 20.1343 188.777 20.1343C188.194 20.1343 187.691 20.0107 187.268 19.7637C186.846 19.5166 186.477 19.2015 186.162 18.8184C185.847 18.4352 185.385 17.8247 184.776 16.9868C183.451 15.1535 182.219 13.5833 181.081 12.2764C181.485 11.861 181.913 11.4134 182.364 10.9336C182.815 10.4502 183.145 10.1011 183.353 9.88623C183.56 9.67139 183.814 9.4279 184.115 9.15576C184.735 8.59717 185.206 8.14421 185.528 7.79688C185.85 7.44596 186.061 7.05566 186.162 6.62598C186.162 6.139 185.993 5.89551 185.657 5.89551H185.173ZM192.048 12.2119C192.048 11.0768 192.256 10.0492 192.671 9.12891C193.09 8.20508 193.665 7.41911 194.396 6.771C195.13 6.12288 195.969 5.62874 196.915 5.28857C197.863 4.9484 198.859 4.77832 199.901 4.77832C200.903 4.77832 201.849 4.97168 202.737 5.3584C203.628 5.74154 204.407 6.2876 205.073 6.99658C205.743 7.70557 206.266 8.55599 206.642 9.54785C207.018 10.5361 207.206 11.6068 207.206 12.7598C207.206 14.346 206.846 15.7139 206.126 16.8633C205.406 18.0091 204.479 18.8739 203.344 19.4575C202.212 20.0376 201.05 20.3276 199.858 20.3276C198.859 20.3276 197.892 20.1432 196.958 19.7744C196.027 19.402 195.189 18.8613 194.444 18.1523C193.699 17.4398 193.114 16.5786 192.688 15.5688C192.261 14.5555 192.048 13.4365 192.048 12.2119ZM195.147 12.3677C195.147 13.7642 195.386 14.9977 195.862 16.0684C196.342 17.139 196.963 17.9626 197.726 18.5391C198.488 19.1156 199.272 19.4038 200.078 19.4038C200.744 19.4038 201.383 19.1818 201.996 18.7378C202.611 18.2902 203.116 17.5615 203.51 16.5518C203.904 15.542 204.101 14.2565 204.101 12.6953C204.101 11.3991 203.886 10.2157 203.457 9.14502C203.03 8.07438 202.456 7.23291 201.732 6.62061C201.009 6.0083 200.23 5.70215 199.396 5.70215C198.719 5.70215 198.057 5.92057 197.409 6.35742C196.761 6.79427 196.222 7.514 195.792 8.5166C195.362 9.51921 195.147 10.8029 195.147 12.3677ZM207.995 20V19.1621H208.591C209.075 19.1621 209.526 18.8936 209.945 18.3564C210.367 17.8158 210.738 17.1641 211.057 16.4014C211.375 15.6387 211.712 14.7041 212.066 13.5977C212.421 12.4912 212.625 11.861 212.679 11.707C213.273 10.0312 213.715 8.74756 214.005 7.85596C214.295 6.96077 214.573 5.9707 214.838 4.88574C215.439 4.81413 216.003 4.71924 216.53 4.60107C217.035 6.44515 217.674 8.43245 218.447 10.563C218.834 11.6014 219.142 12.459 219.371 13.1357C219.908 14.6683 220.311 15.7819 220.58 16.4766C220.852 17.1712 221.167 17.7925 221.525 18.3403C221.887 18.8882 222.261 19.1621 222.647 19.1621H223.109V20H222.384C222.241 20 221.969 19.9552 221.568 19.8657C221.16 19.7798 220.683 19.7368 220.139 19.7368C219.548 19.7368 219.063 19.7816 218.684 19.8711C218.304 19.957 218.041 20 217.894 20H216.771V19.1621H217.062C217.839 19.1621 218.227 18.8327 218.227 18.1738C218.227 17.9769 218.197 17.7692 218.136 17.5508C218.078 17.3288 217.996 17.0781 217.889 16.7988C217.785 16.516 217.728 16.3584 217.717 16.3262L215.187 9.04297C215.155 8.94629 215.123 8.79411 215.09 8.58643C215.058 8.37516 215.033 8.22656 215.015 8.14062H214.838C214.802 8.70996 214.655 9.39209 214.397 10.187L212.174 17.207C212.041 17.6367 211.975 17.9733 211.975 18.2168C211.975 18.847 212.262 19.1621 212.834 19.1621H213.318V20H212.947C212.632 20 212.306 19.957 211.97 19.8711C211.633 19.7816 211.27 19.7368 210.879 19.7368C210.471 19.7368 210.047 19.7816 209.606 19.8711C209.17 19.957 208.874 20 208.72 20H207.995ZM224.146 5.06299H224.828C225.132 5.06299 225.542 5.09342 226.058 5.1543C226.574 5.21159 227.265 5.24023 228.131 5.24023C230.255 5.24023 231.941 5.20264 233.191 5.12744C233.356 5.12028 233.474 5.11491 233.545 5.11133C233.617 5.10417 233.859 5.08805 234.271 5.06299C234.149 5.77913 233.986 6.48275 233.782 7.17383C233.728 7.39225 233.665 7.64648 233.594 7.93652C233.522 8.22656 233.468 8.44857 233.433 8.60254H232.595C232.67 7.99023 232.708 7.62321 232.708 7.50146C232.708 6.65283 232.194 6.22852 231.166 6.22852H228.658V11.75H230.419C230.946 11.75 231.358 11.7142 231.655 11.6426C231.952 11.571 232.179 11.4134 232.337 11.1699C232.494 10.9264 232.573 10.5487 232.573 10.0366H233.411C233.16 11.4761 233.035 12.5163 233.035 13.1572V14.6558H232.246C232.274 14.5233 232.289 14.3389 232.289 14.1025C232.289 13.1501 231.768 12.6738 230.726 12.6738H228.658V16.2617C228.658 17.0459 228.708 17.6349 228.808 18.0288C228.908 18.4227 229.057 18.6948 229.254 18.8452C229.454 18.9956 229.732 19.0941 230.086 19.1406C230.402 19.1872 230.681 19.2104 230.924 19.2104C231.193 19.2104 231.472 19.1872 231.762 19.1406C232.328 19.0618 232.82 18.8488 233.239 18.5015C233.658 18.1506 234.002 17.5275 234.271 16.6323H235.06C235.003 17.8426 234.818 18.6984 234.507 19.1997C234.195 19.701 233.792 20.0125 233.298 20.1343C233.166 20.1629 232.969 20.1772 232.708 20.1772C232.5 20.1772 232.206 20.1629 231.827 20.1343C231.587 20.1128 231.358 20.0949 231.139 20.0806C230.921 20.0662 230.468 20.0322 229.78 19.9785C229.383 19.9535 229.05 19.9338 228.781 19.9194C228.513 19.9051 228.246 19.8944 227.981 19.8872C227.716 19.88 227.444 19.8729 227.165 19.8657H225.908C225.84 19.8729 225.722 19.8908 225.553 19.9194C225.385 19.9445 225.261 19.9606 225.183 19.9678C225.107 19.9749 225.034 19.9785 224.962 19.9785H224.146V19.1406H224.565C225.084 19.1406 225.426 18.8613 225.591 18.3027C225.759 17.7406 225.843 17.0298 225.843 16.1704V9.26318C225.843 7.01807 225.41 5.89551 224.543 5.89551H224.146V5.06299ZM236.72 23.6738H235.597C235.919 21.9443 236.081 20.2435 236.081 18.5713C236.542 18.6895 237.056 18.7485 237.622 18.7485C237.783 18.7485 237.941 18.6429 238.095 18.4316C238.249 18.2204 238.426 17.8641 238.626 17.3628C238.827 16.8615 239.031 16.2957 239.239 15.6655C239.45 15.0353 239.93 13.5833 240.678 11.3096C241.581 8.58822 242.234 6.44694 242.639 4.88574C243.305 4.82845 244.001 4.7264 244.728 4.57959C245.236 6.71012 245.931 9.15039 246.812 11.9004C247.696 14.6504 248.395 16.609 248.907 17.7764C249.075 18.1344 249.25 18.394 249.433 18.5552C249.619 18.7127 249.913 18.7915 250.314 18.7915C250.668 18.7915 251.123 18.7181 251.678 18.5713C251.42 20.2757 251.053 21.9766 250.577 23.6738H249.524C249.729 23.0221 249.831 22.186 249.831 21.1655C249.831 20.675 249.644 20.3581 249.272 20.2148C248.9 20.0716 248.418 20 247.827 20C247.476 20 246.864 20.0143 245.99 20.043C245.117 20.0716 244.388 20.0859 243.804 20.0859C242.118 20.0859 240.791 20.0645 239.824 20.0215C239.763 20.0215 239.677 20.0179 239.566 20.0107C239.455 20.0036 239.371 20 239.314 20C238.809 20 238.397 20.0841 238.079 20.2524C237.764 20.4207 237.491 20.7681 237.262 21.2944C237.037 21.8244 236.856 22.6175 236.72 23.6738ZM243.058 7.5498H242.88C242.741 8.21224 242.467 9.25423 242.059 10.6758C241.65 12.0938 240.927 14.2493 239.889 17.1426C239.778 17.4505 239.69 17.694 239.625 17.873C239.561 18.0521 239.443 18.3797 239.271 18.856C240.567 18.9276 241.77 18.9634 242.88 18.9634C243.779 18.9634 244.945 18.9276 246.377 18.856C246.295 18.6232 246.236 18.4585 246.2 18.3618C246.164 18.2616 246.107 18.104 246.028 17.8892C245.949 17.6707 245.876 17.472 245.808 17.293C245.439 16.2617 245.006 14.9637 244.508 13.3989C243.602 10.5522 243.118 8.60254 243.058 7.5498ZM257.565 5.06299V5.89551H257.082C256.91 5.89551 256.766 5.95459 256.652 6.07275C256.541 6.18734 256.485 6.32699 256.485 6.4917C256.485 6.6958 256.566 6.87842 256.727 7.03955L258.29 8.7583C258.584 9.07699 258.931 9.44222 259.332 9.854C259.733 10.2658 260.097 10.6418 260.422 10.9819C260.734 11.3042 261.153 11.7285 261.679 12.2549C260.619 13.4437 259.38 15.021 257.962 16.9868C257.418 17.7495 256.971 18.3385 256.62 18.7539C256.272 19.1657 255.882 19.4987 255.449 19.7529C255.019 20.0072 254.521 20.1343 253.956 20.1343C253.755 20.1343 253.542 20.1128 253.316 20.0698C253.091 20.0304 252.833 19.9678 252.543 19.8818C252.257 19.7959 252.024 19.7261 251.845 19.6724V18.7915C252.31 19.0243 252.729 19.1406 253.102 19.1406C253.427 19.1406 253.744 18.9491 254.052 18.5659C254.36 18.1828 254.792 17.5293 255.347 16.6055C255.905 15.6816 256.424 14.8921 256.904 14.2368C257.388 13.578 257.953 12.9836 258.602 12.4536C259.049 12.0776 259.525 11.8073 260.03 11.6426C259.78 11.4349 259.493 11.1699 259.171 10.8477C258 9.68034 257.048 8.76367 256.313 8.09766C255.579 7.43164 254.989 6.94108 254.541 6.62598C254.093 6.30729 253.737 6.10677 253.472 6.02441C253.211 5.93848 252.917 5.89551 252.591 5.89551H252.285V5.06299H252.769C253.094 5.06299 253.334 5.07194 253.488 5.08984C253.646 5.10417 253.807 5.13102 253.972 5.17041C254.136 5.20622 254.258 5.23128 254.337 5.24561C254.416 5.25635 254.582 5.26172 254.836 5.26172C255.023 5.26172 255.259 5.24382 255.545 5.20801C255.835 5.16862 256.04 5.14176 256.158 5.12744C256.251 5.12028 256.408 5.10775 256.63 5.08984C256.852 5.07194 257.017 5.06299 257.125 5.06299H257.565ZM269.07 5.06299H269.51C269.625 5.06299 269.79 5.07194 270.004 5.08984C270.219 5.10775 270.377 5.12028 270.477 5.12744C270.581 5.13818 270.78 5.16325 271.073 5.20264C271.367 5.24202 271.609 5.26172 271.798 5.26172C272.053 5.26172 272.224 5.25635 272.314 5.24561C272.403 5.23128 272.527 5.20622 272.685 5.17041C272.846 5.13102 273 5.10417 273.146 5.08984C273.297 5.07194 273.537 5.06299 273.866 5.06299H274.35V5.89551H274.043C273.721 5.89551 273.429 5.93848 273.168 6.02441C272.907 6.10677 272.549 6.30908 272.094 6.63135C271.643 6.95003 271.057 7.43701 270.337 8.09229C269.618 8.74398 268.66 9.66243 267.464 10.8477C267.142 11.1699 266.855 11.4349 266.604 11.6426C267.109 11.8073 267.587 12.0776 268.039 12.4536C268.694 12.9871 269.27 13.5977 269.768 14.2852C270.269 14.9691 270.794 15.7658 271.342 16.6753C271.89 17.5848 272.31 18.224 272.604 18.5928C272.901 18.958 273.213 19.1406 273.539 19.1406C273.907 19.1406 274.325 19.0243 274.79 18.7915V19.6724C274.518 19.7511 274.258 19.8281 274.011 19.9033C273.768 19.9749 273.533 20.0304 273.308 20.0698C273.086 20.1128 272.876 20.1343 272.679 20.1343C272.113 20.1343 271.614 20.0072 271.181 19.7529C270.751 19.4987 270.361 19.1657 270.01 18.7539C269.662 18.3385 269.217 17.7495 268.672 16.9868C267.254 15.021 266.015 13.4437 264.956 12.2549C265.457 11.7572 265.876 11.3328 266.212 10.9819C266.789 10.3875 267.233 9.9292 267.544 9.60693C267.86 9.28109 268.126 8.99821 268.345 8.7583L269.908 7.03955C270.069 6.882 270.149 6.69938 270.149 6.4917C270.149 6.32699 270.092 6.18734 269.978 6.07275C269.867 5.95459 269.725 5.89551 269.553 5.89551H269.07V5.06299ZM260.557 5.06299H261.282C261.511 5.06299 261.819 5.0988 262.206 5.17041C262.578 5.23128 262.952 5.26172 263.328 5.26172C263.718 5.26172 264.085 5.23128 264.429 5.17041C264.816 5.0988 265.124 5.06299 265.353 5.06299H266.078V5.89551H265.616C265.255 5.89551 264.988 6.03158 264.816 6.30371C264.648 6.57227 264.54 6.92318 264.494 7.35645C264.451 7.78971 264.429 8.36621 264.429 9.08594V15.2896V15.7783C264.429 16.7451 264.506 17.5508 264.66 18.1953C264.814 18.8398 265.154 19.1621 265.681 19.1621H266.121V20H265.332C265.167 20 264.873 19.9481 264.451 19.8442C264.157 19.7726 263.783 19.7368 263.328 19.7368C262.859 19.7368 262.478 19.7726 262.184 19.8442C261.762 19.9481 261.468 20 261.303 20H260.514V19.1621H260.954C261.48 19.1621 261.821 18.8398 261.975 18.1953C262.129 17.5508 262.206 16.7451 262.206 15.7783V15.2896V9.08594C262.206 7.99382 262.136 7.18994 261.996 6.67432C261.86 6.15511 261.534 5.89551 261.019 5.89551H260.557V5.06299Z" fill="black"/>
<path d="M57.2842 47H56.4185C56.3247 47 56.127 46.9707 55.8252 46.9121C55.5527 46.8623 55.2349 46.8374 54.8716 46.8374C54.4438 46.8374 54.1187 46.8623 53.896 46.9121C53.6323 46.9707 53.4404 47 53.3203 47H52.4766V46.4595H52.9072C53.3232 46.4595 53.5957 46.2632 53.7246 45.8706C53.8535 45.478 53.918 44.8701 53.918 44.0469C53.918 43.833 53.9136 43.5884 53.9048 43.313C53.8989 43.0376 53.896 42.8149 53.896 42.645V42.1572C53.896 41.5801 53.8726 41.1509 53.8257 40.8696C53.7788 40.5854 53.6646 40.3701 53.4829 40.2236C53.3013 40.0742 53.0142 39.9995 52.6216 39.9995C52.3696 39.9995 52.1646 40.0112 52.0063 40.0347V39.3843H52.6743C53.187 39.3843 53.7773 39.3315 54.4453 39.2261C55.1133 39.1177 55.6875 38.9785 56.168 38.8086C56.0127 39.7871 55.916 41.0469 55.8779 42.5879V44.1392C55.8867 44.7104 55.9014 45.1279 55.9219 45.3916C55.9424 45.6553 56.0229 45.8999 56.1636 46.1255C56.3042 46.3481 56.5327 46.4595 56.8491 46.4595H57.2842V47ZM53.3203 35.7148C53.3203 35.3867 53.436 35.0952 53.6675 34.8403C53.8989 34.5825 54.2095 34.4536 54.5991 34.4536C54.9712 34.4536 55.2715 34.5649 55.5 34.7876C55.7285 35.0103 55.8428 35.3193 55.8428 35.7148C55.8428 36.1396 55.7124 36.459 55.4517 36.6729C55.1938 36.8867 54.9097 36.9937 54.5991 36.9937C54.2241 36.9937 53.9165 36.8618 53.6763 36.5981C53.439 36.3345 53.3203 36.04 53.3203 35.7148ZM64.333 44.8203H64.5659C64.7124 44.4102 65.0244 43.7026 65.502 42.6978C66.2314 41.2271 66.7412 40.0024 67.0312 39.0239L68.6353 38.6108C68.7905 40.3101 68.9502 41.6914 69.1143 42.7549C69.2812 43.8184 69.4468 44.6182 69.6108 45.1543C69.7778 45.6904 69.9346 46.042 70.0811 46.209C70.2275 46.376 70.3813 46.4595 70.5425 46.4595H71.083V47H70.4502C70.2334 47 69.9272 46.9634 69.5317 46.8901C69.2329 46.8315 68.9575 46.8022 68.7056 46.8022C68.4272 46.8022 68.1211 46.8359 67.7871 46.9033C67.4561 46.9678 67.1982 47 67.0137 47H66.4204V46.4595H66.7061C67.2217 46.4595 67.4795 46.2441 67.4795 45.8135C67.4795 45.4619 67.4326 44.9814 67.3389 44.3721C67.1338 43.124 67.0312 42.0195 67.0312 41.0586V40.8608H66.8687C66.6606 41.564 66.2769 42.4648 65.7173 43.5635C65.187 44.5859 64.689 45.7314 64.2231 47H63.5947C63.249 46.1123 62.7319 45.002 62.0435 43.6689C61.6011 42.8047 61.3081 42.2217 61.1646 41.9199C61.0239 41.6182 60.8921 41.2651 60.769 40.8608H60.5889C60.5303 41.3062 60.4219 42.0503 60.2637 43.0933C60.2051 43.4565 60.1538 43.7686 60.1099 44.0293C60.0688 44.29 60.0352 44.5449 60.0088 44.7939C59.9854 45.043 59.9736 45.292 59.9736 45.541C59.9736 45.8398 60.0205 46.0684 60.1143 46.2266C60.2109 46.3818 60.3208 46.4595 60.4438 46.4595H61.1646V47H60.7515C60.6665 47 60.4438 46.9707 60.0835 46.9121C59.814 46.8506 59.5679 46.8198 59.3452 46.8198C59.0757 46.8198 58.8296 46.8433 58.6069 46.8901C58.5337 46.9048 58.4531 46.9224 58.3652 46.9429C58.2803 46.9604 58.2041 46.9751 58.1367 46.9868C58.0693 46.9956 58.0107 47 57.9609 47H57.583V46.4595H58.0312C58.3477 46.4595 58.6069 46.2822 58.8091 45.9277C59.0142 45.5732 59.1665 45.1924 59.2661 44.7852C59.3657 44.3779 59.4888 43.8022 59.6353 43.0581C59.7964 42.229 59.9106 41.5903 59.978 41.1421C60.0454 40.6938 60.1099 39.9878 60.1714 39.0239C60.7339 38.9448 61.2627 38.8071 61.7578 38.6108C62.373 40.3628 63.1465 42.2114 64.0781 44.1567C64.1895 44.3735 64.2744 44.5947 64.333 44.8203ZM71.7817 45.8486C71.7817 45.4209 71.9004 45.0796 72.1377 44.8247C72.375 44.5698 72.6519 44.4424 72.9683 44.4424C73.2788 44.4424 73.5601 44.5713 73.812 44.8291C74.0669 45.084 74.1943 45.4238 74.1943 45.8486C74.1943 46.2354 74.0801 46.5635 73.8516 46.833C73.626 47.0996 73.3315 47.2329 72.9683 47.2329C72.6431 47.2329 72.3633 47.1113 72.1289 46.8682C71.8975 46.6221 71.7817 46.2822 71.7817 45.8486ZM93.1392 44.2271H93.8071C93.646 45.0884 93.3691 45.7402 92.9766 46.1826C92.584 46.6221 92.0728 46.9121 91.4429 47.0527C90.8159 47.1963 89.978 47.2681 88.9292 47.2681C87.8862 47.2681 86.9238 47.1069 86.042 46.7847C85.1602 46.4624 84.397 46.0068 83.7524 45.418C83.1108 44.8262 82.6187 44.1362 82.2759 43.3481C81.9331 42.5601 81.7617 41.7075 81.7617 40.7905C81.7617 39.7329 81.9844 38.7295 82.4297 37.7803C82.8779 36.8281 83.6001 36.0474 84.5962 35.438C85.5952 34.8286 86.8711 34.5239 88.4238 34.5239C88.8838 34.5239 89.2544 34.54 89.5356 34.5723C89.8198 34.6016 90.1084 34.647 90.4014 34.7085C90.6973 34.7671 90.958 34.811 91.1836 34.8403C91.4092 34.8696 91.7197 34.8843 92.1152 34.8843C92.6631 34.8843 93.1069 34.8608 93.4468 34.814C93.3706 35.3003 93.3223 35.8276 93.3018 36.396C93.29 36.9263 93.2842 37.4609 93.2842 38H92.5811C92.5811 37.4111 92.417 36.9116 92.0889 36.5015C91.7637 36.0913 91.3301 35.7866 90.7881 35.5874C90.2461 35.3853 89.6616 35.2842 89.0347 35.2842C88.1558 35.2842 87.3604 35.4951 86.6484 35.917C85.9365 36.3359 85.3755 36.9453 84.9653 37.7451C84.5581 38.5449 84.3545 39.4883 84.3545 40.5752C84.3545 41.8262 84.5962 42.8999 85.0796 43.7964C85.563 44.6929 86.1841 45.3696 86.9429 45.8267C87.7046 46.2837 88.4795 46.5122 89.2676 46.5122C90.0205 46.5122 90.7778 46.2925 91.5396 45.853C92.3042 45.4136 92.8374 44.8716 93.1392 44.2271ZM97.5425 41.0762L95.165 42.0342C95.1064 41.8672 95.0771 41.6812 95.0771 41.4761C95.0771 40.9399 95.3291 40.4697 95.833 40.0654C96.3369 39.6611 96.9595 39.3535 97.7007 39.1426C98.4419 38.9316 99.145 38.8262 99.8101 38.8262C100.578 38.8262 101.096 39.04 101.366 39.4678C101.635 39.8955 101.77 40.354 101.77 40.8433C101.77 41.3208 101.741 41.8496 101.682 42.4297C101.626 42.9482 101.578 43.3701 101.537 43.6953C101.499 44.0176 101.471 44.2461 101.454 44.3809C101.439 44.5127 101.424 44.6475 101.41 44.7852C101.398 44.9199 101.392 45.0342 101.392 45.1279C101.392 45.3975 101.448 45.6304 101.559 45.8267C101.67 46.02 101.795 46.1167 101.933 46.1167C102.097 46.1167 102.338 45.998 102.658 45.7607C102.977 45.5205 103.222 45.292 103.392 45.0752V45.9761C102.779 46.4741 102.292 46.8198 101.928 47.0132C101.568 47.2095 101.251 47.3076 100.979 47.3076C100.548 47.3076 100.214 47.1714 99.9771 46.8989C99.7397 46.6235 99.5815 46.3159 99.5024 45.9761C99.0161 46.4448 98.5415 46.7847 98.0786 46.9956C97.6157 47.2036 97.1118 47.3076 96.5669 47.3076C96.1216 47.3076 95.7554 47.2168 95.4683 47.0352C95.1841 46.8564 94.9775 46.6382 94.8486 46.3804C94.7227 46.1226 94.6597 45.8735 94.6597 45.6333C94.6597 45.1763 94.8589 44.7544 95.2573 44.3677C95.6587 43.978 96.2358 43.6558 96.9888 43.4009C97.7417 43.1431 98.6279 42.9746 99.6475 42.8955C99.6826 42.5352 99.7002 42.1748 99.7002 41.8145C99.7002 40.3643 99.293 39.6392 98.4785 39.6392C98.2031 39.6392 97.9629 39.7329 97.7578 39.9204C97.5527 40.105 97.4502 40.3408 97.4502 40.6279C97.4502 40.7568 97.481 40.9062 97.5425 41.0762ZM99.6123 43.4536C99.2754 43.4741 98.9092 43.5327 98.5137 43.6294C98.1211 43.7231 97.7651 43.896 97.4458 44.1479C97.1265 44.3999 96.9668 44.7383 96.9668 45.1631C96.9668 45.5088 97.0547 45.7637 97.2305 45.9277C97.4092 46.0918 97.626 46.1738 97.8809 46.1738C98.2119 46.1738 98.5093 46.0405 98.7729 45.7739C99.0396 45.5073 99.2461 45.1646 99.3926 44.7456C99.5391 44.3237 99.6123 43.8931 99.6123 43.4536ZM103.405 46.4595H103.712C103.891 46.4595 104.046 46.4199 104.178 46.3408C104.31 46.2588 104.423 46.1475 104.517 46.0068C104.61 45.8633 104.697 45.6978 104.776 45.5103C104.855 45.3198 104.962 45.0605 105.097 44.7324C105.223 44.4248 105.388 44.022 105.593 43.5239C105.801 43.0229 105.977 42.5894 106.121 42.2231C106.267 41.854 106.45 41.3662 106.67 40.7598C106.89 40.1533 107.098 39.5571 107.294 38.9712C107.877 38.8423 108.381 38.6738 108.806 38.4658L109.219 39.7271L111.056 44.5171C111.313 45.1616 111.551 45.6465 111.768 45.9717C111.984 46.2969 112.233 46.4595 112.515 46.4595H112.963V47H112.55C112.453 47 112.195 46.9707 111.776 46.9121C111.425 46.8506 111.107 46.8198 110.823 46.8198C110.471 46.8198 110.224 46.8418 110.08 46.8857C109.937 46.9297 109.815 46.9604 109.715 46.978C109.616 46.9927 109.277 47 108.7 47H108.357V46.4595H108.863C108.977 46.4595 109.077 46.395 109.162 46.2661C109.25 46.1372 109.293 45.9731 109.293 45.7739C109.293 45.5396 109.257 45.3301 109.184 45.1455L107.672 40.7378L107.602 40.2324V40.0698H107.457C107.389 40.6147 107.197 41.2988 106.881 42.1221C106.102 44.1875 105.712 45.3579 105.712 45.6333C105.712 46.1841 105.844 46.4595 106.107 46.4595H106.666V47H106.213C106.172 47 106.121 46.9956 106.059 46.9868C106 46.9751 105.942 46.9604 105.883 46.9429C105.825 46.9253 105.762 46.9077 105.694 46.8901C105.519 46.8433 105.313 46.8198 105.079 46.8198C104.892 46.8198 104.634 46.8564 104.306 46.9297C104.065 46.9766 103.885 47 103.765 47H103.405V46.4595ZM113.438 39.0635H114.374C114.543 39.0635 114.807 39.0869 115.165 39.1338C115.475 39.1807 115.704 39.2041 115.85 39.2041C116.005 39.2041 116.238 39.1807 116.549 39.1338C116.912 39.0869 117.177 39.0635 117.344 39.0635H118.28V39.604H117.845C117.461 39.604 117.204 39.7358 117.072 39.9995C116.94 40.2603 116.874 40.7393 116.874 41.4365V42.4648C117.36 42.3564 117.81 42.3022 118.223 42.3022C118.967 42.3022 119.604 42.4033 120.135 42.6055C120.668 42.8047 121.071 43.0845 121.343 43.4448C121.616 43.8022 121.752 44.2139 121.752 44.6797C121.752 45.3447 121.526 45.916 121.075 46.3936C120.627 46.8711 119.742 47.1099 118.421 47.1099C117.855 47.1099 117.371 47.0732 116.966 47C116.878 46.9883 116.713 46.959 116.47 46.9121C116.227 46.8623 116.032 46.8374 115.885 46.8374C115.241 46.8374 114.87 46.8652 114.773 46.9209C114.677 46.9736 114.435 47 114.048 47H113.438V46.4595H113.921C114.343 46.4595 114.611 46.269 114.725 45.8882C114.839 45.5044 114.896 44.9155 114.896 44.1216V42.0869C114.896 41.4248 114.866 40.9165 114.804 40.562C114.743 40.2046 114.639 39.9556 114.492 39.8149C114.349 39.6743 114.141 39.604 113.868 39.604H113.438V39.0635ZM116.874 42.9658V44.7324C116.874 45.2217 116.893 45.5908 116.931 45.8398C116.972 46.0889 117.075 46.2822 117.239 46.4199C117.403 46.5547 117.665 46.6221 118.025 46.6221C118.509 46.6221 118.891 46.458 119.172 46.1299C119.454 45.7988 119.594 45.3813 119.594 44.8774C119.594 44.2827 119.423 43.8066 119.08 43.4492C118.74 43.0918 118.305 42.9131 117.775 42.9131C117.409 42.9131 117.108 42.9307 116.874 42.9658ZM122.561 39.604V39.0635H123.316C123.416 39.0635 123.693 39.0928 124.147 39.1514C124.449 39.1865 124.753 39.2041 125.061 39.2041C125.401 39.2041 125.893 39.1572 126.538 39.0635C126.907 39.002 127.255 38.9712 127.583 38.9712C128.445 38.9712 129.092 39.1587 129.526 39.5337C129.959 39.9087 130.176 40.376 130.176 40.9355C130.176 41.498 129.976 41.9053 129.574 42.1572C129.173 42.4062 128.736 42.5498 128.265 42.5879V42.7329C129.935 42.9292 130.77 43.6616 130.77 44.9302C130.77 45.2905 130.686 45.6318 130.519 45.9541C130.352 46.2764 130.065 46.543 129.658 46.7539C129.25 46.9648 128.714 47.0703 128.049 47.0703C127.387 47.0703 126.829 47.0352 126.375 46.9648C125.924 46.8799 125.426 46.8374 124.881 46.8374C124.459 46.8374 124.185 46.8477 124.059 46.8682C123.933 46.8857 123.81 46.9121 123.69 46.9473C123.57 46.9824 123.434 47 123.281 47H122.561V46.4595H122.921C123.618 46.4595 123.967 45.8662 123.967 44.6797V41.5112C123.967 41.0864 123.949 40.7437 123.914 40.4829C123.882 40.2192 123.798 40.0068 123.664 39.8457C123.529 39.6846 123.318 39.604 123.031 39.604H122.561ZM126.397 43.2207V42.7153C126.467 42.7271 126.688 42.7329 127.061 42.7329C127.494 42.7329 127.821 42.5674 128.041 42.2363C128.263 41.9053 128.375 41.5127 128.375 41.0586C128.375 40.7158 128.256 40.4185 128.019 40.1665C127.781 39.9116 127.444 39.7842 127.008 39.7842C126.627 39.7842 126.309 39.8076 126.054 39.8545C125.981 41.2285 125.944 41.9727 125.944 42.0869V44.9478C125.944 46.0171 126.25 46.5518 126.863 46.5518C127.311 46.5518 127.717 46.4463 128.08 46.2354C128.443 46.0215 128.625 45.6641 128.625 45.1631C128.625 44.5889 128.499 44.1187 128.247 43.7524C127.998 43.3862 127.608 43.2031 127.078 43.2031C126.729 43.2031 126.502 43.209 126.397 43.2207ZM134.439 41.0762L132.062 42.0342C132.003 41.8672 131.974 41.6812 131.974 41.4761C131.974 40.9399 132.226 40.4697 132.729 40.0654C133.233 39.6611 133.856 39.3535 134.597 39.1426C135.338 38.9316 136.042 38.8262 136.707 38.8262C137.474 38.8262 137.993 39.04 138.262 39.4678C138.532 39.8955 138.667 40.354 138.667 40.8433C138.667 41.3208 138.637 41.8496 138.579 42.4297C138.523 42.9482 138.475 43.3701 138.434 43.6953C138.396 44.0176 138.368 44.2461 138.35 44.3809C138.335 44.5127 138.321 44.6475 138.306 44.7852C138.294 44.9199 138.289 45.0342 138.289 45.1279C138.289 45.3975 138.344 45.6304 138.456 45.8267C138.567 46.02 138.691 46.1167 138.829 46.1167C138.993 46.1167 139.235 45.998 139.554 45.7607C139.874 45.5205 140.118 45.292 140.288 45.0752V45.9761C139.676 46.4741 139.188 46.8198 138.825 47.0132C138.464 47.2095 138.148 47.3076 137.875 47.3076C137.445 47.3076 137.111 47.1714 136.874 46.8989C136.636 46.6235 136.478 46.3159 136.399 45.9761C135.913 46.4448 135.438 46.7847 134.975 46.9956C134.512 47.2036 134.008 47.3076 133.463 47.3076C133.018 47.3076 132.652 47.2168 132.365 47.0352C132.081 46.8564 131.874 46.6382 131.745 46.3804C131.619 46.1226 131.556 45.8735 131.556 45.6333C131.556 45.1763 131.755 44.7544 132.154 44.3677C132.555 43.978 133.132 43.6558 133.885 43.4009C134.638 43.1431 135.524 42.9746 136.544 42.8955C136.579 42.5352 136.597 42.1748 136.597 41.8145C136.597 40.3643 136.189 39.6392 135.375 39.6392C135.1 39.6392 134.859 39.7329 134.654 39.9204C134.449 40.105 134.347 40.3408 134.347 40.6279C134.347 40.7568 134.377 40.9062 134.439 41.0762ZM136.509 43.4536C136.172 43.4741 135.806 43.5327 135.41 43.6294C135.018 43.7231 134.662 43.896 134.342 44.1479C134.023 44.3999 133.863 44.7383 133.863 45.1631C133.863 45.5088 133.951 45.7637 134.127 45.9277C134.306 46.0918 134.522 46.1738 134.777 46.1738C135.108 46.1738 135.406 46.0405 135.669 45.7739C135.936 45.5073 136.143 45.1646 136.289 44.7456C136.436 44.3237 136.509 43.8931 136.509 43.4536ZM144.12 38.9536L145.632 38.5229L147.952 45.3608C148.052 45.6216 148.15 45.8252 148.247 45.9717C148.346 46.1182 148.512 46.1914 148.743 46.1914C149.118 46.1914 149.479 46.1489 149.824 46.064C149.613 46.5708 149.451 46.9766 149.336 47.2812C149.225 47.5889 149.117 47.917 149.011 48.2656C148.906 48.6172 148.775 49.0537 148.62 49.5752H147.864C147.923 49.3584 147.981 49.0698 148.04 48.7095C148.102 48.3491 148.132 48.062 148.132 47.8481C148.132 47.2827 147.683 47 146.783 47H142.894C142.452 47 142.042 47.1465 141.664 47.4395C141.286 47.7354 141.097 48.3389 141.097 49.25V49.5752H140.301V46.064C140.421 46.0786 140.555 46.0977 140.701 46.1211C140.848 46.1416 140.968 46.1519 141.062 46.1519C141.261 46.1519 141.428 46.0977 141.562 45.9893C141.697 45.8779 141.814 45.7227 141.914 45.5234C142.017 45.3213 142.125 45.0503 142.239 44.7104C142.354 44.3706 142.471 44.0234 142.591 43.6689C142.644 43.5107 142.816 43.0244 143.109 42.21C143.637 40.7686 143.974 39.6831 144.12 38.9536ZM144.388 40.7378H144.283C144.253 40.9985 144.114 41.5112 143.865 42.2759C143.619 43.0376 143.347 43.8125 143.048 44.6006C142.749 45.3887 142.525 45.9189 142.375 46.1914C143.24 46.25 143.887 46.2793 144.318 46.2793C144.816 46.2793 145.409 46.25 146.098 46.1914C145.23 43.8623 144.661 42.0444 144.388 40.7378ZM154.997 38.8262C155.922 38.8262 156.727 39.0049 157.409 39.3623C158.092 39.7197 158.613 40.2119 158.974 40.8389C159.334 41.4658 159.514 42.1631 159.514 42.9307C159.514 43.7393 159.313 44.479 158.912 45.1499C158.514 45.8179 157.947 46.3452 157.211 46.7319C156.476 47.1157 155.635 47.3076 154.689 47.3076C153.883 47.3076 153.142 47.1318 152.465 46.7803C151.792 46.4258 151.258 45.938 150.866 45.3169C150.476 44.6929 150.281 44.0059 150.281 43.2559C150.281 42.6523 150.382 42.084 150.584 41.5508C150.787 41.0176 151.088 40.5459 151.49 40.1357C151.891 39.7256 152.386 39.4048 152.975 39.1733C153.567 38.9419 154.241 38.8262 154.997 38.8262ZM154.764 39.5645C154.468 39.5645 154.163 39.6509 153.85 39.8237C153.536 39.9937 153.265 40.3101 153.037 40.7729C152.808 41.2358 152.694 41.8716 152.694 42.6802C152.694 44.0864 152.95 45.0869 153.463 45.6816C153.976 46.2734 154.541 46.5693 155.159 46.5693C156.454 46.5693 157.102 45.4824 157.102 43.3086C157.102 42.5059 156.986 41.8203 156.754 41.252C156.523 40.6807 156.227 40.2573 155.867 39.9819C155.509 39.7036 155.142 39.5645 154.764 39.5645ZM165.715 51.4121H164.691C164.591 51.4121 164.369 51.3813 164.023 51.3198C163.759 51.2729 163.436 51.2495 163.052 51.2495C162.68 51.2495 162.362 51.2729 162.098 51.3198C161.782 51.3813 161.584 51.4121 161.505 51.4121H160.639V50.8716H161.07C161.527 50.8716 161.818 50.6621 161.944 50.2432C162.07 49.8271 162.133 49.2617 162.133 48.5469V43.2383C162.133 42.2012 162.117 41.4834 162.085 41.085C162.053 40.6865 161.962 40.4067 161.812 40.2456C161.666 40.0815 161.413 39.9995 161.052 39.9995C160.692 39.9995 160.392 40.0229 160.151 40.0698V39.4414C160.875 39.3799 161.414 39.3301 161.769 39.292C162.123 39.251 162.489 39.1909 162.867 39.1118C163.248 39.0327 163.657 38.9199 164.093 38.7734C164.02 39.21 163.96 39.7139 163.913 40.2852C164.625 39.7695 165.208 39.3945 165.662 39.1602C166.119 38.9258 166.617 38.8086 167.156 38.8086C167.678 38.8086 168.157 38.9492 168.593 39.2305C169.033 39.5088 169.383 39.916 169.644 40.4521C169.904 40.9883 170.035 41.6226 170.035 42.355C170.035 43.1431 169.838 43.9048 169.446 44.6401C169.056 45.3726 168.502 45.9673 167.785 46.4243C167.067 46.8813 166.257 47.1099 165.354 47.1099C164.78 47.1099 164.367 47.0791 164.115 47.0176V48.5469C164.115 49.3057 164.191 49.8828 164.344 50.2783C164.499 50.6738 164.807 50.8716 165.267 50.8716H165.715V51.4121ZM164.115 40.9707V46.354C164.353 46.4741 164.706 46.5342 165.174 46.5342C166.126 46.5342 166.805 46.1489 167.209 45.3784C167.616 44.6079 167.82 43.751 167.82 42.8076C167.82 41.9404 167.654 41.2461 167.323 40.7246C166.995 40.2031 166.542 39.9424 165.965 39.9424C165.397 39.9424 164.78 40.2852 164.115 40.9707ZM173.779 41.0762L171.401 42.0342C171.343 41.8672 171.313 41.6812 171.313 41.4761C171.313 40.9399 171.565 40.4697 172.069 40.0654C172.573 39.6611 173.196 39.3535 173.937 39.1426C174.678 38.9316 175.381 38.8262 176.046 38.8262C176.814 38.8262 177.333 39.04 177.602 39.4678C177.872 39.8955 178.006 40.354 178.006 40.8433C178.006 41.3208 177.977 41.8496 177.918 42.4297C177.863 42.9482 177.814 43.3701 177.773 43.6953C177.735 44.0176 177.708 44.2461 177.69 44.3809C177.675 44.5127 177.661 44.6475 177.646 44.7852C177.634 44.9199 177.628 45.0342 177.628 45.1279C177.628 45.3975 177.684 45.6304 177.795 45.8267C177.907 46.02 178.031 46.1167 178.169 46.1167C178.333 46.1167 178.575 45.998 178.894 45.7607C179.213 45.5205 179.458 45.292 179.628 45.0752V45.9761C179.016 46.4741 178.528 46.8198 178.165 47.0132C177.804 47.2095 177.488 47.3076 177.215 47.3076C176.785 47.3076 176.451 47.1714 176.213 46.8989C175.976 46.6235 175.818 46.3159 175.739 45.9761C175.252 46.4448 174.778 46.7847 174.315 46.9956C173.852 47.2036 173.348 47.3076 172.803 47.3076C172.358 47.3076 171.992 47.2168 171.705 47.0352C171.42 46.8564 171.214 46.6382 171.085 46.3804C170.959 46.1226 170.896 45.8735 170.896 45.6333C170.896 45.1763 171.095 44.7544 171.494 44.3677C171.895 43.978 172.472 43.6558 173.225 43.4009C173.978 43.1431 174.864 42.9746 175.884 42.8955C175.919 42.5352 175.937 42.1748 175.937 41.8145C175.937 40.3643 175.529 39.6392 174.715 39.6392C174.439 39.6392 174.199 39.7329 173.994 39.9204C173.789 40.105 173.687 40.3408 173.687 40.6279C173.687 40.7568 173.717 40.9062 173.779 41.0762ZM175.849 43.4536C175.512 43.4741 175.146 43.5327 174.75 43.6294C174.357 43.7231 174.001 43.896 173.682 44.1479C173.363 44.3999 173.203 44.7383 173.203 45.1631C173.203 45.5088 173.291 45.7637 173.467 45.9277C173.646 46.0918 173.862 46.1738 174.117 46.1738C174.448 46.1738 174.746 46.0405 175.009 45.7739C175.276 45.5073 175.482 45.1646 175.629 44.7456C175.775 44.3237 175.849 43.8931 175.849 43.4536ZM186.817 50.0059H185.899C186.163 48.5908 186.294 47.1992 186.294 45.8311C186.672 45.9277 187.093 45.9761 187.556 45.9761C187.688 45.9761 187.816 45.8896 187.942 45.7168C188.068 45.5439 188.213 45.2524 188.377 44.8423C188.542 44.4321 188.708 43.9692 188.878 43.4536C189.051 42.938 189.444 41.75 190.056 39.8896C190.794 37.6631 191.329 35.9111 191.66 34.6338C192.205 34.5869 192.775 34.5034 193.37 34.3833C193.786 36.1265 194.354 38.123 195.075 40.373C195.798 42.623 196.37 44.2256 196.789 45.1807C196.926 45.4736 197.07 45.686 197.219 45.8179C197.372 45.9468 197.612 46.0112 197.94 46.0112C198.23 46.0112 198.602 45.9512 199.056 45.8311C198.845 47.2256 198.545 48.6172 198.155 50.0059H197.294C197.461 49.4727 197.544 48.7886 197.544 47.9536C197.544 47.5522 197.392 47.293 197.087 47.1758C196.783 47.0586 196.389 47 195.905 47C195.618 47 195.117 47.0117 194.402 47.0352C193.688 47.0586 193.091 47.0703 192.614 47.0703C191.234 47.0703 190.148 47.0527 189.357 47.0176C189.308 47.0176 189.237 47.0146 189.146 47.0088C189.056 47.0029 188.987 47 188.94 47C188.527 47 188.19 47.0688 187.929 47.2065C187.671 47.3442 187.449 47.6284 187.261 48.0591C187.077 48.4927 186.929 49.1416 186.817 50.0059ZM192.003 36.8135H191.858C191.744 37.3555 191.52 38.208 191.186 39.3711C190.852 40.5312 190.26 42.2949 189.41 44.6621C189.319 44.9141 189.248 45.1133 189.195 45.2598C189.142 45.4062 189.045 45.6743 188.905 46.064C189.965 46.1226 190.95 46.1519 191.858 46.1519C192.593 46.1519 193.547 46.1226 194.719 46.064C194.651 45.8735 194.603 45.7388 194.574 45.6597C194.544 45.5776 194.498 45.4487 194.433 45.2729C194.369 45.0942 194.309 44.9316 194.253 44.7852C193.951 43.9414 193.597 42.8794 193.189 41.5991C192.448 39.27 192.053 37.6748 192.003 36.8135ZM202.308 41.0762L199.931 42.0342C199.872 41.8672 199.843 41.6812 199.843 41.4761C199.843 40.9399 200.095 40.4697 200.599 40.0654C201.103 39.6611 201.725 39.3535 202.466 39.1426C203.208 38.9316 203.911 38.8262 204.576 38.8262C205.343 38.8262 205.862 39.04 206.131 39.4678C206.401 39.8955 206.536 40.354 206.536 40.8433C206.536 41.3208 206.506 41.8496 206.448 42.4297C206.392 42.9482 206.344 43.3701 206.303 43.6953C206.265 44.0176 206.237 44.2461 206.219 44.3809C206.205 44.5127 206.19 44.6475 206.175 44.7852C206.164 44.9199 206.158 45.0342 206.158 45.1279C206.158 45.3975 206.213 45.6304 206.325 45.8267C206.436 46.02 206.561 46.1167 206.698 46.1167C206.862 46.1167 207.104 45.998 207.423 45.7607C207.743 45.5205 207.987 45.292 208.157 45.0752V45.9761C207.545 46.4741 207.057 46.8198 206.694 47.0132C206.333 47.2095 206.017 47.3076 205.745 47.3076C205.314 47.3076 204.98 47.1714 204.743 46.8989C204.505 46.6235 204.347 46.3159 204.268 45.9761C203.782 46.4448 203.307 46.7847 202.844 46.9956C202.381 47.2036 201.877 47.3076 201.333 47.3076C200.887 47.3076 200.521 47.2168 200.234 47.0352C199.95 46.8564 199.743 46.6382 199.614 46.3804C199.488 46.1226 199.425 45.8735 199.425 45.6333C199.425 45.1763 199.625 44.7544 200.023 44.3677C200.424 43.978 201.001 43.6558 201.754 43.4009C202.507 43.1431 203.394 42.9746 204.413 42.8955C204.448 42.5352 204.466 42.1748 204.466 41.8145C204.466 40.3643 204.059 39.6392 203.244 39.6392C202.969 39.6392 202.729 39.7329 202.523 39.9204C202.318 40.105 202.216 40.3408 202.216 40.6279C202.216 40.7568 202.247 40.9062 202.308 41.0762ZM204.378 43.4536C204.041 43.4741 203.675 43.5327 203.279 43.6294C202.887 43.7231 202.531 43.896 202.211 44.1479C201.892 44.3999 201.732 44.7383 201.732 45.1631C201.732 45.5088 201.82 45.7637 201.996 45.9277C202.175 46.0918 202.392 46.1738 202.646 46.1738C202.978 46.1738 203.275 46.0405 203.539 45.7739C203.805 45.5073 204.012 45.1646 204.158 44.7456C204.305 44.3237 204.378 43.8931 204.378 43.4536ZM208.17 46.4595H208.478C208.657 46.4595 208.812 46.4199 208.944 46.3408C209.076 46.2588 209.188 46.1475 209.282 46.0068C209.376 45.8633 209.462 45.6978 209.542 45.5103C209.621 45.3198 209.728 45.0605 209.862 44.7324C209.988 44.4248 210.154 44.022 210.359 43.5239C210.567 43.0229 210.743 42.5894 210.886 42.2231C211.033 41.854 211.216 41.3662 211.436 40.7598C211.655 40.1533 211.863 39.5571 212.06 38.9712C212.643 38.8423 213.146 38.6738 213.571 38.4658L213.984 39.7271L215.821 44.5171C216.079 45.1616 216.316 45.6465 216.533 45.9717C216.75 46.2969 216.999 46.4595 217.28 46.4595H217.729V47H217.315C217.219 47 216.961 46.9707 216.542 46.9121C216.19 46.8506 215.873 46.8198 215.588 46.8198C215.237 46.8198 214.989 46.8418 214.846 46.8857C214.702 46.9297 214.581 46.9604 214.481 46.978C214.381 46.9927 214.043 47 213.466 47H213.123V46.4595H213.628C213.743 46.4595 213.842 46.395 213.927 46.2661C214.015 46.1372 214.059 45.9731 214.059 45.7739C214.059 45.5396 214.022 45.3301 213.949 45.1455L212.438 40.7378L212.367 40.2324V40.0698H212.222C212.155 40.6147 211.963 41.2988 211.646 42.1221C210.867 44.1875 210.478 45.3579 210.478 45.6333C210.478 46.1841 210.609 46.4595 210.873 46.4595H211.431V47H210.979C210.938 47 210.886 46.9956 210.825 46.9868C210.766 46.9751 210.708 46.9604 210.649 46.9429C210.59 46.9253 210.527 46.9077 210.46 46.8901C210.284 46.8433 210.079 46.8198 209.845 46.8198C209.657 46.8198 209.399 46.8564 209.071 46.9297C208.831 46.9766 208.651 47 208.531 47H208.17V46.4595ZM220.83 37.172V47H218.148V37.172H220.83ZM219.498 33.32C219.894 33.32 220.236 33.416 220.524 33.608C220.812 33.788 220.956 34.13 220.956 34.634C220.956 35.126 220.812 35.468 220.524 35.66C220.236 35.852 219.894 35.948 219.498 35.948C219.09 35.948 218.742 35.852 218.454 35.66C218.178 35.468 218.04 35.126 218.04 34.634C218.04 34.13 218.178 33.788 218.454 33.608C218.742 33.416 219.09 33.32 219.498 33.32Z" fill="black"/>
</svg>
