<svg width="275" height="52" viewBox="0 0 275 52" fill="none" xmlns="http://www.w3.org/2000/svg">
<path d="M1.47168 20V19.1621H1.80469C2.07682 19.1621 2.34717 19.0798 2.61572 18.915C2.88428 18.7503 3.13135 18.4245 3.35693 17.9375C3.58252 17.4505 3.73291 16.7738 3.80811 15.9072L4.35596 9.56934C4.4598 8.28385 4.5332 6.73698 4.57617 4.92871C5.09896 4.86068 5.58236 4.73714 6.02637 4.55811L10.4951 14.5645C10.8854 15.4346 11.1629 16.1471 11.3276 16.7021H11.5049C11.6374 16.251 11.7913 15.8088 11.9668 15.3755C12.1423 14.9386 12.3267 14.5233 12.52 14.1294C12.717 13.7355 13.007 13.1608 13.3901 12.4053C13.7733 11.6462 14.0758 11.0321 14.2979 10.563C15.569 7.85596 16.3836 5.97786 16.7417 4.92871C17.354 4.87142 18.0361 4.74788 18.7881 4.55811C18.7988 4.70492 18.8096 4.91081 18.8203 5.17578C18.8346 5.43717 18.8454 5.64128 18.8525 5.78809C18.8525 6.18555 18.8669 6.56689 18.8955 6.93213C18.9134 7.24723 18.9277 7.48356 18.9385 7.64111C18.9528 7.79508 18.9689 8.02067 18.9868 8.31787L19.3574 14.1025C19.3825 14.6432 19.4111 15.2072 19.4434 15.7944C19.4756 16.3781 19.54 16.9224 19.6367 17.4272C19.7334 17.9321 19.8945 18.3475 20.1201 18.6733C20.3457 18.9992 20.6572 19.1621 21.0547 19.1621H21.3823V20H20.6787C20.0091 20 19.592 19.957 19.4272 19.8711C19.2625 19.7816 18.8812 19.7368 18.2832 19.7368C17.9896 19.7368 17.5492 19.7798 16.9619 19.8657C16.5072 19.9552 16.1545 20 15.9038 20H15.356V19.1621H15.6621C16.0166 19.1621 16.2959 19.0475 16.5 18.8184C16.7041 18.5892 16.8062 18.1022 16.8062 17.3574C16.8062 17.318 16.8026 17.2482 16.7954 17.1479C16.7882 17.0477 16.7847 16.9725 16.7847 16.9224L16.3926 10.1226L16.4355 8.97852H16.3013C16.201 9.18978 16.0256 9.59977 15.7749 10.2085C15.0229 11.9523 14.0544 14.0363 12.8691 16.4604C12.6113 16.9868 12.4251 17.3664 12.3105 17.5991C12.1995 17.8319 12.0259 18.1917 11.7896 18.6787C11.6284 19.0475 11.4744 19.3787 11.3276 19.6724H10.5166C10.359 19.3573 10.1979 19.0189 10.0332 18.6572C9.77181 18.0771 9.3099 17.139 8.64746 15.8428C7.83822 14.2923 7.20622 13.0122 6.75146 12.0024C6.30029 10.9891 6.00488 10.2747 5.86523 9.85938C5.72917 9.44401 5.64323 9.15039 5.60742 8.97852L5.36572 8.95703V9.32764C5.36572 9.93994 5.32992 10.8942 5.2583 12.1904C5.20459 13.2288 5.16699 13.9915 5.14551 14.4785C5.13835 14.7077 5.12939 15.055 5.11865 15.5205C5.10791 15.986 5.09538 16.3351 5.08105 16.5679C5.05241 16.8901 5.03809 17.1533 5.03809 17.3574C5.03809 18.5605 5.39079 19.1621 6.09619 19.1621H6.60107V20H6.09619C5.90283 20 5.62354 19.9552 5.2583 19.8657C4.90381 19.7798 4.55111 19.7368 4.2002 19.7368C3.99967 19.7368 3.69173 19.7798 3.27637 19.8657C2.80013 19.9552 2.41878 20 2.13232 20H1.47168ZM22.3491 5.06299H23.0527C23.1602 5.06299 23.5272 5.0988 24.1538 5.17041C24.7088 5.23128 25.1045 5.26172 25.3408 5.26172C25.57 5.26172 25.9657 5.23128 26.5278 5.17041C27.1545 5.0988 27.5215 5.06299 27.6289 5.06299H28.354V5.89551H27.8921C27.4123 5.89551 27.1007 6.10856 26.9575 6.53467C26.8179 6.96077 26.748 7.5695 26.748 8.36084V9.15576V14.2368C26.748 14.8849 26.6603 15.8016 26.4849 16.9868H26.6836C27.1455 16.2707 28.1571 15.0747 29.7183 13.3989C30.4022 12.6541 31.1613 11.7948 31.9956 10.8208C32.8299 9.84326 33.6481 8.8514 34.4502 7.84521C35.2523 6.83545 35.9845 5.87044 36.647 4.9502C36.9943 4.88574 37.3685 4.84277 37.7695 4.82129C37.68 5.91699 37.6353 6.90706 37.6353 7.7915V15.8643C37.6353 16.584 37.6567 17.1694 37.6997 17.6206C37.7427 18.0718 37.8483 18.4424 38.0166 18.7324C38.1849 19.0189 38.4391 19.1621 38.7793 19.1621H39.2412V20H38.4946C38.2834 20 37.9826 19.9481 37.5923 19.8442C37.1519 19.7726 36.6971 19.7368 36.228 19.7368C35.7912 19.7368 35.3525 19.7726 34.9121 19.8442C34.5111 19.9481 34.2103 20 34.0098 20H33.1934V19.1621H33.6553C34.0133 19.1621 34.2765 18.9974 34.4448 18.668C34.6167 18.3385 34.7223 17.95 34.7617 17.5024C34.8011 17.0513 34.8208 16.4909 34.8208 15.8213V10.7402C34.8208 10.2246 34.9014 9.65169 35.0625 9.02148H34.9336C34.7008 9.49772 33.9972 10.4019 32.8228 11.7339C31.6483 13.0623 30.4165 14.4087 29.1274 15.7729C27.842 17.1372 26.9611 18.0628 26.4849 18.5498C25.8726 19.1908 25.4536 19.6742 25.228 20L23.7349 20.376C23.8674 18.2025 23.9336 17.0513 23.9336 16.9224V9.10742V8.16211C23.9336 7.44238 23.8602 6.88558 23.7134 6.4917C23.5666 6.09424 23.2658 5.89551 22.811 5.89551H22.3491V5.06299ZM54.5972 16.6108H55.4136C55.2166 17.6636 54.8783 18.4603 54.3984 19.001C53.9186 19.5381 53.2938 19.8926 52.5239 20.0645C51.7576 20.2399 50.7336 20.3276 49.4517 20.3276C48.1769 20.3276 47.0007 20.1307 45.9229 19.7368C44.8451 19.3429 43.9123 18.7861 43.1245 18.0664C42.3403 17.3431 41.7388 16.4998 41.3198 15.5366C40.9009 14.5734 40.6914 13.5314 40.6914 12.4106C40.6914 11.118 40.9635 9.8916 41.5078 8.73145C42.0557 7.56771 42.9383 6.61344 44.1558 5.86865C45.3768 5.12386 46.9362 4.75146 48.834 4.75146C49.3962 4.75146 49.8491 4.77116 50.1929 4.81055C50.5402 4.84635 50.8929 4.90186 51.251 4.97705C51.6126 5.04867 51.9313 5.10238 52.207 5.13818C52.4827 5.17399 52.8623 5.19189 53.3457 5.19189C54.0153 5.19189 54.5578 5.16325 54.9731 5.10596C54.88 5.70036 54.821 6.34489 54.7959 7.03955C54.7816 7.68766 54.7744 8.34115 54.7744 9H53.915C53.915 8.28027 53.7145 7.66976 53.3135 7.16846C52.916 6.66715 52.3861 6.29476 51.7236 6.05127C51.0612 5.8042 50.3468 5.68066 49.5806 5.68066C48.5063 5.68066 47.5342 5.93848 46.6641 6.4541C45.7939 6.96615 45.1082 7.71094 44.6069 8.68848C44.1092 9.66602 43.8604 10.819 43.8604 12.1475C43.8604 13.6764 44.1558 14.9888 44.7466 16.0845C45.3374 17.1802 46.0965 18.0073 47.0239 18.5659C47.9549 19.1245 48.902 19.4038 49.8652 19.4038C50.7855 19.4038 51.7111 19.1353 52.6421 18.5981C53.5767 18.061 54.2284 17.3986 54.5972 16.6108ZM62.0684 5.92236H60.3066C59.5404 5.92236 58.8976 6.11214 58.3784 6.4917C57.8628 6.86768 57.4564 7.59456 57.1592 8.67236H56.3267C56.366 8.37158 56.4001 8.1263 56.4287 7.93652C56.4609 7.74674 56.4932 7.53727 56.5254 7.30811C56.6901 6.28402 56.7993 5.4318 56.853 4.75146C56.9748 4.76221 57.1126 4.77474 57.2666 4.78906C57.4206 4.7998 57.5745 4.81234 57.7285 4.82666C57.8825 4.8374 58.0973 4.8571 58.373 4.88574C59.2861 4.97526 60.3049 5.02718 61.4292 5.0415C61.9233 5.0415 62.3638 5.04508 62.7505 5.05225C63.1372 5.05941 63.3789 5.06299 63.4756 5.06299C64.9508 5.06299 66.7627 4.98958 68.9111 4.84277C69.262 4.83203 69.8045 4.8016 70.5386 4.75146C70.467 5.62516 70.3345 6.53467 70.1411 7.47998C70.1304 7.53011 70.057 7.92757 69.9209 8.67236H69.0615C69.1367 8.24984 69.1743 7.91862 69.1743 7.67871C69.1743 7.15234 69.0024 6.72803 68.6587 6.40576C68.3185 6.0835 67.64 5.92236 66.623 5.92236H64.8828V15.3379C64.8828 16.5518 64.9508 17.4935 65.0869 18.1631C65.2266 18.8291 65.5685 19.1621 66.1128 19.1621H66.5747V20H65.7637C65.5381 20 65.2301 19.9481 64.8398 19.8442C64.3994 19.7726 63.9447 19.7368 63.4756 19.7368C63.0065 19.7368 62.5518 19.7726 62.1113 19.8442C61.721 19.9481 61.4131 20 61.1875 20H60.3066V19.1621H60.7686C61.3343 19.1621 61.6924 18.7879 61.8428 18.0396C61.9932 17.2876 62.0684 16.3942 62.0684 15.3594V5.92236ZM71.7202 5.06299H72.4023C72.7067 5.06299 73.1167 5.09342 73.6323 5.1543C74.1479 5.21159 74.839 5.24023 75.7056 5.24023C77.8289 5.24023 79.5155 5.20264 80.7651 5.12744C80.9299 5.12028 81.048 5.11491 81.1196 5.11133C81.1912 5.10417 81.4329 5.08805 81.8447 5.06299C81.723 5.77913 81.5601 6.48275 81.356 7.17383C81.3022 7.39225 81.2396 7.64648 81.168 7.93652C81.0964 8.22656 81.0426 8.44857 81.0068 8.60254H80.1689C80.2441 7.99023 80.2817 7.62321 80.2817 7.50146C80.2817 6.65283 79.7679 6.22852 78.7402 6.22852H76.2319V11.75H77.9937C78.52 11.75 78.9318 11.7142 79.229 11.6426C79.5262 11.571 79.7536 11.4134 79.9111 11.1699C80.0687 10.9264 80.1475 10.5487 80.1475 10.0366H80.9854C80.7347 11.4761 80.6094 12.5163 80.6094 13.1572V14.6558H79.8198C79.8485 14.5233 79.8628 14.3389 79.8628 14.1025C79.8628 13.1501 79.3418 12.6738 78.2998 12.6738H76.2319V16.2617C76.2319 17.0459 76.2821 17.6349 76.3823 18.0288C76.4826 18.4227 76.6312 18.6948 76.8281 18.8452C77.0286 18.9956 77.3062 19.0941 77.6606 19.1406C77.9757 19.1872 78.255 19.2104 78.4985 19.2104C78.7671 19.2104 79.0464 19.1872 79.3364 19.1406C79.9022 19.0618 80.3945 18.8488 80.8135 18.5015C81.2324 18.1506 81.5762 17.5275 81.8447 16.6323H82.6343C82.577 17.8426 82.3926 18.6984 82.0811 19.1997C81.7695 19.701 81.3667 20.0125 80.8726 20.1343C80.7401 20.1629 80.5431 20.1772 80.2817 20.1772C80.0741 20.1772 79.7804 20.1629 79.4009 20.1343C79.161 20.1128 78.9318 20.0949 78.7134 20.0806C78.495 20.0662 78.042 20.0322 77.3545 19.9785C76.957 19.9535 76.624 19.9338 76.3555 19.9194C76.0869 19.9051 75.8201 19.8944 75.5552 19.8872C75.2902 19.88 75.0181 19.8729 74.7388 19.8657H73.4819C73.4139 19.8729 73.2957 19.8908 73.1274 19.9194C72.9591 19.9445 72.8356 19.9606 72.7568 19.9678C72.6816 19.9749 72.6082 19.9785 72.5366 19.9785H71.7202V19.1406H72.1392C72.6584 19.1406 73.0003 18.8613 73.165 18.3027C73.3333 17.7406 73.4175 17.0298 73.4175 16.1704V9.26318C73.4175 7.01807 72.9842 5.89551 72.1177 5.89551H71.7202V5.06299ZM84.2295 5.06299H84.9331C85.0405 5.06299 85.4076 5.0988 86.0342 5.17041C86.5892 5.23128 86.9849 5.26172 87.2212 5.26172C87.4504 5.26172 87.846 5.23128 88.4082 5.17041C89.0348 5.0988 89.4019 5.06299 89.5093 5.06299H90.2344V5.89551H89.7725C89.2926 5.89551 88.9811 6.10677 88.8379 6.5293C88.6982 6.95182 88.6284 7.54801 88.6284 8.31787V9.08594V18.7915C90.7733 18.9526 92.1232 19.0332 92.6782 19.0332C93.8599 19.0332 94.9072 19.0099 95.8203 18.9634V9.08594V8.14062C95.8203 7.43164 95.7487 6.88021 95.6055 6.48633C95.4622 6.09245 95.1597 5.89551 94.6978 5.89551H94.2358V5.06299H94.9663C95.0773 5.06299 95.4425 5.0988 96.062 5.17041C96.6242 5.23128 97.0216 5.26172 97.2544 5.26172C97.4836 5.26172 97.8792 5.23128 98.4414 5.17041C99.0609 5.0988 99.4279 5.06299 99.5425 5.06299H100.219V5.89551H99.7573C99.2918 5.89551 98.9893 6.09603 98.8496 6.49707C98.71 6.89811 98.6401 7.4764 98.6401 8.23193V9.08594V16.5034C98.6401 17.0978 98.658 17.5597 98.6938 17.8892C98.7297 18.2186 98.8281 18.4889 98.9893 18.7002C99.154 18.9079 99.41 19.0117 99.7573 19.0117C100.284 19.0117 100.812 18.8936 101.342 18.6572V20.0215C100.923 20.0215 100.618 20.1038 100.429 20.2686C100.239 20.4368 100.038 20.6929 99.8271 21.0366C99.2471 21.9819 98.7404 22.7267 98.3071 23.271C97.8774 23.8188 97.3547 24.2682 96.7388 24.6191C96.1229 24.9701 95.3924 25.1455 94.5474 25.1455C93.8133 25.1455 93.158 25.0864 92.5815 24.9683C92.0086 24.8501 91.4465 24.5798 90.895 24.1572C91.4214 23.9281 91.8833 23.6577 92.2808 23.3462C92.4705 23.7329 92.7158 24.0194 93.0166 24.2056C93.321 24.3953 93.6253 24.4902 93.9297 24.4902C94.4131 24.4902 94.8267 24.3363 95.1704 24.0283C95.5177 23.7204 95.8525 23.3158 96.1748 22.8145C96.4792 22.3669 96.7549 22.007 97.002 21.7349C97.249 21.4663 97.5928 21.187 98.0332 20.897C98.4772 20.6069 99.0519 20.3151 99.7573 20.0215V19.8228C99.0161 19.9338 98.5076 20.0036 98.2319 20.0322C97.9598 20.0609 97.6107 20.0806 97.1846 20.0913C96.762 20.1021 96.1462 20.1164 95.3369 20.1343H93.6665C92.9539 20.1164 92.0802 20.0501 91.0454 19.9355C89.8351 19.8031 88.6105 19.7368 87.3716 19.7368C86.6626 19.7368 86.1434 19.7798 85.814 19.8657C85.3521 19.9696 85.028 20.0215 84.8418 20.0215H84.1597V19.1836H84.6001C85.1193 19.1836 85.4505 18.8846 85.5938 18.2866C85.7406 17.6851 85.814 16.84 85.814 15.7515V9.08594V8.14062C85.814 7.43164 85.7406 6.88021 85.5938 6.48633C85.4469 6.09245 85.1462 5.89551 84.6914 5.89551H84.2295V5.06299ZM102.685 5.06299H103.41C103.539 5.06299 103.898 5.0988 104.489 5.17041C105.044 5.23128 105.447 5.26172 105.698 5.26172C105.927 5.26172 106.323 5.23128 106.885 5.17041C107.476 5.0988 107.835 5.06299 107.964 5.06299H108.689V5.89551H108.228C107.762 5.89551 107.454 6.09424 107.304 6.4917C107.157 6.88916 107.083 7.46208 107.083 8.21045V9.22021V11.6426C107.732 11.5531 108.34 11.5083 108.91 11.5083C110.152 11.5083 111.176 11.7088 111.982 12.1099C112.788 12.5073 113.368 13.0194 113.722 13.646C114.077 14.269 114.254 14.9351 114.254 15.644C114.254 16.1024 114.207 16.5625 114.114 17.0244C114.021 17.4863 113.808 17.959 113.475 18.4424C113.142 18.9222 112.618 19.325 111.901 19.6509C111.189 19.9731 110.251 20.1343 109.087 20.1343C108.088 20.1343 107.451 20.1128 107.175 20.0698C106.903 20.0269 106.634 19.9606 106.369 19.8711C106.108 19.7816 105.751 19.7368 105.3 19.7368C105.064 19.7368 104.72 19.7887 104.269 19.8926C103.793 19.9642 103.381 20 103.034 20H102.572V19.1621H103.012C103.542 19.1621 103.884 18.8577 104.038 18.249C104.192 17.6403 104.269 16.8454 104.269 15.8643V9.22021V8.2749C104.269 7.49788 104.197 6.90706 104.054 6.50244C103.915 6.09782 103.612 5.89551 103.146 5.89551H102.685V5.06299ZM107.083 12.3892V17.1426C107.083 17.9411 107.194 18.4997 107.417 18.8184C107.639 19.137 108.07 19.2964 108.711 19.2964C109.133 19.2964 109.545 19.1782 109.946 18.9419C110.351 18.702 110.682 18.3332 110.94 17.8354C111.201 17.3341 111.332 16.7129 111.332 15.9717C111.332 15.0192 111.135 14.2762 110.741 13.7427C110.351 13.2056 109.878 12.8421 109.323 12.6523C108.768 12.4626 108.19 12.3677 107.588 12.3677C107.356 12.3677 107.187 12.3748 107.083 12.3892ZM115.554 5.06299H116.279C116.411 5.06299 116.769 5.0988 117.353 5.17041C117.915 5.23128 118.32 5.26172 118.567 5.26172C118.796 5.26172 119.192 5.23128 119.754 5.17041C120.338 5.0988 120.697 5.06299 120.833 5.06299H121.58V5.89551H121.118C120.764 5.89551 120.502 6.0262 120.334 6.2876C120.166 6.54899 120.064 6.87484 120.028 7.26514C119.992 7.65186 119.974 8.18538 119.974 8.86572V16.4336C119.974 18.2526 120.363 19.1621 121.14 19.1621H121.58V20H120.785C120.577 20 120.278 19.9481 119.888 19.8442C119.441 19.7726 118.993 19.7368 118.545 19.7368C118.091 19.7368 117.643 19.7726 117.203 19.8442C116.812 19.9481 116.512 20 116.3 20H115.505V19.1621H115.946C116.755 19.1621 117.16 18.2526 117.16 16.4336V8.86572C117.16 8.18538 117.142 7.65186 117.106 7.26514C117.07 6.87484 116.968 6.54899 116.8 6.2876C116.632 6.0262 116.37 5.89551 116.016 5.89551H115.554V5.06299ZM124.486 5.89551V5.06299H124.948C125.059 5.06299 125.216 5.07194 125.42 5.08984C125.625 5.10775 125.775 5.12028 125.872 5.12744C125.958 5.13818 126.154 5.16325 126.462 5.20264C126.77 5.24202 127.019 5.26172 127.209 5.26172C127.467 5.26172 127.637 5.25635 127.719 5.24561C127.805 5.23128 127.922 5.20622 128.068 5.17041C128.219 5.13102 128.371 5.10417 128.525 5.08984C128.679 5.07194 128.931 5.06299 129.282 5.06299H129.766V5.89551H129.454C129.175 5.89551 128.901 5.94027 128.632 6.02979C128.367 6.11572 128.006 6.31803 127.547 6.63672C127.089 6.95182 126.493 7.43701 125.759 8.09229C125.025 8.74756 124.056 9.66602 122.853 10.8477C122.456 11.2451 122.178 11.5101 122.021 11.6426C122.651 11.861 123.22 12.1994 123.729 12.6577C124.237 13.116 124.729 13.68 125.206 14.3496C125.682 15.0192 126.373 16.0522 127.279 17.4487C127.676 18.061 127.981 18.4961 128.192 18.7539C128.403 19.0117 128.656 19.1406 128.949 19.1406C129.257 19.1406 129.676 19.0314 130.206 18.813V19.6724C129.973 19.7297 129.746 19.8031 129.524 19.8926C129.055 20.0537 128.577 20.1343 128.09 20.1343C127.506 20.1343 127.003 20.0107 126.581 19.7637C126.158 19.5166 125.789 19.2015 125.474 18.8184C125.159 18.4352 124.697 17.8247 124.088 16.9868C122.764 15.1535 121.532 13.5833 120.393 12.2764C120.798 11.861 121.226 11.4134 121.677 10.9336C122.128 10.4502 122.457 10.1011 122.665 9.88623C122.873 9.67139 123.127 9.4279 123.428 9.15576C124.047 8.59717 124.518 8.14421 124.84 7.79688C125.163 7.44596 125.374 7.05566 125.474 6.62598C125.474 6.139 125.306 5.89551 124.969 5.89551H124.486ZM131.361 5.06299H132.064C132.172 5.06299 132.539 5.0988 133.166 5.17041C133.721 5.23128 134.116 5.26172 134.353 5.26172C134.582 5.26172 134.977 5.23128 135.54 5.17041C136.166 5.0988 136.533 5.06299 136.641 5.06299H137.366V5.89551H136.904C136.424 5.89551 136.112 6.10856 135.969 6.53467C135.83 6.96077 135.76 7.5695 135.76 8.36084V9.15576V14.2368C135.76 14.8849 135.672 15.8016 135.497 16.9868H135.695C136.157 16.2707 137.169 15.0747 138.73 13.3989C139.414 12.6541 140.173 11.7948 141.007 10.8208C141.842 9.84326 142.66 8.8514 143.462 7.84521C144.264 6.83545 144.996 5.87044 145.659 4.9502C146.006 4.88574 146.38 4.84277 146.781 4.82129C146.692 5.91699 146.647 6.90706 146.647 7.7915V15.8643C146.647 16.584 146.668 17.1694 146.711 17.6206C146.754 18.0718 146.86 18.4424 147.028 18.7324C147.197 19.0189 147.451 19.1621 147.791 19.1621H148.253V20H147.506C147.295 20 146.994 19.9481 146.604 19.8442C146.164 19.7726 145.709 19.7368 145.24 19.7368C144.803 19.7368 144.364 19.7726 143.924 19.8442C143.523 19.9481 143.222 20 143.021 20H142.205V19.1621H142.667C143.025 19.1621 143.288 18.9974 143.457 18.668C143.628 18.3385 143.734 17.95 143.773 17.5024C143.813 17.0513 143.833 16.4909 143.833 15.8213V10.7402C143.833 10.2246 143.913 9.65169 144.074 9.02148H143.945C143.713 9.49772 143.009 10.4019 141.834 11.7339C140.66 13.0623 139.428 14.4087 138.139 15.7729C136.854 17.1372 135.973 18.0628 135.497 18.5498C134.884 19.1908 134.465 19.6742 134.24 20L132.747 20.376C132.879 18.2025 132.945 17.0513 132.945 16.9224V9.10742V8.16211C132.945 7.44238 132.872 6.88558 132.725 6.4917C132.578 6.09424 132.278 5.89551 131.823 5.89551H131.361V5.06299ZM149.773 5.06299H150.477C150.584 5.06299 150.951 5.0988 151.578 5.17041C152.133 5.23128 152.528 5.26172 152.765 5.26172C152.994 5.26172 153.389 5.23128 153.952 5.17041C154.578 5.0988 154.945 5.06299 155.053 5.06299H155.778V5.89551H155.316C154.836 5.89551 154.525 6.10856 154.381 6.53467C154.242 6.96077 154.172 7.5695 154.172 8.36084V9.15576V14.2368C154.172 14.8849 154.084 15.8016 153.909 16.9868H154.107C154.569 16.2707 155.581 15.0747 157.142 13.3989C157.826 12.6541 158.585 11.7948 159.419 10.8208C160.254 9.84326 161.072 8.8514 161.874 7.84521C162.676 6.83545 163.408 5.87044 164.071 4.9502C164.418 4.88574 164.792 4.84277 165.193 4.82129C165.104 5.91699 165.059 6.90706 165.059 7.7915V15.8643C165.059 16.584 165.081 17.1694 165.124 17.6206C165.167 18.0718 165.272 18.4424 165.44 18.7324C165.609 19.0189 165.863 19.1621 166.203 19.1621H166.665V20H165.918C165.707 20 165.406 19.9481 165.016 19.8442C164.576 19.7726 164.121 19.7368 163.652 19.7368C163.215 19.7368 162.776 19.7726 162.336 19.8442C161.935 19.9481 161.634 20 161.434 20H160.617V19.1621H161.079C161.437 19.1621 161.7 18.9974 161.869 18.668C162.041 18.3385 162.146 17.95 162.186 17.5024C162.225 17.0513 162.245 16.4909 162.245 15.8213V10.7402C162.245 10.2246 162.325 9.65169 162.486 9.02148H162.357C162.125 9.49772 161.421 10.4019 160.247 11.7339C159.072 13.0623 157.84 14.4087 156.551 15.7729C155.266 17.1372 154.385 18.0628 153.909 18.5498C153.296 19.1908 152.877 19.6742 152.652 20L151.159 20.376C151.291 18.2025 151.357 17.0513 151.357 16.9224V9.10742V8.16211C151.357 7.44238 151.284 6.88558 151.137 6.4917C150.99 6.09424 150.69 5.89551 150.235 5.89551H149.773V5.06299ZM157.341 1.01318V2.2002C157.341 2.52604 157.479 2.78385 157.754 2.97363C158.03 3.16341 158.333 3.2583 158.662 3.2583C159.081 3.2583 159.534 3.10254 160.021 2.79102C160.508 2.47949 160.956 1.88688 161.364 1.01318C161.625 1.24951 161.912 1.47689 162.223 1.69531C161.593 2.51888 160.959 3.12939 160.322 3.52686C159.684 3.92432 159.119 4.1696 158.625 4.2627C158.13 4.35579 157.615 4.40234 157.078 4.40234C156.086 4.40234 155.404 3.80078 155.031 2.59766C155.812 2.20378 156.501 1.67562 157.099 1.01318H157.341ZM176.118 5.06299H176.843C176.976 5.06299 177.334 5.0988 177.917 5.17041C178.48 5.23128 178.884 5.26172 179.131 5.26172C179.361 5.26172 179.756 5.23128 180.318 5.17041C180.902 5.0988 181.262 5.06299 181.398 5.06299H182.145V5.89551H181.683C181.328 5.89551 181.067 6.0262 180.898 6.2876C180.73 6.54899 180.628 6.87484 180.592 7.26514C180.556 7.65186 180.539 8.18538 180.539 8.86572V16.4336C180.539 18.2526 180.927 19.1621 181.704 19.1621H182.145V20H181.35C181.142 20 180.843 19.9481 180.453 19.8442C180.005 19.7726 179.557 19.7368 179.11 19.7368C178.655 19.7368 178.208 19.7726 177.767 19.8442C177.377 19.9481 177.076 20 176.865 20H176.07V19.1621H176.51C177.319 19.1621 177.724 18.2526 177.724 16.4336V8.86572C177.724 8.18538 177.706 7.65186 177.67 7.26514C177.635 6.87484 177.533 6.54899 177.364 6.2876C177.196 6.0262 176.935 5.89551 176.58 5.89551H176.118V5.06299ZM185.05 5.89551V5.06299H185.512C185.623 5.06299 185.781 5.07194 185.985 5.08984C186.189 5.10775 186.339 5.12028 186.436 5.12744C186.522 5.13818 186.719 5.16325 187.027 5.20264C187.335 5.24202 187.584 5.26172 187.773 5.26172C188.031 5.26172 188.201 5.25635 188.284 5.24561C188.37 5.23128 188.486 5.20622 188.633 5.17041C188.783 5.13102 188.935 5.10417 189.089 5.08984C189.243 5.07194 189.496 5.06299 189.847 5.06299H190.33V5.89551H190.019C189.739 5.89551 189.465 5.94027 189.197 6.02979C188.932 6.11572 188.57 6.31803 188.112 6.63672C187.653 6.95182 187.057 7.43701 186.323 8.09229C185.589 8.74756 184.621 9.66602 183.417 10.8477C183.02 11.2451 182.743 11.5101 182.585 11.6426C183.215 11.861 183.785 12.1994 184.293 12.6577C184.801 13.116 185.294 13.68 185.77 14.3496C186.246 15.0192 186.937 16.0522 187.843 17.4487C188.241 18.061 188.545 18.4961 188.756 18.7539C188.968 19.0117 189.22 19.1406 189.514 19.1406C189.822 19.1406 190.241 19.0314 190.771 18.813V19.6724C190.538 19.7297 190.31 19.8031 190.088 19.8926C189.619 20.0537 189.141 20.1343 188.654 20.1343C188.071 20.1343 187.568 20.0107 187.145 19.7637C186.722 19.5166 186.354 19.2015 186.039 18.8184C185.723 18.4352 185.262 17.8247 184.653 16.9868C183.328 15.1535 182.096 13.5833 180.958 12.2764C181.362 11.861 181.79 11.4134 182.241 10.9336C182.692 10.4502 183.022 10.1011 183.229 9.88623C183.437 9.67139 183.691 9.4279 183.992 9.15576C184.612 8.59717 185.083 8.14421 185.405 7.79688C185.727 7.44596 185.938 7.05566 186.039 6.62598C186.039 6.139 185.87 5.89551 185.534 5.89551H185.05ZM191.925 12.2119C191.925 11.0768 192.133 10.0492 192.548 9.12891C192.967 8.20508 193.542 7.41911 194.272 6.771C195.007 6.12288 195.846 5.62874 196.792 5.28857C197.74 4.9484 198.736 4.77832 199.778 4.77832C200.78 4.77832 201.726 4.97168 202.614 5.3584C203.505 5.74154 204.284 6.2876 204.95 6.99658C205.62 7.70557 206.143 8.55599 206.519 9.54785C206.895 10.5361 207.083 11.6068 207.083 12.7598C207.083 14.346 206.723 15.7139 206.003 16.8633C205.283 18.0091 204.356 18.8739 203.221 19.4575C202.089 20.0376 200.927 20.3276 199.735 20.3276C198.736 20.3276 197.769 20.1432 196.834 19.7744C195.903 19.402 195.066 18.8613 194.321 18.1523C193.576 17.4398 192.991 16.5786 192.564 15.5688C192.138 14.5555 191.925 13.4365 191.925 12.2119ZM195.024 12.3677C195.024 13.7642 195.263 14.9977 195.739 16.0684C196.219 17.139 196.84 17.9626 197.603 18.5391C198.365 19.1156 199.149 19.4038 199.955 19.4038C200.621 19.4038 201.26 19.1818 201.873 18.7378C202.488 18.2902 202.993 17.5615 203.387 16.5518C203.781 15.542 203.978 14.2565 203.978 12.6953C203.978 11.3991 203.763 10.2157 203.333 9.14502C202.907 8.07438 202.333 7.23291 201.609 6.62061C200.886 6.0083 200.107 5.70215 199.273 5.70215C198.596 5.70215 197.934 5.92057 197.286 6.35742C196.638 6.79427 196.099 7.514 195.669 8.5166C195.239 9.51921 195.024 10.8029 195.024 12.3677ZM207.872 20V19.1621H208.468C208.952 19.1621 209.403 18.8936 209.822 18.3564C210.244 17.8158 210.615 17.1641 210.934 16.4014C211.252 15.6387 211.589 14.7041 211.943 13.5977C212.298 12.4912 212.502 11.861 212.556 11.707C213.15 10.0312 213.592 8.74756 213.882 7.85596C214.172 6.96077 214.45 5.9707 214.715 4.88574C215.316 4.81413 215.88 4.71924 216.407 4.60107C216.912 6.44515 217.551 8.43245 218.324 10.563C218.711 11.6014 219.019 12.459 219.248 13.1357C219.785 14.6683 220.188 15.7819 220.457 16.4766C220.729 17.1712 221.044 17.7925 221.402 18.3403C221.764 18.8882 222.138 19.1621 222.524 19.1621H222.986V20H222.261C222.118 20 221.846 19.9552 221.445 19.8657C221.037 19.7798 220.56 19.7368 220.016 19.7368C219.425 19.7368 218.94 19.7816 218.561 19.8711C218.181 19.957 217.918 20 217.771 20H216.648V19.1621H216.938C217.715 19.1621 218.104 18.8327 218.104 18.1738C218.104 17.9769 218.074 17.7692 218.013 17.5508C217.955 17.3288 217.873 17.0781 217.766 16.7988C217.662 16.516 217.604 16.3584 217.594 16.3262L215.064 9.04297C215.032 8.94629 215 8.79411 214.967 8.58643C214.935 8.37516 214.91 8.22656 214.892 8.14062H214.715C214.679 8.70996 214.532 9.39209 214.274 10.187L212.051 17.207C211.918 17.6367 211.852 17.9733 211.852 18.2168C211.852 18.847 212.139 19.1621 212.711 19.1621H213.195V20H212.824C212.509 20 212.183 19.957 211.847 19.8711C211.51 19.7816 211.147 19.7368 210.756 19.7368C210.348 19.7368 209.924 19.7816 209.483 19.8711C209.047 19.957 208.751 20 208.597 20H207.872ZM224.023 5.06299H224.705C225.009 5.06299 225.419 5.09342 225.935 5.1543C226.451 5.21159 227.142 5.24023 228.008 5.24023C230.132 5.24023 231.818 5.20264 233.068 5.12744C233.233 5.12028 233.351 5.11491 233.422 5.11133C233.494 5.10417 233.736 5.08805 234.147 5.06299C234.026 5.77913 233.863 6.48275 233.659 7.17383C233.605 7.39225 233.542 7.64648 233.471 7.93652C233.399 8.22656 233.345 8.44857 233.31 8.60254H232.472C232.547 7.99023 232.584 7.62321 232.584 7.50146C232.584 6.65283 232.071 6.22852 231.043 6.22852H228.535V11.75H230.296C230.823 11.75 231.235 11.7142 231.532 11.6426C231.829 11.571 232.056 11.4134 232.214 11.1699C232.371 10.9264 232.45 10.5487 232.45 10.0366H233.288C233.037 11.4761 232.912 12.5163 232.912 13.1572V14.6558H232.123C232.151 14.5233 232.166 14.3389 232.166 14.1025C232.166 13.1501 231.645 12.6738 230.603 12.6738H228.535V16.2617C228.535 17.0459 228.585 17.6349 228.685 18.0288C228.785 18.4227 228.934 18.6948 229.131 18.8452C229.331 18.9956 229.609 19.0941 229.963 19.1406C230.278 19.1872 230.558 19.2104 230.801 19.2104C231.07 19.2104 231.349 19.1872 231.639 19.1406C232.205 19.0618 232.697 18.8488 233.116 18.5015C233.535 18.1506 233.879 17.5275 234.147 16.6323H234.937C234.88 17.8426 234.695 18.6984 234.384 19.1997C234.072 19.701 233.669 20.0125 233.175 20.1343C233.043 20.1629 232.846 20.1772 232.584 20.1772C232.377 20.1772 232.083 20.1629 231.704 20.1343C231.464 20.1128 231.235 20.0949 231.016 20.0806C230.798 20.0662 230.345 20.0322 229.657 19.9785C229.26 19.9535 228.927 19.9338 228.658 19.9194C228.39 19.9051 228.123 19.8944 227.858 19.8872C227.593 19.88 227.321 19.8729 227.042 19.8657H225.785C225.717 19.8729 225.598 19.8908 225.43 19.9194C225.262 19.9445 225.138 19.9606 225.06 19.9678C224.984 19.9749 224.911 19.9785 224.839 19.9785H224.023V19.1406H224.442C224.961 19.1406 225.303 18.8613 225.468 18.3027C225.636 17.7406 225.72 17.0298 225.72 16.1704V9.26318C225.72 7.01807 225.287 5.89551 224.42 5.89551H224.023V5.06299ZM236.597 23.6738H235.474C235.796 21.9443 235.958 20.2435 235.958 18.5713C236.419 18.6895 236.933 18.7485 237.499 18.7485C237.66 18.7485 237.818 18.6429 237.972 18.4316C238.126 18.2204 238.303 17.8641 238.503 17.3628C238.704 16.8615 238.908 16.2957 239.116 15.6655C239.327 15.0353 239.807 13.5833 240.555 11.3096C241.458 8.58822 242.111 6.44694 242.516 4.88574C243.182 4.82845 243.878 4.7264 244.605 4.57959C245.113 6.71012 245.808 9.15039 246.689 11.9004C247.573 14.6504 248.272 16.609 248.784 17.7764C248.952 18.1344 249.127 18.394 249.31 18.5552C249.496 18.7127 249.79 18.7915 250.191 18.7915C250.545 18.7915 251 18.7181 251.555 18.5713C251.297 20.2757 250.93 21.9766 250.454 23.6738H249.401C249.605 23.0221 249.708 22.186 249.708 21.1655C249.708 20.675 249.521 20.3581 249.149 20.2148C248.777 20.0716 248.295 20 247.704 20C247.353 20 246.741 20.0143 245.867 20.043C244.993 20.0716 244.265 20.0859 243.681 20.0859C241.995 20.0859 240.668 20.0645 239.701 20.0215C239.64 20.0215 239.554 20.0179 239.443 20.0107C239.332 20.0036 239.248 20 239.191 20C238.686 20 238.274 20.0841 237.956 20.2524C237.64 20.4207 237.368 20.7681 237.139 21.2944C236.914 21.8244 236.733 22.6175 236.597 23.6738ZM242.935 7.5498H242.757C242.618 8.21224 242.344 9.25423 241.936 10.6758C241.527 12.0938 240.804 14.2493 239.766 17.1426C239.655 17.4505 239.567 17.694 239.502 17.873C239.438 18.0521 239.32 18.3797 239.148 18.856C240.444 18.9276 241.647 18.9634 242.757 18.9634C243.656 18.9634 244.822 18.9276 246.254 18.856C246.172 18.6232 246.112 18.4585 246.077 18.3618C246.041 18.2616 245.984 18.104 245.905 17.8892C245.826 17.6707 245.753 17.472 245.685 17.293C245.316 16.2617 244.882 14.9637 244.385 13.3989C243.479 10.5522 242.995 8.60254 242.935 7.5498ZM257.442 5.06299V5.89551H256.958C256.787 5.89551 256.643 5.95459 256.529 6.07275C256.418 6.18734 256.362 6.32699 256.362 6.4917C256.362 6.6958 256.443 6.87842 256.604 7.03955L258.167 8.7583C258.461 9.07699 258.808 9.44222 259.209 9.854C259.61 10.2658 259.973 10.6418 260.299 10.9819C260.611 11.3042 261.03 11.7285 261.556 12.2549C260.496 13.4437 259.257 15.021 257.839 16.9868C257.295 17.7495 256.847 18.3385 256.497 18.7539C256.149 19.1657 255.759 19.4987 255.326 19.7529C254.896 20.0072 254.398 20.1343 253.833 20.1343C253.632 20.1343 253.419 20.1128 253.193 20.0698C252.968 20.0304 252.71 19.9678 252.42 19.8818C252.133 19.7959 251.901 19.7261 251.722 19.6724V18.7915C252.187 19.0243 252.606 19.1406 252.979 19.1406C253.304 19.1406 253.621 18.9491 253.929 18.5659C254.237 18.1828 254.669 17.5293 255.224 16.6055C255.782 15.6816 256.301 14.8921 256.781 14.2368C257.265 13.578 257.83 12.9836 258.479 12.4536C258.926 12.0776 259.402 11.8073 259.907 11.6426C259.657 11.4349 259.37 11.1699 259.048 10.8477C257.877 9.68034 256.924 8.76367 256.19 8.09766C255.456 7.43164 254.866 6.94108 254.418 6.62598C253.97 6.30729 253.614 6.10677 253.349 6.02441C253.088 5.93848 252.794 5.89551 252.468 5.89551H252.162V5.06299H252.646C252.971 5.06299 253.211 5.07194 253.365 5.08984C253.523 5.10417 253.684 5.13102 253.849 5.17041C254.013 5.20622 254.135 5.23128 254.214 5.24561C254.293 5.25635 254.459 5.26172 254.713 5.26172C254.9 5.26172 255.136 5.24382 255.422 5.20801C255.712 5.16862 255.917 5.14176 256.035 5.12744C256.128 5.12028 256.285 5.10775 256.507 5.08984C256.729 5.07194 256.894 5.06299 257.001 5.06299H257.442ZM268.947 5.06299H269.387C269.502 5.06299 269.667 5.07194 269.881 5.08984C270.096 5.10775 270.254 5.12028 270.354 5.12744C270.458 5.13818 270.657 5.16325 270.95 5.20264C271.244 5.24202 271.486 5.26172 271.675 5.26172C271.93 5.26172 272.101 5.25635 272.191 5.24561C272.28 5.23128 272.404 5.20622 272.562 5.17041C272.723 5.13102 272.877 5.10417 273.023 5.08984C273.174 5.07194 273.414 5.06299 273.743 5.06299H274.227V5.89551H273.92C273.598 5.89551 273.306 5.93848 273.045 6.02441C272.784 6.10677 272.425 6.30908 271.971 6.63135C271.52 6.95003 270.934 7.43701 270.214 8.09229C269.495 8.74398 268.537 9.66243 267.341 10.8477C267.019 11.1699 266.732 11.4349 266.481 11.6426C266.986 11.8073 267.464 12.0776 267.916 12.4536C268.571 12.9871 269.147 13.5977 269.645 14.2852C270.146 14.9691 270.671 15.7658 271.219 16.6753C271.767 17.5848 272.187 18.224 272.481 18.5928C272.778 18.958 273.09 19.1406 273.416 19.1406C273.784 19.1406 274.201 19.0243 274.667 18.7915V19.6724C274.395 19.7511 274.135 19.8281 273.888 19.9033C273.645 19.9749 273.41 20.0304 273.185 20.0698C272.963 20.1128 272.753 20.1343 272.556 20.1343C271.99 20.1343 271.491 20.0072 271.058 19.7529C270.628 19.4987 270.238 19.1657 269.887 18.7539C269.539 18.3385 269.094 17.7495 268.549 16.9868C267.131 15.021 265.892 13.4437 264.833 12.2549C265.334 11.7572 265.753 11.3328 266.089 10.9819C266.666 10.3875 267.11 9.9292 267.421 9.60693C267.736 9.28109 268.003 8.99821 268.222 8.7583L269.785 7.03955C269.946 6.882 270.026 6.69938 270.026 6.4917C270.026 6.32699 269.969 6.18734 269.854 6.07275C269.743 5.95459 269.602 5.89551 269.43 5.89551H268.947V5.06299ZM260.434 5.06299H261.159C261.388 5.06299 261.696 5.0988 262.083 5.17041C262.455 5.23128 262.829 5.26172 263.205 5.26172C263.595 5.26172 263.962 5.23128 264.306 5.17041C264.693 5.0988 265.001 5.06299 265.23 5.06299H265.955V5.89551H265.493C265.132 5.89551 264.865 6.03158 264.693 6.30371C264.525 6.57227 264.417 6.92318 264.371 7.35645C264.328 7.78971 264.306 8.36621 264.306 9.08594V15.2896V15.7783C264.306 16.7451 264.383 17.5508 264.537 18.1953C264.691 18.8398 265.031 19.1621 265.558 19.1621H265.998V20H265.208C265.044 20 264.75 19.9481 264.328 19.8442C264.034 19.7726 263.66 19.7368 263.205 19.7368C262.736 19.7368 262.355 19.7726 262.061 19.8442C261.639 19.9481 261.345 20 261.18 20H260.391V19.1621H260.831C261.357 19.1621 261.698 18.8398 261.852 18.1953C262.006 17.5508 262.083 16.7451 262.083 15.7783V15.2896V9.08594C262.083 7.99382 262.013 7.18994 261.873 6.67432C261.737 6.15511 261.411 5.89551 260.896 5.89551H260.434V5.06299Z" fill="black"/>
<path d="M6.28418 47H5.41846C5.32471 47 5.12695 46.9707 4.8252 46.9121C4.55273 46.8623 4.23486 46.8374 3.87158 46.8374C3.44385 46.8374 3.11865 46.8623 2.896 46.9121C2.63232 46.9707 2.44043 47 2.32031 47H1.47656V46.4595H1.90723C2.32324 46.4595 2.5957 46.2632 2.72461 45.8706C2.85352 45.478 2.91797 44.8701 2.91797 44.0469C2.91797 43.833 2.91357 43.5884 2.90479 43.313C2.89893 43.0376 2.896 42.8149 2.896 42.645V42.1572C2.896 41.5801 2.87256 41.1509 2.82568 40.8696C2.77881 40.5854 2.66455 40.3701 2.48291 40.2236C2.30127 40.0742 2.01416 39.9995 1.62158 39.9995C1.36963 39.9995 1.16455 40.0112 1.00635 40.0347V39.3843H1.67432C2.18701 39.3843 2.77734 39.3315 3.44531 39.2261C4.11328 39.1177 4.6875 38.9785 5.16797 38.8086C5.0127 39.7871 4.91602 41.0469 4.87793 42.5879V44.1392C4.88672 44.7104 4.90137 45.1279 4.92188 45.3916C4.94238 45.6553 5.02295 45.8999 5.16357 46.1255C5.3042 46.3481 5.53271 46.4595 5.84912 46.4595H6.28418V47ZM2.32031 35.7148C2.32031 35.3867 2.43604 35.0952 2.66748 34.8403C2.89893 34.5825 3.20947 34.4536 3.59912 34.4536C3.97119 34.4536 4.27148 34.5649 4.5 34.7876C4.72852 35.0103 4.84277 35.3193 4.84277 35.7148C4.84277 36.1396 4.7124 36.459 4.45166 36.6729C4.19385 36.8867 3.90967 36.9937 3.59912 36.9937C3.22412 36.9937 2.9165 36.8618 2.67627 36.5981C2.43896 36.3345 2.32031 36.04 2.32031 35.7148ZM13.333 44.8203H13.5659C13.7124 44.4102 14.0244 43.7026 14.502 42.6978C15.2314 41.2271 15.7412 40.0024 16.0312 39.0239L17.6353 38.6108C17.7905 40.3101 17.9502 41.6914 18.1143 42.7549C18.2812 43.8184 18.4468 44.6182 18.6108 45.1543C18.7778 45.6904 18.9346 46.042 19.0811 46.209C19.2275 46.376 19.3813 46.4595 19.5425 46.4595H20.083V47H19.4502C19.2334 47 18.9272 46.9634 18.5317 46.8901C18.2329 46.8315 17.9575 46.8022 17.7056 46.8022C17.4272 46.8022 17.1211 46.8359 16.7871 46.9033C16.4561 46.9678 16.1982 47 16.0137 47H15.4204V46.4595H15.7061C16.2217 46.4595 16.4795 46.2441 16.4795 45.8135C16.4795 45.4619 16.4326 44.9814 16.3389 44.3721C16.1338 43.124 16.0312 42.0195 16.0312 41.0586V40.8608H15.8687C15.6606 41.564 15.2769 42.4648 14.7173 43.5635C14.187 44.5859 13.689 45.7314 13.2231 47H12.5947C12.249 46.1123 11.7319 45.002 11.0435 43.6689C10.6011 42.8047 10.3081 42.2217 10.1646 41.9199C10.0239 41.6182 9.89209 41.2651 9.76904 40.8608H9.58887C9.53027 41.3062 9.42188 42.0503 9.26367 43.0933C9.20508 43.4565 9.15381 43.7686 9.10986 44.0293C9.06885 44.29 9.03516 44.5449 9.00879 44.7939C8.98535 45.043 8.97363 45.292 8.97363 45.541C8.97363 45.8398 9.02051 46.0684 9.11426 46.2266C9.21094 46.3818 9.3208 46.4595 9.44385 46.4595H10.1646V47H9.75146C9.6665 47 9.44385 46.9707 9.0835 46.9121C8.81396 46.8506 8.56787 46.8198 8.34521 46.8198C8.07568 46.8198 7.82959 46.8433 7.60693 46.8901C7.53369 46.9048 7.45312 46.9224 7.36523 46.9429C7.28027 46.9604 7.2041 46.9751 7.13672 46.9868C7.06934 46.9956 7.01074 47 6.96094 47H6.58301V46.4595H7.03125C7.34766 46.4595 7.60693 46.2822 7.80908 45.9277C8.01416 45.5732 8.1665 45.1924 8.26611 44.7852C8.36572 44.3779 8.48877 43.8022 8.63525 43.0581C8.79639 42.229 8.91064 41.5903 8.97803 41.1421C9.04541 40.6938 9.10986 39.9878 9.17139 39.0239C9.73389 38.9448 10.2627 38.8071 10.7578 38.6108C11.373 40.3628 12.1465 42.2114 13.0781 44.1567C13.1895 44.3735 13.2744 44.5947 13.333 44.8203ZM20.7817 45.8486C20.7817 45.4209 20.9004 45.0796 21.1377 44.8247C21.375 44.5698 21.6519 44.4424 21.9683 44.4424C22.2788 44.4424 22.5601 44.5713 22.812 44.8291C23.0669 45.084 23.1943 45.4238 23.1943 45.8486C23.1943 46.2354 23.0801 46.5635 22.8516 46.833C22.626 47.0996 22.3315 47.2329 21.9683 47.2329C21.6431 47.2329 21.3633 47.1113 21.1289 46.8682C20.8975 46.6221 20.7817 46.2822 20.7817 45.8486ZM42.1392 44.2271H42.8071C42.646 45.0884 42.3691 45.7402 41.9766 46.1826C41.584 46.6221 41.0728 46.9121 40.4429 47.0527C39.8159 47.1963 38.978 47.2681 37.9292 47.2681C36.8862 47.2681 35.9238 47.1069 35.042 46.7847C34.1602 46.4624 33.397 46.0068 32.7524 45.418C32.1108 44.8262 31.6187 44.1362 31.2759 43.3481C30.9331 42.5601 30.7617 41.7075 30.7617 40.7905C30.7617 39.7329 30.9844 38.7295 31.4297 37.7803C31.8779 36.8281 32.6001 36.0474 33.5962 35.438C34.5952 34.8286 35.8711 34.5239 37.4238 34.5239C37.8838 34.5239 38.2544 34.54 38.5356 34.5723C38.8198 34.6016 39.1084 34.647 39.4014 34.7085C39.6973 34.7671 39.958 34.811 40.1836 34.8403C40.4092 34.8696 40.7197 34.8843 41.1152 34.8843C41.6631 34.8843 42.1069 34.8608 42.4468 34.814C42.3706 35.3003 42.3223 35.8276 42.3018 36.396C42.29 36.9263 42.2842 37.4609 42.2842 38H41.5811C41.5811 37.4111 41.417 36.9116 41.0889 36.5015C40.7637 36.0913 40.3301 35.7866 39.7881 35.5874C39.2461 35.3853 38.6616 35.2842 38.0347 35.2842C37.1558 35.2842 36.3604 35.4951 35.6484 35.917C34.9365 36.3359 34.3755 36.9453 33.9653 37.7451C33.5581 38.5449 33.3545 39.4883 33.3545 40.5752C33.3545 41.8262 33.5962 42.8999 34.0796 43.7964C34.563 44.6929 35.1841 45.3696 35.9429 45.8267C36.7046 46.2837 37.4795 46.5122 38.2676 46.5122C39.0205 46.5122 39.7778 46.2925 40.5396 45.853C41.3042 45.4136 41.8374 44.8716 42.1392 44.2271ZM46.5425 41.0762L44.165 42.0342C44.1064 41.8672 44.0771 41.6812 44.0771 41.4761C44.0771 40.9399 44.3291 40.4697 44.833 40.0654C45.3369 39.6611 45.9595 39.3535 46.7007 39.1426C47.4419 38.9316 48.145 38.8262 48.8101 38.8262C49.5776 38.8262 50.0962 39.04 50.3657 39.4678C50.6353 39.8955 50.77 40.354 50.77 40.8433C50.77 41.3208 50.7407 41.8496 50.6821 42.4297C50.6265 42.9482 50.5781 43.3701 50.5371 43.6953C50.499 44.0176 50.4712 44.2461 50.4536 44.3809C50.439 44.5127 50.4243 44.6475 50.4097 44.7852C50.3979 44.9199 50.3921 45.0342 50.3921 45.1279C50.3921 45.3975 50.4478 45.6304 50.5591 45.8267C50.6704 46.02 50.7949 46.1167 50.9326 46.1167C51.0967 46.1167 51.3384 45.998 51.6577 45.7607C51.9771 45.5205 52.2217 45.292 52.3916 45.0752V45.9761C51.7793 46.4741 51.2915 46.8198 50.9282 47.0132C50.5679 47.2095 50.2515 47.3076 49.979 47.3076C49.5483 47.3076 49.2144 47.1714 48.9771 46.8989C48.7397 46.6235 48.5815 46.3159 48.5024 45.9761C48.0161 46.4448 47.5415 46.7847 47.0786 46.9956C46.6157 47.2036 46.1118 47.3076 45.5669 47.3076C45.1216 47.3076 44.7554 47.2168 44.4683 47.0352C44.1841 46.8564 43.9775 46.6382 43.8486 46.3804C43.7227 46.1226 43.6597 45.8735 43.6597 45.6333C43.6597 45.1763 43.8589 44.7544 44.2573 44.3677C44.6587 43.978 45.2358 43.6558 45.9888 43.4009C46.7417 43.1431 47.6279 42.9746 48.6475 42.8955C48.6826 42.5352 48.7002 42.1748 48.7002 41.8145C48.7002 40.3643 48.293 39.6392 47.4785 39.6392C47.2031 39.6392 46.9629 39.7329 46.7578 39.9204C46.5527 40.105 46.4502 40.3408 46.4502 40.6279C46.4502 40.7568 46.481 40.9062 46.5425 41.0762ZM48.6123 43.4536C48.2754 43.4741 47.9092 43.5327 47.5137 43.6294C47.1211 43.7231 46.7651 43.896 46.4458 44.1479C46.1265 44.3999 45.9668 44.7383 45.9668 45.1631C45.9668 45.5088 46.0547 45.7637 46.2305 45.9277C46.4092 46.0918 46.626 46.1738 46.8809 46.1738C47.2119 46.1738 47.5093 46.0405 47.7729 45.7739C48.0396 45.5073 48.2461 45.1646 48.3926 44.7456C48.5391 44.3237 48.6123 43.8931 48.6123 43.4536ZM52.4048 46.4595H52.7124C52.8911 46.4595 53.0464 46.4199 53.1782 46.3408C53.3101 46.2588 53.4229 46.1475 53.5166 46.0068C53.6104 45.8633 53.6968 45.6978 53.7759 45.5103C53.855 45.3198 53.9619 45.0605 54.0967 44.7324C54.2227 44.4248 54.3882 44.022 54.5933 43.5239C54.8013 43.0229 54.9771 42.5894 55.1206 42.2231C55.2671 41.854 55.4502 41.3662 55.6699 40.7598C55.8896 40.1533 56.0977 39.5571 56.2939 38.9712C56.877 38.8423 57.3809 38.6738 57.8057 38.4658L58.2188 39.7271L60.0557 44.5171C60.3135 45.1616 60.5508 45.6465 60.7676 45.9717C60.9844 46.2969 61.2334 46.4595 61.5146 46.4595H61.9629V47H61.5498C61.4531 47 61.1953 46.9707 60.7764 46.9121C60.4248 46.8506 60.1069 46.8198 59.8228 46.8198C59.4712 46.8198 59.2236 46.8418 59.0801 46.8857C58.9365 46.9297 58.8149 46.9604 58.7153 46.978C58.6157 46.9927 58.2773 47 57.7002 47H57.3574V46.4595H57.8628C57.9771 46.4595 58.0767 46.395 58.1616 46.2661C58.2495 46.1372 58.2935 45.9731 58.2935 45.7739C58.2935 45.5396 58.2568 45.3301 58.1836 45.1455L56.6719 40.7378L56.6016 40.2324V40.0698H56.4565C56.3892 40.6147 56.1973 41.2988 55.8809 42.1221C55.1016 44.1875 54.7119 45.3579 54.7119 45.6333C54.7119 46.1841 54.8438 46.4595 55.1074 46.4595H55.6655V47H55.2129C55.1719 47 55.1206 46.9956 55.0591 46.9868C55.0005 46.9751 54.9419 46.9604 54.8833 46.9429C54.8247 46.9253 54.7617 46.9077 54.6943 46.8901C54.5186 46.8433 54.3135 46.8198 54.0791 46.8198C53.8916 46.8198 53.6338 46.8564 53.3057 46.9297C53.0654 46.9766 52.8853 47 52.7651 47H52.4048V46.4595ZM62.4375 39.0635H63.3735C63.5435 39.0635 63.8071 39.0869 64.1646 39.1338C64.4751 39.1807 64.7036 39.2041 64.8501 39.2041C65.0054 39.2041 65.2383 39.1807 65.5488 39.1338C65.9121 39.0869 66.1772 39.0635 66.3442 39.0635H67.2803V39.604H66.8452C66.4614 39.604 66.2036 39.7358 66.0718 39.9995C65.9399 40.2603 65.874 40.7393 65.874 41.4365V42.4648C66.3604 42.3564 66.8101 42.3022 67.2231 42.3022C67.9673 42.3022 68.6045 42.4033 69.1348 42.6055C69.668 42.8047 70.0708 43.0845 70.3433 43.4448C70.6157 43.8022 70.752 44.2139 70.752 44.6797C70.752 45.3447 70.5264 45.916 70.0752 46.3936C69.627 46.8711 68.7422 47.1099 67.4209 47.1099C66.8555 47.1099 66.3706 47.0732 65.9663 47C65.8784 46.9883 65.7129 46.959 65.4697 46.9121C65.2266 46.8623 65.0317 46.8374 64.8853 46.8374C64.2407 46.8374 63.8701 46.8652 63.7734 46.9209C63.6768 46.9736 63.4351 47 63.0483 47H62.4375V46.4595H62.9209C63.3428 46.4595 63.6108 46.269 63.7251 45.8882C63.8394 45.5044 63.8965 44.9155 63.8965 44.1216V42.0869C63.8965 41.4248 63.8657 40.9165 63.8042 40.562C63.7427 40.2046 63.6387 39.9556 63.4922 39.8149C63.3486 39.6743 63.1406 39.604 62.8682 39.604H62.4375V39.0635ZM65.874 42.9658V44.7324C65.874 45.2217 65.8931 45.5908 65.9312 45.8398C65.9722 46.0889 66.0747 46.2822 66.2388 46.4199C66.4028 46.5547 66.665 46.6221 67.0254 46.6221C67.5088 46.6221 67.8911 46.458 68.1724 46.1299C68.4536 45.7988 68.5942 45.3813 68.5942 44.8774C68.5942 44.2827 68.4229 43.8066 68.0801 43.4492C67.7402 43.0918 67.3052 42.9131 66.7749 42.9131C66.4087 42.9131 66.1084 42.9307 65.874 42.9658ZM71.5605 39.604V39.0635H72.3164C72.416 39.0635 72.6929 39.0928 73.147 39.1514C73.4487 39.1865 73.7534 39.2041 74.061 39.2041C74.4009 39.2041 74.8931 39.1572 75.5376 39.0635C75.9067 39.002 76.2554 38.9712 76.5835 38.9712C77.4448 38.9712 78.0923 39.1587 78.5259 39.5337C78.9595 39.9087 79.1763 40.376 79.1763 40.9355C79.1763 41.498 78.9756 41.9053 78.5742 42.1572C78.1729 42.4062 77.7363 42.5498 77.2646 42.5879V42.7329C78.9346 42.9292 79.7695 43.6616 79.7695 44.9302C79.7695 45.2905 79.686 45.6318 79.519 45.9541C79.3521 46.2764 79.0649 46.543 78.6577 46.7539C78.2505 46.9648 77.7144 47.0703 77.0493 47.0703C76.3872 47.0703 75.8291 47.0352 75.375 46.9648C74.9238 46.8799 74.4258 46.8374 73.8809 46.8374C73.459 46.8374 73.1851 46.8477 73.0591 46.8682C72.9331 46.8857 72.8101 46.9121 72.6899 46.9473C72.5698 46.9824 72.4336 47 72.2812 47H71.5605V46.4595H71.9209C72.6182 46.4595 72.9668 45.8662 72.9668 44.6797V41.5112C72.9668 41.0864 72.9492 40.7437 72.9141 40.4829C72.8818 40.2192 72.7983 40.0068 72.6636 39.8457C72.5288 39.6846 72.3179 39.604 72.0308 39.604H71.5605ZM75.397 43.2207V42.7153C75.4673 42.7271 75.6885 42.7329 76.0605 42.7329C76.4941 42.7329 76.8208 42.5674 77.0405 42.2363C77.2632 41.9053 77.3745 41.5127 77.3745 41.0586C77.3745 40.7158 77.2559 40.4185 77.0186 40.1665C76.7812 39.9116 76.4443 39.7842 76.0078 39.7842C75.627 39.7842 75.3091 39.8076 75.0542 39.8545C74.981 41.2285 74.9443 41.9727 74.9443 42.0869V44.9478C74.9443 46.0171 75.2505 46.5518 75.8628 46.5518C76.311 46.5518 76.7168 46.4463 77.0801 46.2354C77.4434 46.0215 77.625 45.6641 77.625 45.1631C77.625 44.5889 77.499 44.1187 77.2471 43.7524C76.998 43.3862 76.6084 43.2031 76.0781 43.2031C75.7295 43.2031 75.5024 43.209 75.397 43.2207ZM83.439 41.0762L81.0615 42.0342C81.0029 41.8672 80.9736 41.6812 80.9736 41.4761C80.9736 40.9399 81.2256 40.4697 81.7295 40.0654C82.2334 39.6611 82.856 39.3535 83.5972 39.1426C84.3384 38.9316 85.0415 38.8262 85.7065 38.8262C86.4741 38.8262 86.9927 39.04 87.2622 39.4678C87.5317 39.8955 87.6665 40.354 87.6665 40.8433C87.6665 41.3208 87.6372 41.8496 87.5786 42.4297C87.5229 42.9482 87.4746 43.3701 87.4336 43.6953C87.3955 44.0176 87.3677 44.2461 87.3501 44.3809C87.3354 44.5127 87.3208 44.6475 87.3062 44.7852C87.2944 44.9199 87.2886 45.0342 87.2886 45.1279C87.2886 45.3975 87.3442 45.6304 87.4556 45.8267C87.5669 46.02 87.6914 46.1167 87.8291 46.1167C87.9932 46.1167 88.2349 45.998 88.5542 45.7607C88.8735 45.5205 89.1182 45.292 89.2881 45.0752V45.9761C88.6758 46.4741 88.188 46.8198 87.8247 47.0132C87.4644 47.2095 87.1479 47.3076 86.8755 47.3076C86.4448 47.3076 86.1108 47.1714 85.8735 46.8989C85.6362 46.6235 85.478 46.3159 85.3989 45.9761C84.9126 46.4448 84.438 46.7847 83.9751 46.9956C83.5122 47.2036 83.0083 47.3076 82.4634 47.3076C82.0181 47.3076 81.6519 47.2168 81.3647 47.0352C81.0806 46.8564 80.874 46.6382 80.7451 46.3804C80.6191 46.1226 80.5562 45.8735 80.5562 45.6333C80.5562 45.1763 80.7554 44.7544 81.1538 44.3677C81.5552 43.978 82.1323 43.6558 82.8853 43.4009C83.6382 43.1431 84.5244 42.9746 85.5439 42.8955C85.5791 42.5352 85.5967 42.1748 85.5967 41.8145C85.5967 40.3643 85.1895 39.6392 84.375 39.6392C84.0996 39.6392 83.8594 39.7329 83.6543 39.9204C83.4492 40.105 83.3467 40.3408 83.3467 40.6279C83.3467 40.7568 83.3774 40.9062 83.439 41.0762ZM85.5088 43.4536C85.1719 43.4741 84.8057 43.5327 84.4102 43.6294C84.0176 43.7231 83.6616 43.896 83.3423 44.1479C83.0229 44.3999 82.8633 44.7383 82.8633 45.1631C82.8633 45.5088 82.9512 45.7637 83.127 45.9277C83.3057 46.0918 83.5225 46.1738 83.7773 46.1738C84.1084 46.1738 84.4058 46.0405 84.6694 45.7739C84.936 45.5073 85.1426 45.1646 85.2891 44.7456C85.4355 44.3237 85.5088 43.8931 85.5088 43.4536ZM93.1201 38.9536L94.6318 38.5229L96.9521 45.3608C97.0518 45.6216 97.1499 45.8252 97.2466 45.9717C97.3462 46.1182 97.5117 46.1914 97.7432 46.1914C98.1182 46.1914 98.4785 46.1489 98.8242 46.064C98.6133 46.5708 98.4507 46.9766 98.3364 47.2812C98.2251 47.5889 98.1167 47.917 98.0112 48.2656C97.9058 48.6172 97.7754 49.0537 97.6201 49.5752H96.8643C96.9229 49.3584 96.9814 49.0698 97.04 48.7095C97.1016 48.3491 97.1323 48.062 97.1323 47.8481C97.1323 47.2827 96.6826 47 95.7832 47H91.894C91.4517 47 91.0415 47.1465 90.6636 47.4395C90.2856 47.7354 90.0967 48.3389 90.0967 49.25V49.5752H89.3013V46.064C89.4214 46.0786 89.5547 46.0977 89.7012 46.1211C89.8477 46.1416 89.9678 46.1519 90.0615 46.1519C90.2607 46.1519 90.4277 46.0977 90.5625 45.9893C90.6973 45.8779 90.8145 45.7227 90.9141 45.5234C91.0166 45.3213 91.125 45.0503 91.2393 44.7104C91.3535 44.3706 91.4707 44.0234 91.5908 43.6689C91.6436 43.5107 91.8164 43.0244 92.1094 42.21C92.6367 40.7686 92.9736 39.6831 93.1201 38.9536ZM93.3882 40.7378H93.2827C93.2534 40.9985 93.1143 41.5112 92.8652 42.2759C92.6191 43.0376 92.3467 43.8125 92.0479 44.6006C91.749 45.3887 91.5249 45.9189 91.3755 46.1914C92.2397 46.25 92.8872 46.2793 93.3179 46.2793C93.8159 46.2793 94.4092 46.25 95.0977 46.1914C94.2305 43.8623 93.6606 42.0444 93.3882 40.7378ZM103.997 38.8262C104.922 38.8262 105.727 39.0049 106.409 39.3623C107.092 39.7197 107.613 40.2119 107.974 40.8389C108.334 41.4658 108.514 42.1631 108.514 42.9307C108.514 43.7393 108.313 44.479 107.912 45.1499C107.514 45.8179 106.947 46.3452 106.211 46.7319C105.476 47.1157 104.635 47.3076 103.689 47.3076C102.883 47.3076 102.142 47.1318 101.465 46.7803C100.792 46.4258 100.258 45.938 99.8657 45.3169C99.4761 44.6929 99.2812 44.0059 99.2812 43.2559C99.2812 42.6523 99.3823 42.084 99.5845 41.5508C99.7866 41.0176 100.088 40.5459 100.49 40.1357C100.891 39.7256 101.386 39.4048 101.975 39.1733C102.567 38.9419 103.241 38.8262 103.997 38.8262ZM103.764 39.5645C103.468 39.5645 103.163 39.6509 102.85 39.8237C102.536 39.9937 102.265 40.3101 102.037 40.7729C101.808 41.2358 101.694 41.8716 101.694 42.6802C101.694 44.0864 101.95 45.0869 102.463 45.6816C102.976 46.2734 103.541 46.5693 104.159 46.5693C105.454 46.5693 106.102 45.4824 106.102 43.3086C106.102 42.5059 105.986 41.8203 105.754 41.252C105.523 40.6807 105.227 40.2573 104.867 39.9819C104.509 39.7036 104.142 39.5645 103.764 39.5645ZM114.715 51.4121H113.691C113.591 51.4121 113.369 51.3813 113.023 51.3198C112.759 51.2729 112.436 51.2495 112.052 51.2495C111.68 51.2495 111.362 51.2729 111.098 51.3198C110.782 51.3813 110.584 51.4121 110.505 51.4121H109.639V50.8716H110.07C110.527 50.8716 110.818 50.6621 110.944 50.2432C111.07 49.8271 111.133 49.2617 111.133 48.5469V43.2383C111.133 42.2012 111.117 41.4834 111.085 41.085C111.053 40.6865 110.962 40.4067 110.812 40.2456C110.666 40.0815 110.413 39.9995 110.052 39.9995C109.692 39.9995 109.392 40.0229 109.151 40.0698V39.4414C109.875 39.3799 110.414 39.3301 110.769 39.292C111.123 39.251 111.489 39.1909 111.867 39.1118C112.248 39.0327 112.657 38.9199 113.093 38.7734C113.02 39.21 112.96 39.7139 112.913 40.2852C113.625 39.7695 114.208 39.3945 114.662 39.1602C115.119 38.9258 115.617 38.8086 116.156 38.8086C116.678 38.8086 117.157 38.9492 117.593 39.2305C118.033 39.5088 118.383 39.916 118.644 40.4521C118.904 40.9883 119.035 41.6226 119.035 42.355C119.035 43.1431 118.838 43.9048 118.446 44.6401C118.056 45.3726 117.502 45.9673 116.785 46.4243C116.067 46.8813 115.257 47.1099 114.354 47.1099C113.78 47.1099 113.367 47.0791 113.115 47.0176V48.5469C113.115 49.3057 113.191 49.8828 113.344 50.2783C113.499 50.6738 113.807 50.8716 114.267 50.8716H114.715V51.4121ZM113.115 40.9707V46.354C113.353 46.4741 113.706 46.5342 114.174 46.5342C115.126 46.5342 115.805 46.1489 116.209 45.3784C116.616 44.6079 116.82 43.751 116.82 42.8076C116.82 41.9404 116.654 41.2461 116.323 40.7246C115.995 40.2031 115.542 39.9424 114.965 39.9424C114.397 39.9424 113.78 40.2852 113.115 40.9707ZM122.779 41.0762L120.401 42.0342C120.343 41.8672 120.313 41.6812 120.313 41.4761C120.313 40.9399 120.565 40.4697 121.069 40.0654C121.573 39.6611 122.196 39.3535 122.937 39.1426C123.678 38.9316 124.381 38.8262 125.046 38.8262C125.814 38.8262 126.333 39.04 126.602 39.4678C126.872 39.8955 127.006 40.354 127.006 40.8433C127.006 41.3208 126.977 41.8496 126.918 42.4297C126.863 42.9482 126.814 43.3701 126.773 43.6953C126.735 44.0176 126.708 44.2461 126.69 44.3809C126.675 44.5127 126.661 44.6475 126.646 44.7852C126.634 44.9199 126.628 45.0342 126.628 45.1279C126.628 45.3975 126.684 45.6304 126.795 45.8267C126.907 46.02 127.031 46.1167 127.169 46.1167C127.333 46.1167 127.575 45.998 127.894 45.7607C128.213 45.5205 128.458 45.292 128.628 45.0752V45.9761C128.016 46.4741 127.528 46.8198 127.165 47.0132C126.804 47.2095 126.488 47.3076 126.215 47.3076C125.785 47.3076 125.451 47.1714 125.213 46.8989C124.976 46.6235 124.818 46.3159 124.739 45.9761C124.252 46.4448 123.778 46.7847 123.315 46.9956C122.852 47.2036 122.348 47.3076 121.803 47.3076C121.358 47.3076 120.992 47.2168 120.705 47.0352C120.42 46.8564 120.214 46.6382 120.085 46.3804C119.959 46.1226 119.896 45.8735 119.896 45.6333C119.896 45.1763 120.095 44.7544 120.494 44.3677C120.895 43.978 121.472 43.6558 122.225 43.4009C122.978 43.1431 123.864 42.9746 124.884 42.8955C124.919 42.5352 124.937 42.1748 124.937 41.8145C124.937 40.3643 124.529 39.6392 123.715 39.6392C123.439 39.6392 123.199 39.7329 122.994 39.9204C122.789 40.105 122.687 40.3408 122.687 40.6279C122.687 40.7568 122.717 40.9062 122.779 41.0762ZM124.849 43.4536C124.512 43.4741 124.146 43.5327 123.75 43.6294C123.357 43.7231 123.001 43.896 122.682 44.1479C122.363 44.3999 122.203 44.7383 122.203 45.1631C122.203 45.5088 122.291 45.7637 122.467 45.9277C122.646 46.0918 122.862 46.1738 123.117 46.1738C123.448 46.1738 123.746 46.0405 124.009 45.7739C124.276 45.5073 124.482 45.1646 124.629 44.7456C124.775 44.3237 124.849 43.8931 124.849 43.4536ZM135.817 50.0059H134.899C135.163 48.5908 135.294 47.1992 135.294 45.8311C135.672 45.9277 136.093 45.9761 136.556 45.9761C136.688 45.9761 136.816 45.8896 136.942 45.7168C137.068 45.5439 137.213 45.2524 137.377 44.8423C137.542 44.4321 137.708 43.9692 137.878 43.4536C138.051 42.938 138.444 41.75 139.056 39.8896C139.794 37.6631 140.329 35.9111 140.66 34.6338C141.205 34.5869 141.775 34.5034 142.37 34.3833C142.786 36.1265 143.354 38.123 144.075 40.373C144.798 42.623 145.37 44.2256 145.789 45.1807C145.926 45.4736 146.07 45.686 146.219 45.8179C146.372 45.9468 146.612 46.0112 146.94 46.0112C147.23 46.0112 147.602 45.9512 148.056 45.8311C147.845 47.2256 147.545 48.6172 147.155 50.0059H146.294C146.461 49.4727 146.544 48.7886 146.544 47.9536C146.544 47.5522 146.392 47.293 146.087 47.1758C145.783 47.0586 145.389 47 144.905 47C144.618 47 144.117 47.0117 143.402 47.0352C142.688 47.0586 142.091 47.0703 141.614 47.0703C140.234 47.0703 139.148 47.0527 138.357 47.0176C138.308 47.0176 138.237 47.0146 138.146 47.0088C138.056 47.0029 137.987 47 137.94 47C137.527 47 137.19 47.0688 136.929 47.2065C136.671 47.3442 136.449 47.6284 136.261 48.0591C136.077 48.4927 135.929 49.1416 135.817 50.0059ZM141.003 36.8135H140.858C140.744 37.3555 140.52 38.208 140.186 39.3711C139.852 40.5312 139.26 42.2949 138.41 44.6621C138.319 44.9141 138.248 45.1133 138.195 45.2598C138.142 45.4062 138.045 45.6743 137.905 46.064C138.965 46.1226 139.95 46.1519 140.858 46.1519C141.593 46.1519 142.547 46.1226 143.719 46.064C143.651 45.8735 143.603 45.7388 143.574 45.6597C143.544 45.5776 143.498 45.4487 143.433 45.2729C143.369 45.0942 143.309 44.9316 143.253 44.7852C142.951 43.9414 142.597 42.8794 142.189 41.5991C141.448 39.27 141.053 37.6748 141.003 36.8135ZM151.308 41.0762L148.931 42.0342C148.872 41.8672 148.843 41.6812 148.843 41.4761C148.843 40.9399 149.095 40.4697 149.599 40.0654C150.103 39.6611 150.725 39.3535 151.466 39.1426C152.208 38.9316 152.911 38.8262 153.576 38.8262C154.343 38.8262 154.862 39.04 155.131 39.4678C155.401 39.8955 155.536 40.354 155.536 40.8433C155.536 41.3208 155.506 41.8496 155.448 42.4297C155.392 42.9482 155.344 43.3701 155.303 43.6953C155.265 44.0176 155.237 44.2461 155.219 44.3809C155.205 44.5127 155.19 44.6475 155.175 44.7852C155.164 44.9199 155.158 45.0342 155.158 45.1279C155.158 45.3975 155.213 45.6304 155.325 45.8267C155.436 46.02 155.561 46.1167 155.698 46.1167C155.862 46.1167 156.104 45.998 156.423 45.7607C156.743 45.5205 156.987 45.292 157.157 45.0752V45.9761C156.545 46.4741 156.057 46.8198 155.694 47.0132C155.333 47.2095 155.017 47.3076 154.745 47.3076C154.314 47.3076 153.98 47.1714 153.743 46.8989C153.505 46.6235 153.347 46.3159 153.268 45.9761C152.782 46.4448 152.307 46.7847 151.844 46.9956C151.381 47.2036 150.877 47.3076 150.333 47.3076C149.887 47.3076 149.521 47.2168 149.234 47.0352C148.95 46.8564 148.743 46.6382 148.614 46.3804C148.488 46.1226 148.425 45.8735 148.425 45.6333C148.425 45.1763 148.625 44.7544 149.023 44.3677C149.424 43.978 150.001 43.6558 150.754 43.4009C151.507 43.1431 152.394 42.9746 153.413 42.8955C153.448 42.5352 153.466 42.1748 153.466 41.8145C153.466 40.3643 153.059 39.6392 152.244 39.6392C151.969 39.6392 151.729 39.7329 151.523 39.9204C151.318 40.105 151.216 40.3408 151.216 40.6279C151.216 40.7568 151.247 40.9062 151.308 41.0762ZM153.378 43.4536C153.041 43.4741 152.675 43.5327 152.279 43.6294C151.887 43.7231 151.531 43.896 151.211 44.1479C150.892 44.3999 150.732 44.7383 150.732 45.1631C150.732 45.5088 150.82 45.7637 150.996 45.9277C151.175 46.0918 151.392 46.1738 151.646 46.1738C151.978 46.1738 152.275 46.0405 152.539 45.7739C152.805 45.5073 153.012 45.1646 153.158 44.7456C153.305 44.3237 153.378 43.8931 153.378 43.4536ZM157.17 46.4595H157.478C157.657 46.4595 157.812 46.4199 157.944 46.3408C158.076 46.2588 158.188 46.1475 158.282 46.0068C158.376 45.8633 158.462 45.6978 158.542 45.5103C158.621 45.3198 158.728 45.0605 158.862 44.7324C158.988 44.4248 159.154 44.022 159.359 43.5239C159.567 43.0229 159.743 42.5894 159.886 42.2231C160.033 41.854 160.216 41.3662 160.436 40.7598C160.655 40.1533 160.863 39.5571 161.06 38.9712C161.643 38.8423 162.146 38.6738 162.571 38.4658L162.984 39.7271L164.821 44.5171C165.079 45.1616 165.316 45.6465 165.533 45.9717C165.75 46.2969 165.999 46.4595 166.28 46.4595H166.729V47H166.315C166.219 47 165.961 46.9707 165.542 46.9121C165.19 46.8506 164.873 46.8198 164.588 46.8198C164.237 46.8198 163.989 46.8418 163.846 46.8857C163.702 46.9297 163.581 46.9604 163.481 46.978C163.381 46.9927 163.043 47 162.466 47H162.123V46.4595H162.628C162.743 46.4595 162.842 46.395 162.927 46.2661C163.015 46.1372 163.059 45.9731 163.059 45.7739C163.059 45.5396 163.022 45.3301 162.949 45.1455L161.438 40.7378L161.367 40.2324V40.0698H161.222C161.155 40.6147 160.963 41.2988 160.646 42.1221C159.867 44.1875 159.478 45.3579 159.478 45.6333C159.478 46.1841 159.609 46.4595 159.873 46.4595H160.431V47H159.979C159.938 47 159.886 46.9956 159.825 46.9868C159.766 46.9751 159.708 46.9604 159.649 46.9429C159.59 46.9253 159.527 46.9077 159.46 46.8901C159.284 46.8433 159.079 46.8198 158.845 46.8198C158.657 46.8198 158.399 46.8564 158.071 46.9297C157.831 46.9766 157.651 47 157.531 47H157.17V46.4595ZM169.83 37.172V47H167.148V37.172H169.83ZM168.498 33.32C168.894 33.32 169.236 33.416 169.524 33.608C169.812 33.788 169.956 34.13 169.956 34.634C169.956 35.126 169.812 35.468 169.524 35.66C169.236 35.852 168.894 35.948 168.498 35.948C168.09 35.948 167.742 35.852 167.454 35.66C167.178 35.468 167.04 35.126 167.04 34.634C167.04 34.13 167.178 33.788 167.454 33.608C167.742 33.416 168.09 33.32 168.498 33.32Z" fill="black"/>
</svg>
